{"glyphs":{"0":{"ha":401,"x_min":35,"x_max":367,"o":"m 192 -6 q 104 34 139 -6 q 52 131 69 74 q 35 244 35 189 q 55 370 35 307 q 114 476 75 433 q 208 519 153 519 q 297 482 263 519 q 349 387 332 444 q 367 267 367 329 q 347 140 367 203 q 288 36 326 78 q 192 -6 249 -6 m 192 10 q 293 267 293 10 q 274 448 293 392 q 210 504 254 504 q 108 257 110 504 q 113 133 108 189 q 135 44 117 78 q 192 10 153 11 z "},"1":{"ha":401,"x_min":81,"x_max":329,"o":"m 96 22 l 144 28 q 181 65 176 32 q 183 111 182 72 q 185 239 185 150 l 185 392 q 176 453 185 435 q 135 472 167 472 l 81 472 l 81 488 q 178 503 133 493 q 254 529 224 514 q 250 393 251 461 q 249 256 249 325 q 249 122 249 167 q 250 72 250 78 q 257 43 250 54 q 285 29 264 32 l 329 22 l 329 6 q 261 8 290 7 q 213 8 232 8 q 164 8 193 8 q 96 6 135 7 l 96 22 z "},"2":{"ha":401,"x_min":29,"x_max":357,"o":"m 310 -35 q 311 -23 311 -28 q 311 -14 311 -18 q 306 2 311 -3 q 283 7 301 7 l 163 7 q 107 6 140 7 q 29 4 74 6 q 68 74 40 35 q 135 153 96 114 q 238 264 196 213 q 279 382 279 315 q 253 467 279 432 q 179 501 228 501 q 114 478 142 501 q 86 417 86 456 q 104 361 86 386 q 154 336 122 336 q 196 360 172 336 q 124 301 186 301 q 60 327 85 301 q 35 392 35 353 q 79 485 35 450 q 185 519 124 519 q 307 485 257 519 q 357 390 357 450 q 344 319 357 350 q 307 261 332 289 q 242 201 283 236 q 160 133 200 167 q 97 72 119 99 l 347 72 l 326 -35 l 310 -35 z "},"3":{"ha":401,"x_min":32,"x_max":364,"o":"m 156 -6 q 72 10 113 -6 q 32 65 32 26 q 63 99 32 99 q 108 54 89 99 q 133 22 118 32 q 168 13 147 13 q 252 46 221 13 q 283 151 283 79 q 201 269 283 269 q 153 244 174 269 q 133 226 143 231 q 117 221 124 221 q 94 236 94 221 q 100 256 94 246 q 125 272 106 267 q 222 331 192 293 q 253 421 253 368 q 176 499 253 499 q 123 479 147 499 q 99 428 99 460 q 146 372 99 372 q 192 390 168 372 q 122 340 171 340 q 72 358 92 340 q 51 404 51 375 q 72 465 51 439 q 126 506 93 490 q 196 521 160 521 q 288 497 250 521 q 326 422 326 472 q 289 342 326 372 q 200 288 251 313 l 221 288 q 318 260 278 288 q 353 221 342 243 q 364 175 364 199 q 335 92 364 133 q 260 22 307 50 q 156 -6 213 -6 z "},"4":{"ha":401,"x_min":32,"x_max":390,"o":"m 156 6 l 157 24 q 218 33 201 24 q 235 90 235 43 l 235 169 l 32 169 l 32 196 l 283 524 l 301 524 l 301 196 l 390 196 l 390 169 l 301 169 l 300 99 q 306 47 300 63 q 328 28 311 31 q 378 25 346 25 l 378 6 q 316 8 343 7 q 271 8 289 8 q 222 8 251 8 q 156 6 193 7 m 235 196 l 235 426 l 61 196 l 235 196 z "},"5":{"ha":401,"x_min":28,"x_max":358,"o":"m 156 -6 q 98 2 128 -6 q 48 25 68 10 q 28 67 28 40 l 28 69 q 54 101 28 101 q 101 57 85 101 q 161 14 118 14 q 281 181 281 14 q 192 301 281 301 q 121 278 153 301 q 86 215 89 256 q 71 196 83 200 q 54 211 54 196 q 56 226 54 215 q 58 251 57 238 q 71 349 65 300 q 81 446 76 397 l 82 526 q 197 482 135 482 q 308 529 257 482 l 314 529 q 263 447 300 472 q 167 422 225 422 q 133 424 150 422 q 97 429 117 426 l 81 272 q 144 313 107 300 q 219 326 181 326 q 324 285 290 326 q 358 190 358 244 q 335 99 358 144 q 266 24 311 54 q 156 -6 221 -6 z "},"6":{"ha":401,"x_min":49,"x_max":381,"o":"m 208 -4 q 116 27 151 -4 q 65 109 81 58 q 49 219 49 160 q 72 364 49 294 q 142 477 94 433 q 258 521 189 521 q 319 508 293 521 q 353 463 353 492 q 321 428 353 428 q 279 464 300 428 q 231 499 261 499 q 122 265 131 499 q 167 310 136 290 q 235 331 199 331 q 345 285 310 331 q 381 182 381 239 q 360 94 381 138 q 302 24 340 51 q 208 -4 264 -4 m 210 10 q 308 174 308 10 q 231 308 308 308 q 167 286 192 308 q 131 234 143 264 q 118 181 119 204 q 138 54 117 97 q 210 10 160 11 z "},"7":{"ha":401,"x_min":42,"x_max":376,"o":"m 174 -7 q 136 29 136 -7 q 147 115 136 51 q 207 271 158 178 q 266 365 231 317 q 332 443 301 413 l 153 443 q 106 439 122 443 q 80 417 89 435 q 60 358 71 400 l 42 358 l 85 568 l 104 568 q 100 543 101 553 q 99 529 99 533 q 128 507 99 507 l 376 507 l 376 481 q 299 360 329 411 q 251 269 268 308 q 222 161 228 214 q 217 49 217 108 q 202 4 217 15 q 174 -7 188 -7 z "},"8":{"ha":404,"x_min":35,"x_max":371,"o":"m 201 -3 q 123 12 161 -3 q 60 54 85 26 q 35 121 35 82 q 144 263 35 207 q 51 386 51 310 q 97 478 51 443 q 201 514 142 514 q 305 484 258 514 q 351 401 351 454 q 268 283 351 333 q 369 150 369 228 q 322 40 371 82 q 201 -3 272 -3 m 250 293 q 297 390 297 339 q 270 467 297 435 q 199 499 243 499 q 130 475 158 499 q 101 411 101 451 q 146 341 101 365 q 250 293 190 317 m 201 14 q 284 42 249 14 q 319 115 319 71 q 299 172 319 150 q 244 212 279 193 q 161 254 208 231 q 92 132 92 210 q 201 14 94 14 z "},"9":{"ha":401,"x_min":35,"x_max":367,"o":"m 165 -6 q 99 9 131 -6 q 67 54 67 24 q 100 88 69 88 q 140 51 121 88 q 189 14 160 14 q 294 250 290 14 q 242 200 272 217 q 183 183 211 183 q 76 227 118 183 q 35 336 35 271 q 56 428 35 386 q 116 494 78 469 q 203 519 154 519 q 298 488 263 519 q 350 403 333 456 q 367 290 367 351 q 344 147 367 215 q 278 37 322 79 q 165 -6 233 -6 m 186 207 q 272 251 247 207 q 297 364 297 296 q 274 467 297 429 q 204 504 250 504 q 108 347 108 504 q 186 207 108 207 z "},"\r":{"ha":0,"x_min":0,"x_max":0,"o":""}," ":{"ha":261,"x_min":0,"x_max":0,"o":""}," ":{"ha":261,"x_min":0,"x_max":0,"o":""},"A":{"ha":1183,"x_min":8,"x_max":1275,"o":"m 338 -119 q 169 -81 243 -119 q 51 24 94 -43 q 8 176 8 90 q 44 320 8 256 q 144 423 81 385 q 290 461 208 461 q 442 400 381 461 q 497 257 497 343 q 449 130 497 178 q 321 82 401 82 q 263 97 282 82 q 244 124 244 111 q 251 132 244 132 q 258 126 254 132 q 268 117 263 119 q 294 103 279 107 q 322 100 308 100 q 431 143 392 100 q 471 257 471 186 q 420 387 471 335 q 285 439 369 439 q 160 403 213 439 q 80 310 108 368 q 51 183 51 253 q 89 44 51 107 q 191 -57 126 -19 q 339 -94 256 -94 q 606 9 492 -94 q 793 308 721 113 q 858 481 825 396 q 927 633 892 565 q 997 732 963 700 q 890 783 953 758 q 763 824 826 807 q 654 840 700 840 q 526 817 585 840 q 432 747 467 793 q 397 631 397 700 q 455 482 397 540 q 607 424 513 424 q 741 462 688 424 q 794 572 794 500 q 756 657 794 631 q 745 663 750 660 q 740 671 740 665 q 751 681 740 681 q 771 674 754 681 q 822 568 822 644 q 759 443 822 488 q 606 399 696 399 q 478 428 536 399 q 388 507 421 457 q 354 621 354 557 q 394 772 354 708 q 504 872 433 836 q 667 907 575 907 q 777 887 724 907 q 890 832 831 867 q 1022 754 950 797 q 1160 803 1097 803 q 1240 782 1204 803 q 1275 721 1275 761 q 1253 677 1275 692 q 1204 663 1232 663 q 1169 665 1190 663 q 1135 674 1147 668 q 1103 558 1119 624 q 1078 390 1088 492 q 1017 160 1068 258 q 874 22 965 63 q 903 27 889 26 q 926 28 917 28 q 979 21 951 28 q 1032 7 1007 14 q 1071 0 1057 0 q 1096 22 1096 0 q 1090 39 1096 29 q 1078 54 1085 49 q 1088 65 1078 65 q 1105 51 1094 65 q 1115 18 1115 38 q 1056 -28 1115 -28 q 988 -17 1029 -28 q 894 2 924 -1 q 840 7 865 6 q 906 95 881 56 q 949 173 932 135 q 979 256 967 211 q 1004 360 992 300 l 843 360 l 826 313 q 338 -119 674 -119 m 1194 685 q 1233 694 1218 685 q 1247 721 1247 703 q 1216 765 1247 751 q 1156 779 1185 779 q 1043 740 1094 779 l 1114 706 q 1126 727 1121 721 q 1140 733 1131 733 q 1149 728 1146 733 q 1151 721 1151 724 q 1143 693 1151 708 q 1169 687 1154 689 q 1194 685 1183 685 m 1013 389 q 1104 683 1043 540 q 1076 696 1097 686 q 1019 724 1056 706 q 851 389 946 654 l 1013 389 z "},"Æ":{"ha":1771,"x_min":8,"x_max":1751,"o":"m 338 -119 q 169 -81 243 -119 q 51 24 94 -43 q 8 176 8 90 q 44 320 8 256 q 144 423 81 385 q 290 461 208 461 q 442 400 381 461 q 497 257 497 343 q 449 130 497 178 q 321 82 401 82 q 263 97 282 82 q 244 124 244 111 q 251 132 244 132 q 258 126 254 132 q 268 117 263 119 q 294 103 279 107 q 322 100 308 100 q 431 143 392 100 q 471 257 471 186 q 420 387 471 335 q 285 439 369 439 q 160 403 213 439 q 80 310 108 368 q 51 183 51 253 q 89 44 51 107 q 191 -57 126 -19 q 339 -94 256 -94 q 606 9 492 -94 q 793 308 721 113 q 858 481 825 396 q 927 633 892 565 q 997 732 963 700 q 890 783 953 758 q 763 824 826 807 q 654 840 700 840 q 526 817 585 840 q 432 747 467 793 q 397 631 397 700 q 455 482 397 540 q 607 424 513 424 q 741 462 688 424 q 794 572 794 500 q 756 657 794 631 q 745 663 750 660 q 740 671 740 665 q 751 681 740 681 q 771 674 754 681 q 822 568 822 644 q 759 443 822 488 q 606 399 696 399 q 478 428 536 399 q 388 507 421 457 q 354 621 354 557 q 394 772 354 708 q 504 872 433 836 q 667 907 575 907 q 777 887 724 907 q 890 832 831 867 q 1022 754 950 797 q 1160 803 1097 803 q 1221 789 1197 803 q 1307 874 1247 846 q 1438 903 1367 903 q 1524 887 1483 903 q 1591 841 1565 871 q 1617 768 1617 811 q 1589 701 1617 731 q 1519 672 1561 672 q 1472 692 1489 672 q 1454 732 1454 713 q 1461 743 1454 743 q 1472 729 1467 743 q 1491 703 1478 715 q 1521 690 1504 690 q 1565 713 1547 690 q 1583 765 1583 736 q 1541 852 1583 819 q 1444 885 1499 885 q 1317 834 1364 885 q 1271 701 1271 783 q 1307 589 1271 633 q 1353 598 1326 594 q 1404 601 1381 601 q 1497 556 1497 601 q 1474 522 1497 535 q 1419 510 1451 510 q 1342 524 1376 510 q 1276 561 1308 539 q 1172 491 1215 539 q 1108 380 1129 443 q 1086 247 1086 317 q 1126 106 1086 168 q 1234 9 1167 44 q 1383 -26 1301 -26 q 1547 7 1474 -26 q 1663 102 1619 40 q 1706 253 1706 164 q 1669 366 1706 319 q 1567 413 1632 413 q 1502 392 1526 413 q 1478 340 1478 372 q 1484 322 1478 326 q 1496 317 1490 317 q 1497 315 1497 317 q 1486 307 1497 307 q 1468 317 1476 307 q 1460 349 1460 326 q 1492 412 1460 388 q 1564 436 1524 436 q 1701 383 1650 436 q 1751 244 1751 329 q 1702 86 1751 151 q 1573 -13 1653 21 q 1400 -47 1493 -47 q 1170 5 1271 -47 q 1032 157 1069 57 q 882 22 982 82 q 907 27 897 26 q 926 28 917 28 q 979 21 951 28 q 1032 7 1007 14 q 1071 0 1057 0 q 1096 22 1096 0 q 1106 31 1096 31 q 1115 18 1115 31 q 1056 -28 1115 -28 q 988 -17 1029 -28 q 894 2 924 -1 q 840 7 865 6 q 906 95 881 56 q 949 173 932 135 q 979 256 967 211 q 1004 360 992 300 l 843 360 l 826 313 q 338 -119 674 -119 m 1194 685 l 1206 685 q 1204 699 1204 692 q 1204 713 1204 706 q 1213 767 1204 742 q 1156 779 1186 779 q 1043 740 1094 779 l 1114 706 q 1144 735 1128 735 q 1156 719 1156 735 q 1147 692 1156 707 q 1171 686 1158 688 q 1194 685 1183 685 m 1013 389 q 1104 683 1043 540 q 1076 696 1097 686 q 1019 724 1056 706 q 851 389 946 654 l 1013 389 m 1107 488 q 1176 539 1138 517 q 1260 575 1215 561 q 1210 663 1222 613 l 1204 663 q 1175 665 1190 663 q 1142 669 1160 667 q 1122 590 1131 633 q 1107 488 1114 547 m 1419 528 q 1457 535 1442 528 q 1472 554 1472 543 q 1453 576 1472 569 q 1404 583 1435 583 q 1363 581 1383 583 q 1319 572 1342 578 q 1365 540 1342 551 q 1419 528 1389 528 z "},"Ǽ":{"ha":1771,"x_min":8,"x_max":1751,"o":"m 338 -119 q 169 -81 243 -119 q 51 24 94 -43 q 8 176 8 90 q 44 320 8 256 q 144 423 81 385 q 290 461 208 461 q 442 400 381 461 q 497 257 497 343 q 449 130 497 178 q 321 82 401 82 q 263 97 282 82 q 244 124 244 111 q 251 132 244 132 q 258 126 254 132 q 268 117 263 119 q 294 103 279 107 q 322 100 308 100 q 431 143 392 100 q 471 257 471 186 q 420 387 471 335 q 285 439 369 439 q 160 403 213 439 q 80 310 108 368 q 51 183 51 253 q 89 44 51 107 q 191 -57 126 -19 q 339 -94 256 -94 q 606 9 492 -94 q 793 308 721 113 q 858 481 825 396 q 927 633 892 565 q 997 732 963 700 q 890 783 953 758 q 763 824 826 807 q 654 840 700 840 q 526 817 585 840 q 432 747 467 793 q 397 631 397 700 q 455 482 397 540 q 607 424 513 424 q 741 462 688 424 q 794 572 794 500 q 756 657 794 631 q 745 663 750 660 q 740 671 740 665 q 751 681 740 681 q 771 674 754 681 q 822 568 822 644 q 759 443 822 488 q 606 399 696 399 q 478 428 536 399 q 388 507 421 457 q 354 621 354 557 q 394 772 354 708 q 504 872 433 836 q 667 907 575 907 q 777 887 724 907 q 890 832 831 867 q 1022 754 950 797 q 1160 803 1097 803 q 1221 789 1197 803 q 1307 874 1247 846 q 1438 903 1367 903 q 1524 887 1483 903 q 1591 841 1565 871 q 1617 768 1617 811 q 1589 701 1617 731 q 1519 672 1561 672 q 1472 692 1489 672 q 1454 732 1454 713 q 1461 743 1454 743 q 1472 729 1467 743 q 1491 703 1478 715 q 1521 690 1504 690 q 1565 713 1547 690 q 1583 765 1583 736 q 1541 852 1583 819 q 1444 885 1499 885 q 1317 834 1364 885 q 1271 701 1271 783 q 1307 589 1271 633 q 1353 598 1326 594 q 1404 601 1381 601 q 1497 556 1497 601 q 1474 522 1497 535 q 1419 510 1451 510 q 1342 524 1376 510 q 1276 561 1308 539 q 1172 491 1215 539 q 1108 380 1129 443 q 1086 247 1086 317 q 1126 106 1086 168 q 1234 9 1167 44 q 1383 -26 1301 -26 q 1547 7 1474 -26 q 1663 102 1619 40 q 1706 253 1706 164 q 1669 366 1706 319 q 1567 413 1632 413 q 1502 392 1526 413 q 1478 340 1478 372 q 1484 322 1478 326 q 1496 317 1490 317 q 1497 315 1497 317 q 1486 307 1497 307 q 1468 317 1476 307 q 1460 349 1460 326 q 1492 412 1460 388 q 1564 436 1524 436 q 1701 383 1650 436 q 1751 244 1751 329 q 1702 86 1751 151 q 1573 -13 1653 21 q 1400 -47 1493 -47 q 1170 5 1271 -47 q 1032 157 1069 57 q 882 22 982 82 q 907 27 897 26 q 926 28 917 28 q 979 21 951 28 q 1032 7 1007 14 q 1071 0 1057 0 q 1096 22 1096 0 q 1106 31 1096 31 q 1115 18 1115 31 q 1056 -28 1115 -28 q 988 -17 1029 -28 q 894 2 924 -1 q 840 7 865 6 q 906 95 881 56 q 949 173 932 135 q 979 256 967 211 q 1004 360 992 300 l 843 360 l 826 313 q 338 -119 674 -119 m 1194 685 l 1206 685 q 1204 699 1204 692 q 1204 713 1204 706 q 1213 767 1204 742 q 1156 779 1186 779 q 1043 740 1094 779 l 1114 706 q 1144 735 1128 735 q 1156 719 1156 735 q 1147 692 1156 707 q 1171 686 1158 688 q 1194 685 1183 685 m 1013 389 q 1104 683 1043 540 q 1076 696 1097 686 q 1019 724 1056 706 q 851 389 946 654 l 1013 389 m 1107 488 q 1176 539 1138 517 q 1260 575 1215 561 q 1210 663 1222 613 l 1204 663 q 1175 665 1190 663 q 1142 669 1160 667 q 1122 590 1131 633 q 1107 488 1114 547 m 1419 528 q 1457 535 1442 528 q 1472 554 1472 543 q 1453 576 1472 569 q 1404 583 1435 583 q 1363 581 1383 583 q 1319 572 1342 578 q 1365 540 1342 551 q 1419 528 1389 528 m 1206 974 q 1185 978 1185 974 q 1205 996 1185 979 q 1253 1034 1225 1013 q 1304 1072 1281 1056 q 1333 1088 1328 1088 q 1356 1081 1342 1088 q 1369 1064 1369 1074 l 1206 974 z "},"Á":{"ha":1183,"x_min":8,"x_max":1340,"o":"m 338 -119 q 169 -81 243 -119 q 51 24 94 -43 q 8 176 8 90 q 44 320 8 256 q 144 423 81 385 q 290 461 208 461 q 442 400 381 461 q 497 257 497 343 q 449 130 497 178 q 321 82 401 82 q 263 97 282 82 q 244 124 244 111 q 251 132 244 132 q 258 126 254 132 q 268 117 263 119 q 294 103 279 107 q 322 100 308 100 q 431 143 392 100 q 471 257 471 186 q 420 387 471 335 q 285 439 369 439 q 160 403 213 439 q 80 310 108 368 q 51 183 51 253 q 89 44 51 107 q 191 -57 126 -19 q 339 -94 256 -94 q 606 9 492 -94 q 793 308 721 113 q 858 481 825 396 q 927 633 892 565 q 997 732 963 700 q 890 783 953 758 q 763 824 826 807 q 654 840 700 840 q 526 817 585 840 q 432 747 467 793 q 397 631 397 700 q 455 482 397 540 q 607 424 513 424 q 741 462 688 424 q 794 572 794 500 q 756 657 794 631 q 745 663 750 660 q 740 671 740 665 q 751 681 740 681 q 771 674 754 681 q 822 568 822 644 q 759 443 822 488 q 606 399 696 399 q 478 428 536 399 q 388 507 421 457 q 354 621 354 557 q 394 772 354 708 q 504 872 433 836 q 667 907 575 907 q 777 887 724 907 q 890 832 831 867 q 1022 754 950 797 q 1160 803 1097 803 q 1240 782 1204 803 q 1275 721 1275 761 q 1253 677 1275 692 q 1204 663 1232 663 q 1169 665 1190 663 q 1135 674 1147 668 q 1103 558 1119 624 q 1078 390 1088 492 q 1017 160 1068 258 q 874 22 965 63 q 903 27 889 26 q 926 28 917 28 q 979 21 951 28 q 1032 7 1007 14 q 1071 0 1057 0 q 1096 22 1096 0 q 1090 39 1096 29 q 1078 54 1085 49 q 1088 65 1078 65 q 1105 51 1094 65 q 1115 18 1115 38 q 1056 -28 1115 -28 q 988 -17 1029 -28 q 894 2 924 -1 q 840 7 865 6 q 906 95 881 56 q 949 173 932 135 q 979 256 967 211 q 1004 360 992 300 l 843 360 l 826 313 q 338 -119 674 -119 m 1194 685 q 1233 694 1218 685 q 1247 721 1247 703 q 1216 765 1247 751 q 1156 779 1185 779 q 1043 740 1094 779 l 1114 706 q 1126 727 1121 721 q 1140 733 1131 733 q 1149 728 1146 733 q 1151 721 1151 724 q 1143 693 1151 708 q 1169 687 1154 689 q 1194 685 1183 685 m 1013 389 q 1104 683 1043 540 q 1076 696 1097 686 q 1019 724 1056 706 q 851 389 946 654 l 1013 389 m 1176 888 q 1156 892 1156 888 q 1176 910 1156 893 q 1224 948 1196 926 q 1275 985 1251 969 q 1304 1001 1299 1001 q 1326 994 1313 1001 q 1340 978 1340 988 l 1176 888 z "},"Ă":{"ha":1183,"x_min":8,"x_max":1338,"o":"m 338 -119 q 169 -81 243 -119 q 51 24 94 -43 q 8 176 8 90 q 44 320 8 256 q 144 423 81 385 q 290 461 208 461 q 442 400 381 461 q 497 257 497 343 q 449 130 497 178 q 321 82 401 82 q 263 97 282 82 q 244 124 244 111 q 251 132 244 132 q 258 126 254 132 q 268 117 263 119 q 294 103 279 107 q 322 100 308 100 q 431 143 392 100 q 471 257 471 186 q 420 387 471 335 q 285 439 369 439 q 160 403 213 439 q 80 310 108 368 q 51 183 51 253 q 89 44 51 107 q 191 -57 126 -19 q 339 -94 256 -94 q 606 9 492 -94 q 793 308 721 113 q 858 481 825 396 q 927 633 892 565 q 997 732 963 700 q 890 783 953 758 q 763 824 826 807 q 654 840 700 840 q 526 817 585 840 q 432 747 467 793 q 397 631 397 700 q 455 482 397 540 q 607 424 513 424 q 741 462 688 424 q 794 572 794 500 q 756 657 794 631 q 745 663 750 660 q 740 671 740 665 q 751 681 740 681 q 771 674 754 681 q 822 568 822 644 q 759 443 822 488 q 606 399 696 399 q 478 428 536 399 q 388 507 421 457 q 354 621 354 557 q 394 772 354 708 q 504 872 433 836 q 667 907 575 907 q 777 887 724 907 q 890 832 831 867 q 1022 754 950 797 q 1160 803 1097 803 q 1240 782 1204 803 q 1275 721 1275 761 q 1253 677 1275 692 q 1204 663 1232 663 q 1169 665 1190 663 q 1135 674 1147 668 q 1103 558 1119 624 q 1078 390 1088 492 q 1017 160 1068 258 q 874 22 965 63 q 903 27 889 26 q 926 28 917 28 q 979 21 951 28 q 1032 7 1007 14 q 1071 0 1057 0 q 1096 22 1096 0 q 1090 39 1096 29 q 1078 54 1085 49 q 1088 65 1078 65 q 1105 51 1094 65 q 1115 18 1115 38 q 1056 -28 1115 -28 q 988 -17 1029 -28 q 894 2 924 -1 q 840 7 865 6 q 906 95 881 56 q 949 173 932 135 q 979 256 967 211 q 1004 360 992 300 l 843 360 l 826 313 q 338 -119 674 -119 m 1194 685 q 1233 694 1218 685 q 1247 721 1247 703 q 1216 765 1247 751 q 1156 779 1185 779 q 1043 740 1094 779 l 1114 706 q 1126 727 1121 721 q 1140 733 1131 733 q 1149 728 1146 733 q 1151 721 1151 724 q 1143 693 1151 708 q 1169 687 1154 689 q 1194 685 1183 685 m 1013 389 q 1104 683 1043 540 q 1076 696 1097 686 q 1019 724 1056 706 q 851 389 946 654 l 1013 389 m 1176 889 q 1119 908 1146 889 q 1089 958 1092 926 q 1089 968 1089 963 q 1090 978 1089 974 q 1103 995 1093 989 q 1121 1001 1113 1001 q 1129 996 1129 1001 q 1147 945 1129 964 q 1197 926 1165 926 q 1256 942 1225 926 q 1314 994 1286 957 l 1338 994 q 1331 982 1338 993 q 1275 922 1313 954 q 1176 889 1238 889 z "},"Ắ":{"ha":1183,"x_min":8,"x_max":1358,"o":"m 338 -119 q 169 -81 243 -119 q 51 24 94 -43 q 8 176 8 90 q 44 320 8 256 q 144 423 81 385 q 290 461 208 461 q 442 400 381 461 q 497 257 497 343 q 449 130 497 178 q 321 82 401 82 q 263 97 282 82 q 244 124 244 111 q 251 132 244 132 q 258 126 254 132 q 268 117 263 119 q 294 103 279 107 q 322 100 308 100 q 431 143 392 100 q 471 257 471 186 q 420 387 471 335 q 285 439 369 439 q 160 403 213 439 q 80 310 108 368 q 51 183 51 253 q 89 44 51 107 q 191 -57 126 -19 q 339 -94 256 -94 q 606 9 492 -94 q 793 308 721 113 q 858 481 825 396 q 927 633 892 565 q 997 732 963 700 q 890 783 953 758 q 763 824 826 807 q 654 840 700 840 q 526 817 585 840 q 432 747 467 793 q 397 631 397 700 q 455 482 397 540 q 607 424 513 424 q 741 462 688 424 q 794 572 794 500 q 756 657 794 631 q 745 663 750 660 q 740 671 740 665 q 751 681 740 681 q 771 674 754 681 q 822 568 822 644 q 759 443 822 488 q 606 399 696 399 q 478 428 536 399 q 388 507 421 457 q 354 621 354 557 q 394 772 354 708 q 504 872 433 836 q 667 907 575 907 q 777 887 724 907 q 890 832 831 867 q 1022 754 950 797 q 1160 803 1097 803 q 1240 782 1204 803 q 1275 721 1275 761 q 1253 677 1275 692 q 1204 663 1232 663 q 1169 665 1190 663 q 1135 674 1147 668 q 1103 558 1119 624 q 1078 390 1088 492 q 1017 160 1068 258 q 874 22 965 63 q 903 27 889 26 q 926 28 917 28 q 979 21 951 28 q 1032 7 1007 14 q 1071 0 1057 0 q 1096 22 1096 0 q 1090 39 1096 29 q 1078 54 1085 49 q 1088 65 1078 65 q 1105 51 1094 65 q 1115 18 1115 38 q 1056 -28 1115 -28 q 988 -17 1029 -28 q 894 2 924 -1 q 840 7 865 6 q 906 95 881 56 q 949 173 932 135 q 979 256 967 211 q 1004 360 992 300 l 843 360 l 826 313 q 338 -119 674 -119 m 1194 685 q 1233 694 1218 685 q 1247 721 1247 703 q 1216 765 1247 751 q 1156 779 1185 779 q 1043 740 1094 779 l 1114 706 q 1126 727 1121 721 q 1140 733 1131 733 q 1149 728 1146 733 q 1151 721 1151 724 q 1143 693 1151 708 q 1169 687 1154 689 q 1194 685 1183 685 m 1013 389 q 1104 683 1043 540 q 1076 696 1097 686 q 1019 724 1056 706 q 851 389 946 654 l 1013 389 m 1176 889 q 1119 908 1146 889 q 1089 958 1092 926 q 1089 968 1089 963 q 1090 978 1089 974 q 1103 995 1093 989 q 1121 1001 1113 1001 q 1129 996 1129 1001 q 1147 945 1129 964 q 1197 926 1165 926 q 1256 942 1225 926 q 1314 994 1286 957 l 1338 994 q 1331 982 1338 993 q 1275 922 1313 954 q 1176 889 1238 889 m 1194 1008 q 1174 1013 1174 1008 q 1194 1031 1174 1014 q 1242 1069 1214 1047 q 1293 1106 1269 1090 q 1322 1122 1317 1122 q 1344 1115 1331 1122 q 1358 1099 1358 1108 l 1194 1008 z "},"Ặ":{"ha":1183,"x_min":8,"x_max":1338,"o":"m 338 -119 q 169 -81 243 -119 q 51 24 94 -43 q 8 176 8 90 q 44 320 8 256 q 144 423 81 385 q 290 461 208 461 q 442 400 381 461 q 497 257 497 343 q 449 130 497 178 q 321 82 401 82 q 263 97 282 82 q 244 124 244 111 q 251 132 244 132 q 258 126 254 132 q 268 117 263 119 q 294 103 279 107 q 322 100 308 100 q 431 143 392 100 q 471 257 471 186 q 420 387 471 335 q 285 439 369 439 q 160 403 213 439 q 80 310 108 368 q 51 183 51 253 q 89 44 51 107 q 191 -57 126 -19 q 339 -94 256 -94 q 606 9 492 -94 q 793 308 721 113 q 858 481 825 396 q 927 633 892 565 q 997 732 963 700 q 890 783 953 758 q 763 824 826 807 q 654 840 700 840 q 526 817 585 840 q 432 747 467 793 q 397 631 397 700 q 455 482 397 540 q 607 424 513 424 q 741 462 688 424 q 794 572 794 500 q 756 657 794 631 q 745 663 750 660 q 740 671 740 665 q 751 681 740 681 q 771 674 754 681 q 822 568 822 644 q 759 443 822 488 q 606 399 696 399 q 478 428 536 399 q 388 507 421 457 q 354 621 354 557 q 394 772 354 708 q 504 872 433 836 q 667 907 575 907 q 777 887 724 907 q 890 832 831 867 q 1022 754 950 797 q 1160 803 1097 803 q 1240 782 1204 803 q 1275 721 1275 761 q 1253 677 1275 692 q 1204 663 1232 663 q 1169 665 1190 663 q 1135 674 1147 668 q 1103 558 1119 624 q 1078 390 1088 492 q 1017 160 1068 258 q 874 22 965 63 q 903 27 889 26 q 926 28 917 28 q 979 21 951 28 q 1032 7 1007 14 q 1071 0 1057 0 q 1096 22 1096 0 q 1090 39 1096 29 q 1078 54 1085 49 q 1088 65 1078 65 q 1105 51 1094 65 q 1115 18 1115 38 q 1056 -28 1115 -28 q 988 -17 1029 -28 q 894 2 924 -1 q 840 7 865 6 q 906 95 881 56 q 949 173 932 135 q 979 256 967 211 q 1004 360 992 300 l 843 360 l 826 313 q 338 -119 674 -119 m 1194 685 q 1233 694 1218 685 q 1247 721 1247 703 q 1216 765 1247 751 q 1156 779 1185 779 q 1043 740 1094 779 l 1114 706 q 1126 727 1121 721 q 1140 733 1131 733 q 1149 728 1146 733 q 1151 721 1151 724 q 1143 693 1151 708 q 1169 687 1154 689 q 1194 685 1183 685 m 1013 389 q 1104 683 1043 540 q 1076 696 1097 686 q 1019 724 1056 706 q 851 389 946 654 l 1013 389 m 742 -187 q 712 -176 724 -187 q 700 -146 700 -164 q 715 -112 700 -126 q 749 -99 729 -99 q 777 -110 765 -99 q 789 -140 789 -122 q 775 -174 789 -160 q 742 -187 761 -187 m 1176 889 q 1119 908 1146 889 q 1089 958 1092 926 q 1089 968 1089 963 q 1090 978 1089 974 q 1103 995 1093 989 q 1121 1001 1113 1001 q 1129 996 1129 1001 q 1147 945 1129 964 q 1197 926 1165 926 q 1256 942 1225 926 q 1314 994 1286 957 l 1338 994 q 1331 982 1338 993 q 1275 922 1313 954 q 1176 889 1238 889 z "},"Ằ":{"ha":1183,"x_min":8,"x_max":1338,"o":"m 338 -119 q 169 -81 243 -119 q 51 24 94 -43 q 8 176 8 90 q 44 320 8 256 q 144 423 81 385 q 290 461 208 461 q 442 400 381 461 q 497 257 497 343 q 449 130 497 178 q 321 82 401 82 q 263 97 282 82 q 244 124 244 111 q 251 132 244 132 q 258 126 254 132 q 268 117 263 119 q 294 103 279 107 q 322 100 308 100 q 431 143 392 100 q 471 257 471 186 q 420 387 471 335 q 285 439 369 439 q 160 403 213 439 q 80 310 108 368 q 51 183 51 253 q 89 44 51 107 q 191 -57 126 -19 q 339 -94 256 -94 q 606 9 492 -94 q 793 308 721 113 q 858 481 825 396 q 927 633 892 565 q 997 732 963 700 q 890 783 953 758 q 763 824 826 807 q 654 840 700 840 q 526 817 585 840 q 432 747 467 793 q 397 631 397 700 q 455 482 397 540 q 607 424 513 424 q 741 462 688 424 q 794 572 794 500 q 756 657 794 631 q 745 663 750 660 q 740 671 740 665 q 751 681 740 681 q 771 674 754 681 q 822 568 822 644 q 759 443 822 488 q 606 399 696 399 q 478 428 536 399 q 388 507 421 457 q 354 621 354 557 q 394 772 354 708 q 504 872 433 836 q 667 907 575 907 q 777 887 724 907 q 890 832 831 867 q 1022 754 950 797 q 1160 803 1097 803 q 1240 782 1204 803 q 1275 721 1275 761 q 1253 677 1275 692 q 1204 663 1232 663 q 1169 665 1190 663 q 1135 674 1147 668 q 1103 558 1119 624 q 1078 390 1088 492 q 1017 160 1068 258 q 874 22 965 63 q 903 27 889 26 q 926 28 917 28 q 979 21 951 28 q 1032 7 1007 14 q 1071 0 1057 0 q 1096 22 1096 0 q 1090 39 1096 29 q 1078 54 1085 49 q 1088 65 1078 65 q 1105 51 1094 65 q 1115 18 1115 38 q 1056 -28 1115 -28 q 988 -17 1029 -28 q 894 2 924 -1 q 840 7 865 6 q 906 95 881 56 q 949 173 932 135 q 979 256 967 211 q 1004 360 992 300 l 843 360 l 826 313 q 338 -119 674 -119 m 1194 685 q 1233 694 1218 685 q 1247 721 1247 703 q 1216 765 1247 751 q 1156 779 1185 779 q 1043 740 1094 779 l 1114 706 q 1126 727 1121 721 q 1140 733 1131 733 q 1149 728 1146 733 q 1151 721 1151 724 q 1143 693 1151 708 q 1169 687 1154 689 q 1194 685 1183 685 m 1013 389 q 1104 683 1043 540 q 1076 696 1097 686 q 1019 724 1056 706 q 851 389 946 654 l 1013 389 m 1176 889 q 1119 908 1146 889 q 1089 958 1092 926 q 1089 968 1089 963 q 1090 978 1089 974 q 1103 995 1093 989 q 1121 1001 1113 1001 q 1129 996 1129 1001 q 1147 945 1129 964 q 1197 926 1165 926 q 1256 942 1225 926 q 1314 994 1286 957 l 1338 994 q 1331 982 1338 993 q 1275 922 1313 954 q 1176 889 1238 889 m 1236 1014 l 1072 1104 q 1086 1121 1072 1114 q 1108 1128 1100 1128 q 1138 1112 1115 1128 q 1189 1074 1161 1096 q 1237 1036 1217 1053 q 1257 1018 1257 1019 q 1236 1014 1257 1014 z "},"Ẳ":{"ha":1183,"x_min":8,"x_max":1338,"o":"m 338 -119 q 169 -81 243 -119 q 51 24 94 -43 q 8 176 8 90 q 44 320 8 256 q 144 423 81 385 q 290 461 208 461 q 442 400 381 461 q 497 257 497 343 q 449 130 497 178 q 321 82 401 82 q 263 97 282 82 q 244 124 244 111 q 251 132 244 132 q 258 126 254 132 q 268 117 263 119 q 294 103 279 107 q 322 100 308 100 q 431 143 392 100 q 471 257 471 186 q 420 387 471 335 q 285 439 369 439 q 160 403 213 439 q 80 310 108 368 q 51 183 51 253 q 89 44 51 107 q 191 -57 126 -19 q 339 -94 256 -94 q 606 9 492 -94 q 793 308 721 113 q 858 481 825 396 q 927 633 892 565 q 997 732 963 700 q 890 783 953 758 q 763 824 826 807 q 654 840 700 840 q 526 817 585 840 q 432 747 467 793 q 397 631 397 700 q 455 482 397 540 q 607 424 513 424 q 741 462 688 424 q 794 572 794 500 q 756 657 794 631 q 745 663 750 660 q 740 671 740 665 q 751 681 740 681 q 771 674 754 681 q 822 568 822 644 q 759 443 822 488 q 606 399 696 399 q 478 428 536 399 q 388 507 421 457 q 354 621 354 557 q 394 772 354 708 q 504 872 433 836 q 667 907 575 907 q 777 887 724 907 q 890 832 831 867 q 1022 754 950 797 q 1160 803 1097 803 q 1240 782 1204 803 q 1275 721 1275 761 q 1253 677 1275 692 q 1204 663 1232 663 q 1169 665 1190 663 q 1135 674 1147 668 q 1103 558 1119 624 q 1078 390 1088 492 q 1017 160 1068 258 q 874 22 965 63 q 903 27 889 26 q 926 28 917 28 q 979 21 951 28 q 1032 7 1007 14 q 1071 0 1057 0 q 1096 22 1096 0 q 1090 39 1096 29 q 1078 54 1085 49 q 1088 65 1078 65 q 1105 51 1094 65 q 1115 18 1115 38 q 1056 -28 1115 -28 q 988 -17 1029 -28 q 894 2 924 -1 q 840 7 865 6 q 906 95 881 56 q 949 173 932 135 q 979 256 967 211 q 1004 360 992 300 l 843 360 l 826 313 q 338 -119 674 -119 m 1194 685 q 1233 694 1218 685 q 1247 721 1247 703 q 1216 765 1247 751 q 1156 779 1185 779 q 1043 740 1094 779 l 1114 706 q 1126 727 1121 721 q 1140 733 1131 733 q 1149 728 1146 733 q 1151 721 1151 724 q 1143 693 1151 708 q 1169 687 1154 689 q 1194 685 1183 685 m 1013 389 q 1104 683 1043 540 q 1076 696 1097 686 q 1019 724 1056 706 q 851 389 946 654 l 1013 389 m 1176 889 q 1119 908 1146 889 q 1089 958 1092 926 q 1089 968 1089 963 q 1090 978 1089 974 q 1103 995 1093 989 q 1121 1001 1113 1001 q 1129 996 1129 1001 q 1147 945 1129 964 q 1197 926 1165 926 q 1256 942 1225 926 q 1314 994 1286 957 l 1338 994 q 1331 982 1338 993 q 1275 922 1313 954 q 1176 889 1238 889 m 1197 1011 q 1228 1056 1208 1039 q 1247 1104 1247 1074 q 1240 1124 1247 1115 q 1217 1133 1232 1133 q 1178 1126 1192 1133 q 1158 1114 1165 1119 l 1153 1128 q 1192 1157 1165 1144 q 1246 1169 1218 1169 q 1285 1156 1272 1169 q 1297 1121 1297 1142 q 1283 1074 1297 1092 q 1249 1044 1268 1057 q 1214 1011 1229 1031 l 1197 1011 z "},"Ẵ":{"ha":1183,"x_min":8,"x_max":1371,"o":"m 338 -119 q 169 -81 243 -119 q 51 24 94 -43 q 8 176 8 90 q 44 320 8 256 q 144 423 81 385 q 290 461 208 461 q 442 400 381 461 q 497 257 497 343 q 449 130 497 178 q 321 82 401 82 q 263 97 282 82 q 244 124 244 111 q 251 132 244 132 q 258 126 254 132 q 268 117 263 119 q 294 103 279 107 q 322 100 308 100 q 431 143 392 100 q 471 257 471 186 q 420 387 471 335 q 285 439 369 439 q 160 403 213 439 q 80 310 108 368 q 51 183 51 253 q 89 44 51 107 q 191 -57 126 -19 q 339 -94 256 -94 q 606 9 492 -94 q 793 308 721 113 q 858 481 825 396 q 927 633 892 565 q 997 732 963 700 q 890 783 953 758 q 763 824 826 807 q 654 840 700 840 q 526 817 585 840 q 432 747 467 793 q 397 631 397 700 q 455 482 397 540 q 607 424 513 424 q 741 462 688 424 q 794 572 794 500 q 756 657 794 631 q 745 663 750 660 q 740 671 740 665 q 751 681 740 681 q 771 674 754 681 q 822 568 822 644 q 759 443 822 488 q 606 399 696 399 q 478 428 536 399 q 388 507 421 457 q 354 621 354 557 q 394 772 354 708 q 504 872 433 836 q 667 907 575 907 q 777 887 724 907 q 890 832 831 867 q 1022 754 950 797 q 1160 803 1097 803 q 1240 782 1204 803 q 1275 721 1275 761 q 1253 677 1275 692 q 1204 663 1232 663 q 1169 665 1190 663 q 1135 674 1147 668 q 1103 558 1119 624 q 1078 390 1088 492 q 1017 160 1068 258 q 874 22 965 63 q 903 27 889 26 q 926 28 917 28 q 979 21 951 28 q 1032 7 1007 14 q 1071 0 1057 0 q 1096 22 1096 0 q 1090 39 1096 29 q 1078 54 1085 49 q 1088 65 1078 65 q 1105 51 1094 65 q 1115 18 1115 38 q 1056 -28 1115 -28 q 988 -17 1029 -28 q 894 2 924 -1 q 840 7 865 6 q 906 95 881 56 q 949 173 932 135 q 979 256 967 211 q 1004 360 992 300 l 843 360 l 826 313 q 338 -119 674 -119 m 1194 685 q 1233 694 1218 685 q 1247 721 1247 703 q 1216 765 1247 751 q 1156 779 1185 779 q 1043 740 1094 779 l 1114 706 q 1126 727 1121 721 q 1140 733 1131 733 q 1149 728 1146 733 q 1151 721 1151 724 q 1143 693 1151 708 q 1169 687 1154 689 q 1194 685 1183 685 m 1013 389 q 1104 683 1043 540 q 1076 696 1097 686 q 1019 724 1056 706 q 851 389 946 654 l 1013 389 m 1176 889 q 1119 908 1146 889 q 1089 958 1092 926 q 1089 968 1089 963 q 1090 978 1089 974 q 1103 995 1093 989 q 1121 1001 1113 1001 q 1129 996 1129 1001 q 1147 945 1129 964 q 1197 926 1165 926 q 1256 942 1225 926 q 1314 994 1286 957 l 1338 994 q 1331 982 1338 993 q 1275 922 1313 954 q 1176 889 1238 889 m 1288 1033 q 1244 1044 1267 1033 q 1202 1067 1222 1056 q 1164 1078 1182 1078 q 1127 1064 1138 1078 q 1110 1040 1117 1050 l 1096 1040 q 1128 1095 1103 1068 q 1185 1122 1154 1122 q 1221 1112 1203 1122 q 1259 1091 1239 1101 q 1301 1081 1279 1081 q 1344 1095 1333 1081 q 1360 1117 1356 1110 l 1371 1117 q 1344 1060 1364 1086 q 1288 1033 1324 1033 z "},"Ǎ":{"ha":1183,"x_min":8,"x_max":1349,"o":"m 338 -119 q 169 -81 243 -119 q 51 24 94 -43 q 8 176 8 90 q 44 320 8 256 q 144 423 81 385 q 290 461 208 461 q 442 400 381 461 q 497 257 497 343 q 449 130 497 178 q 321 82 401 82 q 263 97 282 82 q 244 124 244 111 q 251 132 244 132 q 258 126 254 132 q 268 117 263 119 q 294 103 279 107 q 322 100 308 100 q 431 143 392 100 q 471 257 471 186 q 420 387 471 335 q 285 439 369 439 q 160 403 213 439 q 80 310 108 368 q 51 183 51 253 q 89 44 51 107 q 191 -57 126 -19 q 339 -94 256 -94 q 606 9 492 -94 q 793 308 721 113 q 858 481 825 396 q 927 633 892 565 q 997 732 963 700 q 890 783 953 758 q 763 824 826 807 q 654 840 700 840 q 526 817 585 840 q 432 747 467 793 q 397 631 397 700 q 455 482 397 540 q 607 424 513 424 q 741 462 688 424 q 794 572 794 500 q 756 657 794 631 q 745 663 750 660 q 740 671 740 665 q 751 681 740 681 q 771 674 754 681 q 822 568 822 644 q 759 443 822 488 q 606 399 696 399 q 478 428 536 399 q 388 507 421 457 q 354 621 354 557 q 394 772 354 708 q 504 872 433 836 q 667 907 575 907 q 777 887 724 907 q 890 832 831 867 q 1022 754 950 797 q 1160 803 1097 803 q 1240 782 1204 803 q 1275 721 1275 761 q 1253 677 1275 692 q 1204 663 1232 663 q 1169 665 1190 663 q 1135 674 1147 668 q 1103 558 1119 624 q 1078 390 1088 492 q 1017 160 1068 258 q 874 22 965 63 q 903 27 889 26 q 926 28 917 28 q 979 21 951 28 q 1032 7 1007 14 q 1071 0 1057 0 q 1096 22 1096 0 q 1090 39 1096 29 q 1078 54 1085 49 q 1088 65 1078 65 q 1105 51 1094 65 q 1115 18 1115 38 q 1056 -28 1115 -28 q 988 -17 1029 -28 q 894 2 924 -1 q 840 7 865 6 q 906 95 881 56 q 949 173 932 135 q 979 256 967 211 q 1004 360 992 300 l 843 360 l 826 313 q 338 -119 674 -119 m 1194 685 q 1233 694 1218 685 q 1247 721 1247 703 q 1216 765 1247 751 q 1156 779 1185 779 q 1043 740 1094 779 l 1114 706 q 1126 727 1121 721 q 1140 733 1131 733 q 1149 728 1146 733 q 1151 721 1151 724 q 1143 693 1151 708 q 1169 687 1154 689 q 1194 685 1183 685 m 1013 389 q 1104 683 1043 540 q 1076 696 1097 686 q 1019 724 1056 706 q 851 389 946 654 l 1013 389 m 1176 882 q 1168 886 1172 882 q 1145 910 1161 893 q 1112 946 1129 926 q 1083 980 1094 965 q 1071 996 1071 994 q 1082 1000 1074 1000 l 1196 935 l 1319 1000 l 1349 1000 l 1188 886 q 1176 882 1182 882 z "},"Â":{"ha":1183,"x_min":8,"x_max":1308,"o":"m 338 -119 q 169 -81 243 -119 q 51 24 94 -43 q 8 176 8 90 q 44 320 8 256 q 144 423 81 385 q 290 461 208 461 q 442 400 381 461 q 497 257 497 343 q 449 130 497 178 q 321 82 401 82 q 263 97 282 82 q 244 124 244 111 q 251 132 244 132 q 258 126 254 132 q 268 117 263 119 q 294 103 279 107 q 322 100 308 100 q 431 143 392 100 q 471 257 471 186 q 420 387 471 335 q 285 439 369 439 q 160 403 213 439 q 80 310 108 368 q 51 183 51 253 q 89 44 51 107 q 191 -57 126 -19 q 339 -94 256 -94 q 606 9 492 -94 q 793 308 721 113 q 858 481 825 396 q 927 633 892 565 q 997 732 963 700 q 890 783 953 758 q 763 824 826 807 q 654 840 700 840 q 526 817 585 840 q 432 747 467 793 q 397 631 397 700 q 455 482 397 540 q 607 424 513 424 q 741 462 688 424 q 794 572 794 500 q 756 657 794 631 q 745 663 750 660 q 740 671 740 665 q 751 681 740 681 q 771 674 754 681 q 822 568 822 644 q 759 443 822 488 q 606 399 696 399 q 478 428 536 399 q 388 507 421 457 q 354 621 354 557 q 394 772 354 708 q 504 872 433 836 q 667 907 575 907 q 777 887 724 907 q 890 832 831 867 q 1022 754 950 797 q 1160 803 1097 803 q 1240 782 1204 803 q 1275 721 1275 761 q 1253 677 1275 692 q 1204 663 1232 663 q 1169 665 1190 663 q 1135 674 1147 668 q 1103 558 1119 624 q 1078 390 1088 492 q 1017 160 1068 258 q 874 22 965 63 q 903 27 889 26 q 926 28 917 28 q 979 21 951 28 q 1032 7 1007 14 q 1071 0 1057 0 q 1096 22 1096 0 q 1090 39 1096 29 q 1078 54 1085 49 q 1088 65 1078 65 q 1105 51 1094 65 q 1115 18 1115 38 q 1056 -28 1115 -28 q 988 -17 1029 -28 q 894 2 924 -1 q 840 7 865 6 q 906 95 881 56 q 949 173 932 135 q 979 256 967 211 q 1004 360 992 300 l 843 360 l 826 313 q 338 -119 674 -119 m 1194 685 q 1233 694 1218 685 q 1247 721 1247 703 q 1216 765 1247 751 q 1156 779 1185 779 q 1043 740 1094 779 l 1114 706 q 1126 727 1121 721 q 1140 733 1131 733 q 1149 728 1146 733 q 1151 721 1151 724 q 1143 693 1151 708 q 1169 687 1154 689 q 1194 685 1183 685 m 1013 389 q 1104 683 1043 540 q 1076 696 1097 686 q 1019 724 1056 706 q 851 389 946 654 l 1013 389 m 1031 888 l 1192 1001 q 1203 1006 1199 1006 q 1211 1001 1207 1006 q 1234 978 1218 994 q 1267 942 1250 961 q 1297 908 1285 922 q 1308 892 1308 893 q 1297 888 1307 888 l 1183 953 l 1060 888 l 1031 888 z "},"Ấ":{"ha":1183,"x_min":8,"x_max":1476,"o":"m 338 -119 q 169 -81 243 -119 q 51 24 94 -43 q 8 176 8 90 q 44 320 8 256 q 144 423 81 385 q 290 461 208 461 q 442 400 381 461 q 497 257 497 343 q 449 130 497 178 q 321 82 401 82 q 263 97 282 82 q 244 124 244 111 q 251 132 244 132 q 258 126 254 132 q 268 117 263 119 q 294 103 279 107 q 322 100 308 100 q 431 143 392 100 q 471 257 471 186 q 420 387 471 335 q 285 439 369 439 q 160 403 213 439 q 80 310 108 368 q 51 183 51 253 q 89 44 51 107 q 191 -57 126 -19 q 339 -94 256 -94 q 606 9 492 -94 q 793 308 721 113 q 858 481 825 396 q 927 633 892 565 q 997 732 963 700 q 890 783 953 758 q 763 824 826 807 q 654 840 700 840 q 526 817 585 840 q 432 747 467 793 q 397 631 397 700 q 455 482 397 540 q 607 424 513 424 q 741 462 688 424 q 794 572 794 500 q 756 657 794 631 q 745 663 750 660 q 740 671 740 665 q 751 681 740 681 q 771 674 754 681 q 822 568 822 644 q 759 443 822 488 q 606 399 696 399 q 478 428 536 399 q 388 507 421 457 q 354 621 354 557 q 394 772 354 708 q 504 872 433 836 q 667 907 575 907 q 777 887 724 907 q 890 832 831 867 q 1022 754 950 797 q 1160 803 1097 803 q 1240 782 1204 803 q 1275 721 1275 761 q 1253 677 1275 692 q 1204 663 1232 663 q 1169 665 1190 663 q 1135 674 1147 668 q 1103 558 1119 624 q 1078 390 1088 492 q 1017 160 1068 258 q 874 22 965 63 q 903 27 889 26 q 926 28 917 28 q 979 21 951 28 q 1032 7 1007 14 q 1071 0 1057 0 q 1096 22 1096 0 q 1090 39 1096 29 q 1078 54 1085 49 q 1088 65 1078 65 q 1105 51 1094 65 q 1115 18 1115 38 q 1056 -28 1115 -28 q 988 -17 1029 -28 q 894 2 924 -1 q 840 7 865 6 q 906 95 881 56 q 949 173 932 135 q 979 256 967 211 q 1004 360 992 300 l 843 360 l 826 313 q 338 -119 674 -119 m 1194 685 q 1233 694 1218 685 q 1247 721 1247 703 q 1216 765 1247 751 q 1156 779 1185 779 q 1043 740 1094 779 l 1114 706 q 1126 727 1121 721 q 1140 733 1131 733 q 1149 728 1146 733 q 1151 721 1151 724 q 1143 693 1151 708 q 1169 687 1154 689 q 1194 685 1183 685 m 1013 389 q 1104 683 1043 540 q 1076 696 1097 686 q 1019 724 1056 706 q 851 389 946 654 l 1013 389 m 1031 888 l 1192 1001 q 1203 1006 1199 1006 q 1211 1001 1207 1006 q 1234 978 1218 994 q 1267 942 1250 961 q 1297 908 1285 922 q 1308 892 1308 893 q 1297 888 1307 888 l 1183 953 l 1060 888 l 1031 888 m 1313 994 q 1292 999 1292 994 q 1312 1017 1292 1000 q 1360 1055 1332 1033 q 1411 1092 1388 1076 q 1440 1108 1435 1108 q 1463 1101 1449 1108 q 1476 1085 1476 1094 l 1313 994 z "},"Ậ":{"ha":1183,"x_min":8,"x_max":1308,"o":"m 338 -119 q 169 -81 243 -119 q 51 24 94 -43 q 8 176 8 90 q 44 320 8 256 q 144 423 81 385 q 290 461 208 461 q 442 400 381 461 q 497 257 497 343 q 449 130 497 178 q 321 82 401 82 q 263 97 282 82 q 244 124 244 111 q 251 132 244 132 q 258 126 254 132 q 268 117 263 119 q 294 103 279 107 q 322 100 308 100 q 431 143 392 100 q 471 257 471 186 q 420 387 471 335 q 285 439 369 439 q 160 403 213 439 q 80 310 108 368 q 51 183 51 253 q 89 44 51 107 q 191 -57 126 -19 q 339 -94 256 -94 q 606 9 492 -94 q 793 308 721 113 q 858 481 825 396 q 927 633 892 565 q 997 732 963 700 q 890 783 953 758 q 763 824 826 807 q 654 840 700 840 q 526 817 585 840 q 432 747 467 793 q 397 631 397 700 q 455 482 397 540 q 607 424 513 424 q 741 462 688 424 q 794 572 794 500 q 756 657 794 631 q 745 663 750 660 q 740 671 740 665 q 751 681 740 681 q 771 674 754 681 q 822 568 822 644 q 759 443 822 488 q 606 399 696 399 q 478 428 536 399 q 388 507 421 457 q 354 621 354 557 q 394 772 354 708 q 504 872 433 836 q 667 907 575 907 q 777 887 724 907 q 890 832 831 867 q 1022 754 950 797 q 1160 803 1097 803 q 1240 782 1204 803 q 1275 721 1275 761 q 1253 677 1275 692 q 1204 663 1232 663 q 1169 665 1190 663 q 1135 674 1147 668 q 1103 558 1119 624 q 1078 390 1088 492 q 1017 160 1068 258 q 874 22 965 63 q 903 27 889 26 q 926 28 917 28 q 979 21 951 28 q 1032 7 1007 14 q 1071 0 1057 0 q 1096 22 1096 0 q 1090 39 1096 29 q 1078 54 1085 49 q 1088 65 1078 65 q 1105 51 1094 65 q 1115 18 1115 38 q 1056 -28 1115 -28 q 988 -17 1029 -28 q 894 2 924 -1 q 840 7 865 6 q 906 95 881 56 q 949 173 932 135 q 979 256 967 211 q 1004 360 992 300 l 843 360 l 826 313 q 338 -119 674 -119 m 1194 685 q 1233 694 1218 685 q 1247 721 1247 703 q 1216 765 1247 751 q 1156 779 1185 779 q 1043 740 1094 779 l 1114 706 q 1126 727 1121 721 q 1140 733 1131 733 q 1149 728 1146 733 q 1151 721 1151 724 q 1143 693 1151 708 q 1169 687 1154 689 q 1194 685 1183 685 m 1013 389 q 1104 683 1043 540 q 1076 696 1097 686 q 1019 724 1056 706 q 851 389 946 654 l 1013 389 m 742 -187 q 712 -176 724 -187 q 700 -146 700 -164 q 715 -112 700 -126 q 749 -99 729 -99 q 777 -110 765 -99 q 789 -140 789 -122 q 775 -174 789 -160 q 742 -187 761 -187 m 1031 888 l 1192 1001 q 1203 1006 1199 1006 q 1211 1001 1207 1006 q 1234 978 1218 994 q 1267 942 1250 961 q 1297 908 1285 922 q 1308 892 1308 893 q 1297 888 1307 888 l 1183 953 l 1060 888 l 1031 888 z "},"Ầ":{"ha":1183,"x_min":8,"x_max":1375,"o":"m 338 -119 q 169 -81 243 -119 q 51 24 94 -43 q 8 176 8 90 q 44 320 8 256 q 144 423 81 385 q 290 461 208 461 q 442 400 381 461 q 497 257 497 343 q 449 130 497 178 q 321 82 401 82 q 263 97 282 82 q 244 124 244 111 q 251 132 244 132 q 258 126 254 132 q 268 117 263 119 q 294 103 279 107 q 322 100 308 100 q 431 143 392 100 q 471 257 471 186 q 420 387 471 335 q 285 439 369 439 q 160 403 213 439 q 80 310 108 368 q 51 183 51 253 q 89 44 51 107 q 191 -57 126 -19 q 339 -94 256 -94 q 606 9 492 -94 q 793 308 721 113 q 858 481 825 396 q 927 633 892 565 q 997 732 963 700 q 890 783 953 758 q 763 824 826 807 q 654 840 700 840 q 526 817 585 840 q 432 747 467 793 q 397 631 397 700 q 455 482 397 540 q 607 424 513 424 q 741 462 688 424 q 794 572 794 500 q 756 657 794 631 q 745 663 750 660 q 740 671 740 665 q 751 681 740 681 q 771 674 754 681 q 822 568 822 644 q 759 443 822 488 q 606 399 696 399 q 478 428 536 399 q 388 507 421 457 q 354 621 354 557 q 394 772 354 708 q 504 872 433 836 q 667 907 575 907 q 777 887 724 907 q 890 832 831 867 q 1022 754 950 797 q 1160 803 1097 803 q 1240 782 1204 803 q 1275 721 1275 761 q 1253 677 1275 692 q 1204 663 1232 663 q 1169 665 1190 663 q 1135 674 1147 668 q 1103 558 1119 624 q 1078 390 1088 492 q 1017 160 1068 258 q 874 22 965 63 q 903 27 889 26 q 926 28 917 28 q 979 21 951 28 q 1032 7 1007 14 q 1071 0 1057 0 q 1096 22 1096 0 q 1090 39 1096 29 q 1078 54 1085 49 q 1088 65 1078 65 q 1105 51 1094 65 q 1115 18 1115 38 q 1056 -28 1115 -28 q 988 -17 1029 -28 q 894 2 924 -1 q 840 7 865 6 q 906 95 881 56 q 949 173 932 135 q 979 256 967 211 q 1004 360 992 300 l 843 360 l 826 313 q 338 -119 674 -119 m 1194 685 q 1233 694 1218 685 q 1247 721 1247 703 q 1216 765 1247 751 q 1156 779 1185 779 q 1043 740 1094 779 l 1114 706 q 1126 727 1121 721 q 1140 733 1131 733 q 1149 728 1146 733 q 1151 721 1151 724 q 1143 693 1151 708 q 1169 687 1154 689 q 1194 685 1183 685 m 1013 389 q 1104 683 1043 540 q 1076 696 1097 686 q 1019 724 1056 706 q 851 389 946 654 l 1013 389 m 1031 888 l 1192 1001 q 1203 1006 1199 1006 q 1211 1001 1207 1006 q 1234 978 1218 994 q 1267 942 1250 961 q 1297 908 1285 922 q 1308 892 1308 893 q 1297 888 1307 888 l 1183 953 l 1060 888 l 1031 888 m 1354 1000 l 1190 1090 q 1204 1107 1190 1100 q 1226 1114 1218 1114 q 1256 1098 1233 1114 q 1307 1060 1279 1082 q 1355 1022 1335 1039 q 1375 1004 1375 1006 q 1354 1000 1375 1000 z "},"Ẩ":{"ha":1183,"x_min":8,"x_max":1415,"o":"m 338 -119 q 169 -81 243 -119 q 51 24 94 -43 q 8 176 8 90 q 44 320 8 256 q 144 423 81 385 q 290 461 208 461 q 442 400 381 461 q 497 257 497 343 q 449 130 497 178 q 321 82 401 82 q 263 97 282 82 q 244 124 244 111 q 251 132 244 132 q 258 126 254 132 q 268 117 263 119 q 294 103 279 107 q 322 100 308 100 q 431 143 392 100 q 471 257 471 186 q 420 387 471 335 q 285 439 369 439 q 160 403 213 439 q 80 310 108 368 q 51 183 51 253 q 89 44 51 107 q 191 -57 126 -19 q 339 -94 256 -94 q 606 9 492 -94 q 793 308 721 113 q 858 481 825 396 q 927 633 892 565 q 997 732 963 700 q 890 783 953 758 q 763 824 826 807 q 654 840 700 840 q 526 817 585 840 q 432 747 467 793 q 397 631 397 700 q 455 482 397 540 q 607 424 513 424 q 741 462 688 424 q 794 572 794 500 q 756 657 794 631 q 745 663 750 660 q 740 671 740 665 q 751 681 740 681 q 771 674 754 681 q 822 568 822 644 q 759 443 822 488 q 606 399 696 399 q 478 428 536 399 q 388 507 421 457 q 354 621 354 557 q 394 772 354 708 q 504 872 433 836 q 667 907 575 907 q 777 887 724 907 q 890 832 831 867 q 1022 754 950 797 q 1160 803 1097 803 q 1240 782 1204 803 q 1275 721 1275 761 q 1253 677 1275 692 q 1204 663 1232 663 q 1169 665 1190 663 q 1135 674 1147 668 q 1103 558 1119 624 q 1078 390 1088 492 q 1017 160 1068 258 q 874 22 965 63 q 903 27 889 26 q 926 28 917 28 q 979 21 951 28 q 1032 7 1007 14 q 1071 0 1057 0 q 1096 22 1096 0 q 1090 39 1096 29 q 1078 54 1085 49 q 1088 65 1078 65 q 1105 51 1094 65 q 1115 18 1115 38 q 1056 -28 1115 -28 q 988 -17 1029 -28 q 894 2 924 -1 q 840 7 865 6 q 906 95 881 56 q 949 173 932 135 q 979 256 967 211 q 1004 360 992 300 l 843 360 l 826 313 q 338 -119 674 -119 m 1194 685 q 1233 694 1218 685 q 1247 721 1247 703 q 1216 765 1247 751 q 1156 779 1185 779 q 1043 740 1094 779 l 1114 706 q 1126 727 1121 721 q 1140 733 1131 733 q 1149 728 1146 733 q 1151 721 1151 724 q 1143 693 1151 708 q 1169 687 1154 689 q 1194 685 1183 685 m 1013 389 q 1104 683 1043 540 q 1076 696 1097 686 q 1019 724 1056 706 q 851 389 946 654 l 1013 389 m 1031 888 l 1192 1001 q 1203 1006 1199 1006 q 1211 1001 1207 1006 q 1234 978 1218 994 q 1267 942 1250 961 q 1297 908 1285 922 q 1308 892 1308 893 q 1297 888 1307 888 l 1183 953 l 1060 888 l 1031 888 m 1315 997 q 1346 1042 1326 1025 q 1365 1090 1365 1060 q 1358 1110 1365 1101 q 1335 1119 1350 1119 q 1297 1113 1310 1119 q 1276 1100 1283 1106 l 1271 1114 q 1310 1143 1283 1131 q 1364 1156 1336 1156 q 1403 1142 1390 1156 q 1415 1107 1415 1128 q 1401 1060 1415 1078 q 1367 1030 1386 1043 q 1332 997 1347 1017 l 1315 997 z "},"Ẫ":{"ha":1183,"x_min":8,"x_max":1342,"o":"m 338 -119 q 169 -81 243 -119 q 51 24 94 -43 q 8 176 8 90 q 44 320 8 256 q 144 423 81 385 q 290 461 208 461 q 442 400 381 461 q 497 257 497 343 q 449 130 497 178 q 321 82 401 82 q 263 97 282 82 q 244 124 244 111 q 251 132 244 132 q 258 126 254 132 q 268 117 263 119 q 294 103 279 107 q 322 100 308 100 q 431 143 392 100 q 471 257 471 186 q 420 387 471 335 q 285 439 369 439 q 160 403 213 439 q 80 310 108 368 q 51 183 51 253 q 89 44 51 107 q 191 -57 126 -19 q 339 -94 256 -94 q 606 9 492 -94 q 793 308 721 113 q 858 481 825 396 q 927 633 892 565 q 997 732 963 700 q 890 783 953 758 q 763 824 826 807 q 654 840 700 840 q 526 817 585 840 q 432 747 467 793 q 397 631 397 700 q 455 482 397 540 q 607 424 513 424 q 741 462 688 424 q 794 572 794 500 q 756 657 794 631 q 745 663 750 660 q 740 671 740 665 q 751 681 740 681 q 771 674 754 681 q 822 568 822 644 q 759 443 822 488 q 606 399 696 399 q 478 428 536 399 q 388 507 421 457 q 354 621 354 557 q 394 772 354 708 q 504 872 433 836 q 667 907 575 907 q 777 887 724 907 q 890 832 831 867 q 1022 754 950 797 q 1160 803 1097 803 q 1240 782 1204 803 q 1275 721 1275 761 q 1253 677 1275 692 q 1204 663 1232 663 q 1169 665 1190 663 q 1135 674 1147 668 q 1103 558 1119 624 q 1078 390 1088 492 q 1017 160 1068 258 q 874 22 965 63 q 903 27 889 26 q 926 28 917 28 q 979 21 951 28 q 1032 7 1007 14 q 1071 0 1057 0 q 1096 22 1096 0 q 1090 39 1096 29 q 1078 54 1085 49 q 1088 65 1078 65 q 1105 51 1094 65 q 1115 18 1115 38 q 1056 -28 1115 -28 q 988 -17 1029 -28 q 894 2 924 -1 q 840 7 865 6 q 906 95 881 56 q 949 173 932 135 q 979 256 967 211 q 1004 360 992 300 l 843 360 l 826 313 q 338 -119 674 -119 m 1194 685 q 1233 694 1218 685 q 1247 721 1247 703 q 1216 765 1247 751 q 1156 779 1185 779 q 1043 740 1094 779 l 1114 706 q 1126 727 1121 721 q 1140 733 1131 733 q 1149 728 1146 733 q 1151 721 1151 724 q 1143 693 1151 708 q 1169 687 1154 689 q 1194 685 1183 685 m 1013 389 q 1104 683 1043 540 q 1076 696 1097 686 q 1019 724 1056 706 q 851 389 946 654 l 1013 389 m 1031 888 l 1192 1001 q 1203 1006 1199 1006 q 1211 1001 1207 1006 q 1234 978 1218 994 q 1267 942 1250 961 q 1297 908 1285 922 q 1308 892 1308 893 q 1297 888 1307 888 l 1183 953 l 1060 888 l 1031 888 m 1258 1040 q 1215 1051 1238 1040 q 1173 1074 1193 1063 q 1135 1085 1153 1085 q 1098 1071 1108 1085 q 1081 1047 1088 1057 l 1067 1047 q 1099 1102 1074 1075 q 1156 1129 1125 1129 q 1192 1119 1174 1129 q 1230 1098 1210 1108 q 1272 1088 1250 1088 q 1315 1102 1304 1088 q 1331 1124 1326 1117 l 1342 1124 q 1315 1067 1335 1093 q 1258 1040 1294 1040 z "},"Ȁ":{"ha":1183,"x_min":8,"x_max":1275,"o":"m 338 -119 q 169 -81 243 -119 q 51 24 94 -43 q 8 176 8 90 q 44 320 8 256 q 144 423 81 385 q 290 461 208 461 q 442 400 381 461 q 497 257 497 343 q 449 130 497 178 q 321 82 401 82 q 263 97 282 82 q 244 124 244 111 q 251 132 244 132 q 258 126 254 132 q 268 117 263 119 q 294 103 279 107 q 322 100 308 100 q 431 143 392 100 q 471 257 471 186 q 420 387 471 335 q 285 439 369 439 q 160 403 213 439 q 80 310 108 368 q 51 183 51 253 q 89 44 51 107 q 191 -57 126 -19 q 339 -94 256 -94 q 606 9 492 -94 q 793 308 721 113 q 858 481 825 396 q 927 633 892 565 q 997 732 963 700 q 890 783 953 758 q 763 824 826 807 q 654 840 700 840 q 526 817 585 840 q 432 747 467 793 q 397 631 397 700 q 455 482 397 540 q 607 424 513 424 q 741 462 688 424 q 794 572 794 500 q 756 657 794 631 q 745 663 750 660 q 740 671 740 665 q 751 681 740 681 q 771 674 754 681 q 822 568 822 644 q 759 443 822 488 q 606 399 696 399 q 478 428 536 399 q 388 507 421 457 q 354 621 354 557 q 394 772 354 708 q 504 872 433 836 q 667 907 575 907 q 777 887 724 907 q 890 832 831 867 q 1022 754 950 797 q 1160 803 1097 803 q 1240 782 1204 803 q 1275 721 1275 761 q 1253 677 1275 692 q 1204 663 1232 663 q 1169 665 1190 663 q 1135 674 1147 668 q 1103 558 1119 624 q 1078 390 1088 492 q 1017 160 1068 258 q 874 22 965 63 q 903 27 889 26 q 926 28 917 28 q 979 21 951 28 q 1032 7 1007 14 q 1071 0 1057 0 q 1096 22 1096 0 q 1090 39 1096 29 q 1078 54 1085 49 q 1088 65 1078 65 q 1105 51 1094 65 q 1115 18 1115 38 q 1056 -28 1115 -28 q 988 -17 1029 -28 q 894 2 924 -1 q 840 7 865 6 q 906 95 881 56 q 949 173 932 135 q 979 256 967 211 q 1004 360 992 300 l 843 360 l 826 313 q 338 -119 674 -119 m 1194 685 q 1233 694 1218 685 q 1247 721 1247 703 q 1216 765 1247 751 q 1156 779 1185 779 q 1043 740 1094 779 l 1114 706 q 1126 727 1121 721 q 1140 733 1131 733 q 1149 728 1146 733 q 1151 721 1151 724 q 1143 693 1151 708 q 1169 687 1154 689 q 1194 685 1183 685 m 1013 389 q 1104 683 1043 540 q 1076 696 1097 686 q 1019 724 1056 706 q 851 389 946 654 l 1013 389 m 1219 888 l 1071 1001 q 1088 1016 1074 1011 q 1111 1019 1103 1021 q 1138 999 1118 1018 q 1183 954 1158 979 q 1224 909 1207 929 q 1240 888 1240 889 q 1219 888 1240 885 m 1135 888 l 979 992 q 994 1007 981 1001 q 1017 1011 1008 1013 q 1045 993 1024 1011 q 1092 951 1067 975 q 1137 909 1118 928 q 1156 889 1156 890 q 1135 888 1156 885 z "},"Ä":{"ha":1183,"x_min":8,"x_max":1297,"o":"m 338 -119 q 169 -81 243 -119 q 51 24 94 -43 q 8 176 8 90 q 44 320 8 256 q 144 423 81 385 q 290 461 208 461 q 442 400 381 461 q 497 257 497 343 q 449 130 497 178 q 321 82 401 82 q 263 97 282 82 q 244 124 244 111 q 251 132 244 132 q 258 126 254 132 q 268 117 263 119 q 294 103 279 107 q 322 100 308 100 q 431 143 392 100 q 471 257 471 186 q 420 387 471 335 q 285 439 369 439 q 160 403 213 439 q 80 310 108 368 q 51 183 51 253 q 89 44 51 107 q 191 -57 126 -19 q 339 -94 256 -94 q 606 9 492 -94 q 793 308 721 113 q 858 481 825 396 q 927 633 892 565 q 997 732 963 700 q 890 783 953 758 q 763 824 826 807 q 654 840 700 840 q 526 817 585 840 q 432 747 467 793 q 397 631 397 700 q 455 482 397 540 q 607 424 513 424 q 741 462 688 424 q 794 572 794 500 q 756 657 794 631 q 745 663 750 660 q 740 671 740 665 q 751 681 740 681 q 771 674 754 681 q 822 568 822 644 q 759 443 822 488 q 606 399 696 399 q 478 428 536 399 q 388 507 421 457 q 354 621 354 557 q 394 772 354 708 q 504 872 433 836 q 667 907 575 907 q 777 887 724 907 q 890 832 831 867 q 1022 754 950 797 q 1160 803 1097 803 q 1240 782 1204 803 q 1275 721 1275 761 q 1253 677 1275 692 q 1204 663 1232 663 q 1169 665 1190 663 q 1135 674 1147 668 q 1103 558 1119 624 q 1078 390 1088 492 q 1017 160 1068 258 q 874 22 965 63 q 903 27 889 26 q 926 28 917 28 q 979 21 951 28 q 1032 7 1007 14 q 1071 0 1057 0 q 1096 22 1096 0 q 1090 39 1096 29 q 1078 54 1085 49 q 1088 65 1078 65 q 1105 51 1094 65 q 1115 18 1115 38 q 1056 -28 1115 -28 q 988 -17 1029 -28 q 894 2 924 -1 q 840 7 865 6 q 906 95 881 56 q 949 173 932 135 q 979 256 967 211 q 1004 360 992 300 l 843 360 l 826 313 q 338 -119 674 -119 m 1194 685 q 1233 694 1218 685 q 1247 721 1247 703 q 1216 765 1247 751 q 1156 779 1185 779 q 1043 740 1094 779 l 1114 706 q 1126 727 1121 721 q 1140 733 1131 733 q 1149 728 1146 733 q 1151 721 1151 724 q 1143 693 1151 708 q 1169 687 1154 689 q 1194 685 1183 685 m 1013 389 q 1104 683 1043 540 q 1076 696 1097 686 q 1019 724 1056 706 q 851 389 946 654 l 1013 389 m 1247 901 q 1218 912 1228 901 q 1208 936 1208 922 q 1224 973 1208 957 q 1258 989 1239 989 q 1287 978 1276 989 q 1297 953 1297 968 q 1281 917 1297 933 q 1247 901 1265 901 m 1096 901 q 1067 912 1076 901 q 1057 936 1057 922 q 1072 973 1057 957 q 1107 989 1088 989 q 1135 978 1125 989 q 1146 953 1146 968 q 1130 917 1146 933 q 1096 901 1114 901 z "},"Ạ":{"ha":1183,"x_min":8,"x_max":1275,"o":"m 338 -119 q 169 -81 243 -119 q 51 24 94 -43 q 8 176 8 90 q 44 320 8 256 q 144 423 81 385 q 290 461 208 461 q 442 400 381 461 q 497 257 497 343 q 449 130 497 178 q 321 82 401 82 q 263 97 282 82 q 244 124 244 111 q 251 132 244 132 q 258 126 254 132 q 268 117 263 119 q 294 103 279 107 q 322 100 308 100 q 431 143 392 100 q 471 257 471 186 q 420 387 471 335 q 285 439 369 439 q 160 403 213 439 q 80 310 108 368 q 51 183 51 253 q 89 44 51 107 q 191 -57 126 -19 q 339 -94 256 -94 q 606 9 492 -94 q 793 308 721 113 q 858 481 825 396 q 927 633 892 565 q 997 732 963 700 q 890 783 953 758 q 763 824 826 807 q 654 840 700 840 q 526 817 585 840 q 432 747 467 793 q 397 631 397 700 q 455 482 397 540 q 607 424 513 424 q 741 462 688 424 q 794 572 794 500 q 756 657 794 631 q 745 663 750 660 q 740 671 740 665 q 751 681 740 681 q 771 674 754 681 q 822 568 822 644 q 759 443 822 488 q 606 399 696 399 q 478 428 536 399 q 388 507 421 457 q 354 621 354 557 q 394 772 354 708 q 504 872 433 836 q 667 907 575 907 q 777 887 724 907 q 890 832 831 867 q 1022 754 950 797 q 1160 803 1097 803 q 1240 782 1204 803 q 1275 721 1275 761 q 1253 677 1275 692 q 1204 663 1232 663 q 1169 665 1190 663 q 1135 674 1147 668 q 1103 558 1119 624 q 1078 390 1088 492 q 1017 160 1068 258 q 874 22 965 63 q 903 27 889 26 q 926 28 917 28 q 979 21 951 28 q 1032 7 1007 14 q 1071 0 1057 0 q 1096 22 1096 0 q 1090 39 1096 29 q 1078 54 1085 49 q 1088 65 1078 65 q 1105 51 1094 65 q 1115 18 1115 38 q 1056 -28 1115 -28 q 988 -17 1029 -28 q 894 2 924 -1 q 840 7 865 6 q 906 95 881 56 q 949 173 932 135 q 979 256 967 211 q 1004 360 992 300 l 843 360 l 826 313 q 338 -119 674 -119 m 1194 685 q 1233 694 1218 685 q 1247 721 1247 703 q 1216 765 1247 751 q 1156 779 1185 779 q 1043 740 1094 779 l 1114 706 q 1126 727 1121 721 q 1140 733 1131 733 q 1149 728 1146 733 q 1151 721 1151 724 q 1143 693 1151 708 q 1169 687 1154 689 q 1194 685 1183 685 m 1013 389 q 1104 683 1043 540 q 1076 696 1097 686 q 1019 724 1056 706 q 851 389 946 654 l 1013 389 m 742 -187 q 712 -176 724 -187 q 700 -146 700 -164 q 715 -112 700 -126 q 749 -99 729 -99 q 777 -110 765 -99 q 789 -140 789 -122 q 775 -174 789 -160 q 742 -187 761 -187 z "},"À":{"ha":1183,"x_min":8,"x_max":1275,"o":"m 338 -119 q 169 -81 243 -119 q 51 24 94 -43 q 8 176 8 90 q 44 320 8 256 q 144 423 81 385 q 290 461 208 461 q 442 400 381 461 q 497 257 497 343 q 449 130 497 178 q 321 82 401 82 q 263 97 282 82 q 244 124 244 111 q 251 132 244 132 q 258 126 254 132 q 268 117 263 119 q 294 103 279 107 q 322 100 308 100 q 431 143 392 100 q 471 257 471 186 q 420 387 471 335 q 285 439 369 439 q 160 403 213 439 q 80 310 108 368 q 51 183 51 253 q 89 44 51 107 q 191 -57 126 -19 q 339 -94 256 -94 q 606 9 492 -94 q 793 308 721 113 q 858 481 825 396 q 927 633 892 565 q 997 732 963 700 q 890 783 953 758 q 763 824 826 807 q 654 840 700 840 q 526 817 585 840 q 432 747 467 793 q 397 631 397 700 q 455 482 397 540 q 607 424 513 424 q 741 462 688 424 q 794 572 794 500 q 756 657 794 631 q 745 663 750 660 q 740 671 740 665 q 751 681 740 681 q 771 674 754 681 q 822 568 822 644 q 759 443 822 488 q 606 399 696 399 q 478 428 536 399 q 388 507 421 457 q 354 621 354 557 q 394 772 354 708 q 504 872 433 836 q 667 907 575 907 q 777 887 724 907 q 890 832 831 867 q 1022 754 950 797 q 1160 803 1097 803 q 1240 782 1204 803 q 1275 721 1275 761 q 1253 677 1275 692 q 1204 663 1232 663 q 1169 665 1190 663 q 1135 674 1147 668 q 1103 558 1119 624 q 1078 390 1088 492 q 1017 160 1068 258 q 874 22 965 63 q 903 27 889 26 q 926 28 917 28 q 979 21 951 28 q 1032 7 1007 14 q 1071 0 1057 0 q 1096 22 1096 0 q 1090 39 1096 29 q 1078 54 1085 49 q 1088 65 1078 65 q 1105 51 1094 65 q 1115 18 1115 38 q 1056 -28 1115 -28 q 988 -17 1029 -28 q 894 2 924 -1 q 840 7 865 6 q 906 95 881 56 q 949 173 932 135 q 979 256 967 211 q 1004 360 992 300 l 843 360 l 826 313 q 338 -119 674 -119 m 1194 685 q 1233 694 1218 685 q 1247 721 1247 703 q 1216 765 1247 751 q 1156 779 1185 779 q 1043 740 1094 779 l 1114 706 q 1126 727 1121 721 q 1140 733 1131 733 q 1149 728 1146 733 q 1151 721 1151 724 q 1143 693 1151 708 q 1169 687 1154 689 q 1194 685 1183 685 m 1013 389 q 1104 683 1043 540 q 1076 696 1097 686 q 1019 724 1056 706 q 851 389 946 654 l 1013 389 m 1176 888 l 1013 978 q 1026 994 1013 988 q 1049 1001 1040 1001 q 1078 985 1056 1001 q 1129 948 1101 969 q 1177 910 1157 926 q 1197 892 1197 893 q 1176 888 1197 888 z "},"Ả":{"ha":1183,"x_min":8,"x_max":1275,"o":"m 338 -119 q 169 -81 243 -119 q 51 24 94 -43 q 8 176 8 90 q 44 320 8 256 q 144 423 81 385 q 290 461 208 461 q 442 400 381 461 q 497 257 497 343 q 449 130 497 178 q 321 82 401 82 q 263 97 282 82 q 244 124 244 111 q 251 132 244 132 q 258 126 254 132 q 268 117 263 119 q 294 103 279 107 q 322 100 308 100 q 431 143 392 100 q 471 257 471 186 q 420 387 471 335 q 285 439 369 439 q 160 403 213 439 q 80 310 108 368 q 51 183 51 253 q 89 44 51 107 q 191 -57 126 -19 q 339 -94 256 -94 q 606 9 492 -94 q 793 308 721 113 q 858 481 825 396 q 927 633 892 565 q 997 732 963 700 q 890 783 953 758 q 763 824 826 807 q 654 840 700 840 q 526 817 585 840 q 432 747 467 793 q 397 631 397 700 q 455 482 397 540 q 607 424 513 424 q 741 462 688 424 q 794 572 794 500 q 756 657 794 631 q 745 663 750 660 q 740 671 740 665 q 751 681 740 681 q 771 674 754 681 q 822 568 822 644 q 759 443 822 488 q 606 399 696 399 q 478 428 536 399 q 388 507 421 457 q 354 621 354 557 q 394 772 354 708 q 504 872 433 836 q 667 907 575 907 q 777 887 724 907 q 890 832 831 867 q 1022 754 950 797 q 1160 803 1097 803 q 1240 782 1204 803 q 1275 721 1275 761 q 1253 677 1275 692 q 1204 663 1232 663 q 1169 665 1190 663 q 1135 674 1147 668 q 1103 558 1119 624 q 1078 390 1088 492 q 1017 160 1068 258 q 874 22 965 63 q 903 27 889 26 q 926 28 917 28 q 979 21 951 28 q 1032 7 1007 14 q 1071 0 1057 0 q 1096 22 1096 0 q 1090 39 1096 29 q 1078 54 1085 49 q 1088 65 1078 65 q 1105 51 1094 65 q 1115 18 1115 38 q 1056 -28 1115 -28 q 988 -17 1029 -28 q 894 2 924 -1 q 840 7 865 6 q 906 95 881 56 q 949 173 932 135 q 979 256 967 211 q 1004 360 992 300 l 843 360 l 826 313 q 338 -119 674 -119 m 1194 685 q 1233 694 1218 685 q 1247 721 1247 703 q 1216 765 1247 751 q 1156 779 1185 779 q 1043 740 1094 779 l 1114 706 q 1126 727 1121 721 q 1140 733 1131 733 q 1149 728 1146 733 q 1151 721 1151 724 q 1143 693 1151 708 q 1169 687 1154 689 q 1194 685 1183 685 m 1013 389 q 1104 683 1043 540 q 1076 696 1097 686 q 1019 724 1056 706 q 851 389 946 654 l 1013 389 m 1168 888 q 1199 933 1179 915 q 1218 981 1218 950 q 1210 1001 1218 992 q 1188 1010 1203 1010 q 1149 1003 1163 1010 q 1129 990 1136 996 l 1124 1004 q 1163 1033 1136 1021 q 1217 1046 1189 1046 q 1256 1032 1243 1046 q 1268 997 1268 1018 q 1253 951 1268 968 q 1219 920 1239 933 q 1185 888 1200 907 l 1168 888 z "},"Ȃ":{"ha":1183,"x_min":8,"x_max":1311,"o":"m 338 -119 q 169 -81 243 -119 q 51 24 94 -43 q 8 176 8 90 q 44 320 8 256 q 144 423 81 385 q 290 461 208 461 q 442 400 381 461 q 497 257 497 343 q 449 130 497 178 q 321 82 401 82 q 263 97 282 82 q 244 124 244 111 q 251 132 244 132 q 258 126 254 132 q 268 117 263 119 q 294 103 279 107 q 322 100 308 100 q 431 143 392 100 q 471 257 471 186 q 420 387 471 335 q 285 439 369 439 q 160 403 213 439 q 80 310 108 368 q 51 183 51 253 q 89 44 51 107 q 191 -57 126 -19 q 339 -94 256 -94 q 606 9 492 -94 q 793 308 721 113 q 858 481 825 396 q 927 633 892 565 q 997 732 963 700 q 890 783 953 758 q 763 824 826 807 q 654 840 700 840 q 526 817 585 840 q 432 747 467 793 q 397 631 397 700 q 455 482 397 540 q 607 424 513 424 q 741 462 688 424 q 794 572 794 500 q 756 657 794 631 q 745 663 750 660 q 740 671 740 665 q 751 681 740 681 q 771 674 754 681 q 822 568 822 644 q 759 443 822 488 q 606 399 696 399 q 478 428 536 399 q 388 507 421 457 q 354 621 354 557 q 394 772 354 708 q 504 872 433 836 q 667 907 575 907 q 777 887 724 907 q 890 832 831 867 q 1022 754 950 797 q 1160 803 1097 803 q 1240 782 1204 803 q 1275 721 1275 761 q 1253 677 1275 692 q 1204 663 1232 663 q 1169 665 1190 663 q 1135 674 1147 668 q 1103 558 1119 624 q 1078 390 1088 492 q 1017 160 1068 258 q 874 22 965 63 q 903 27 889 26 q 926 28 917 28 q 979 21 951 28 q 1032 7 1007 14 q 1071 0 1057 0 q 1096 22 1096 0 q 1090 39 1096 29 q 1078 54 1085 49 q 1088 65 1078 65 q 1105 51 1094 65 q 1115 18 1115 38 q 1056 -28 1115 -28 q 988 -17 1029 -28 q 894 2 924 -1 q 840 7 865 6 q 906 95 881 56 q 949 173 932 135 q 979 256 967 211 q 1004 360 992 300 l 843 360 l 826 313 q 338 -119 674 -119 m 1194 685 q 1233 694 1218 685 q 1247 721 1247 703 q 1216 765 1247 751 q 1156 779 1185 779 q 1043 740 1094 779 l 1114 706 q 1126 727 1121 721 q 1140 733 1131 733 q 1149 728 1146 733 q 1151 721 1151 724 q 1143 693 1151 708 q 1169 687 1154 689 q 1194 685 1183 685 m 1013 389 q 1104 683 1043 540 q 1076 696 1097 686 q 1019 724 1056 706 q 851 389 946 654 l 1013 389 m 1268 885 q 1258 938 1268 911 q 1206 964 1247 964 q 1133 949 1172 964 q 1071 901 1094 933 q 1061 890 1064 892 q 1054 888 1058 888 q 1043 893 1043 888 q 1050 906 1043 894 q 1087 948 1064 925 q 1144 987 1110 971 q 1224 1003 1178 1003 q 1284 983 1257 1003 q 1311 924 1311 963 q 1311 914 1311 919 q 1310 904 1311 908 q 1304 894 1308 899 q 1294 885 1300 889 q 1278 880 1288 882 q 1268 885 1268 878 z "},"Ā":{"ha":1183,"x_min":8,"x_max":1304,"o":"m 338 -119 q 169 -81 243 -119 q 51 24 94 -43 q 8 176 8 90 q 44 320 8 256 q 144 423 81 385 q 290 461 208 461 q 442 400 381 461 q 497 257 497 343 q 449 130 497 178 q 321 82 401 82 q 263 97 282 82 q 244 124 244 111 q 251 132 244 132 q 258 126 254 132 q 268 117 263 119 q 294 103 279 107 q 322 100 308 100 q 431 143 392 100 q 471 257 471 186 q 420 387 471 335 q 285 439 369 439 q 160 403 213 439 q 80 310 108 368 q 51 183 51 253 q 89 44 51 107 q 191 -57 126 -19 q 339 -94 256 -94 q 606 9 492 -94 q 793 308 721 113 q 858 481 825 396 q 927 633 892 565 q 997 732 963 700 q 890 783 953 758 q 763 824 826 807 q 654 840 700 840 q 526 817 585 840 q 432 747 467 793 q 397 631 397 700 q 455 482 397 540 q 607 424 513 424 q 741 462 688 424 q 794 572 794 500 q 756 657 794 631 q 745 663 750 660 q 740 671 740 665 q 751 681 740 681 q 771 674 754 681 q 822 568 822 644 q 759 443 822 488 q 606 399 696 399 q 478 428 536 399 q 388 507 421 457 q 354 621 354 557 q 394 772 354 708 q 504 872 433 836 q 667 907 575 907 q 777 887 724 907 q 890 832 831 867 q 1022 754 950 797 q 1160 803 1097 803 q 1240 782 1204 803 q 1275 721 1275 761 q 1253 677 1275 692 q 1204 663 1232 663 q 1169 665 1190 663 q 1135 674 1147 668 q 1103 558 1119 624 q 1078 390 1088 492 q 1017 160 1068 258 q 874 22 965 63 q 903 27 889 26 q 926 28 917 28 q 979 21 951 28 q 1032 7 1007 14 q 1071 0 1057 0 q 1096 22 1096 0 q 1090 39 1096 29 q 1078 54 1085 49 q 1088 65 1078 65 q 1105 51 1094 65 q 1115 18 1115 38 q 1056 -28 1115 -28 q 988 -17 1029 -28 q 894 2 924 -1 q 840 7 865 6 q 906 95 881 56 q 949 173 932 135 q 979 256 967 211 q 1004 360 992 300 l 843 360 l 826 313 q 338 -119 674 -119 m 1194 685 q 1233 694 1218 685 q 1247 721 1247 703 q 1216 765 1247 751 q 1156 779 1185 779 q 1043 740 1094 779 l 1114 706 q 1126 727 1121 721 q 1140 733 1131 733 q 1149 728 1146 733 q 1151 721 1151 724 q 1143 693 1151 708 q 1169 687 1154 689 q 1194 685 1183 685 m 1013 389 q 1104 683 1043 540 q 1076 696 1097 686 q 1019 724 1056 706 q 851 389 946 654 l 1013 389 m 1050 925 l 1053 954 l 1304 954 l 1301 925 l 1050 925 z "},"Ą":{"ha":1183,"x_min":8,"x_max":1275,"o":"m 338 -119 q 169 -81 243 -119 q 51 24 94 -43 q 8 176 8 90 q 44 320 8 256 q 144 423 81 385 q 290 461 208 461 q 442 400 381 461 q 497 257 497 343 q 449 130 497 178 q 321 82 401 82 q 263 97 282 82 q 244 124 244 111 q 251 132 244 132 q 258 126 254 132 q 268 117 263 119 q 294 103 279 107 q 322 100 308 100 q 431 143 392 100 q 471 257 471 186 q 420 387 471 335 q 285 439 369 439 q 160 403 213 439 q 80 310 108 368 q 51 183 51 253 q 89 44 51 107 q 191 -57 126 -19 q 339 -94 256 -94 q 606 9 492 -94 q 793 308 721 113 q 858 481 825 396 q 927 633 892 565 q 997 732 963 700 q 890 783 953 758 q 763 824 826 807 q 654 840 700 840 q 526 817 585 840 q 432 747 467 793 q 397 631 397 700 q 455 482 397 540 q 607 424 513 424 q 741 462 688 424 q 794 572 794 500 q 756 657 794 631 q 745 663 750 660 q 740 671 740 665 q 751 681 740 681 q 771 674 754 681 q 822 568 822 644 q 759 443 822 488 q 606 399 696 399 q 478 428 536 399 q 388 507 421 457 q 354 621 354 557 q 394 772 354 708 q 504 872 433 836 q 667 907 575 907 q 777 887 724 907 q 890 832 831 867 q 1022 754 950 797 q 1160 803 1097 803 q 1240 782 1204 803 q 1275 721 1275 761 q 1253 677 1275 692 q 1204 663 1232 663 q 1169 665 1190 663 q 1135 674 1147 668 q 1103 558 1119 624 q 1078 390 1088 492 q 1017 160 1068 258 q 874 22 965 63 q 903 27 889 26 q 926 28 917 28 q 979 21 951 28 q 1032 7 1007 14 q 1071 0 1057 0 q 1096 22 1096 0 q 1090 39 1096 29 q 1078 54 1085 49 q 1088 65 1078 65 q 1105 51 1094 65 q 1115 18 1115 38 q 1056 -28 1115 -28 q 988 -17 1029 -28 q 894 2 924 -1 q 840 7 865 6 q 906 95 881 56 q 949 173 932 135 q 979 256 967 211 q 1004 360 992 300 l 843 360 l 826 313 q 338 -119 674 -119 m 1194 685 q 1233 694 1218 685 q 1247 721 1247 703 q 1216 765 1247 751 q 1156 779 1185 779 q 1043 740 1094 779 l 1114 706 q 1126 727 1121 721 q 1140 733 1131 733 q 1149 728 1146 733 q 1151 721 1151 724 q 1143 693 1151 708 q 1169 687 1154 689 q 1194 685 1183 685 m 1013 389 q 1104 683 1043 540 q 1076 696 1097 686 q 1019 724 1056 706 q 851 389 946 654 l 1013 389 m 1053 -225 q 998 -209 1019 -225 q 976 -162 976 -193 q 1003 -97 976 -135 q 1069 -24 1029 -60 q 1080 -16 1074 -21 q 1090 -11 1086 -11 q 1101 -14 1097 -11 q 1052 -81 1072 -42 q 1032 -151 1032 -119 q 1044 -184 1032 -175 q 1075 -193 1057 -193 q 1120 -185 1096 -193 q 1157 -167 1144 -176 l 1157 -189 q 1103 -216 1131 -207 q 1053 -225 1076 -225 z "},"Å":{"ha":1183,"x_min":8,"x_max":1275,"o":"m 338 -119 q 169 -81 243 -119 q 51 24 94 -43 q 8 176 8 90 q 44 320 8 256 q 144 423 81 385 q 290 461 208 461 q 442 400 381 461 q 497 257 497 343 q 449 130 497 178 q 321 82 401 82 q 263 97 282 82 q 244 124 244 111 q 251 132 244 132 q 258 126 254 132 q 268 117 263 119 q 294 103 279 107 q 322 100 308 100 q 431 143 392 100 q 471 257 471 186 q 420 387 471 335 q 285 439 369 439 q 160 403 213 439 q 80 310 108 368 q 51 183 51 253 q 89 44 51 107 q 191 -57 126 -19 q 339 -94 256 -94 q 606 9 492 -94 q 793 308 721 113 q 858 481 825 396 q 927 633 892 565 q 997 732 963 700 q 890 783 953 758 q 763 824 826 807 q 654 840 700 840 q 526 817 585 840 q 432 747 467 793 q 397 631 397 700 q 455 482 397 540 q 607 424 513 424 q 741 462 688 424 q 794 572 794 500 q 756 657 794 631 q 745 663 750 660 q 740 671 740 665 q 751 681 740 681 q 771 674 754 681 q 822 568 822 644 q 759 443 822 488 q 606 399 696 399 q 478 428 536 399 q 388 507 421 457 q 354 621 354 557 q 394 772 354 708 q 504 872 433 836 q 667 907 575 907 q 777 887 724 907 q 890 832 831 867 q 1022 754 950 797 q 1160 803 1097 803 q 1240 782 1204 803 q 1275 721 1275 761 q 1253 677 1275 692 q 1204 663 1232 663 q 1169 665 1190 663 q 1135 674 1147 668 q 1103 558 1119 624 q 1078 390 1088 492 q 1017 160 1068 258 q 874 22 965 63 q 903 27 889 26 q 926 28 917 28 q 979 21 951 28 q 1032 7 1007 14 q 1071 0 1057 0 q 1096 22 1096 0 q 1090 39 1096 29 q 1078 54 1085 49 q 1088 65 1078 65 q 1105 51 1094 65 q 1115 18 1115 38 q 1056 -28 1115 -28 q 988 -17 1029 -28 q 894 2 924 -1 q 840 7 865 6 q 906 95 881 56 q 949 173 932 135 q 979 256 967 211 q 1004 360 992 300 l 843 360 l 826 313 q 338 -119 674 -119 m 1194 685 q 1233 694 1218 685 q 1247 721 1247 703 q 1216 765 1247 751 q 1156 779 1185 779 q 1043 740 1094 779 l 1114 706 q 1126 727 1121 721 q 1140 733 1131 733 q 1149 728 1146 733 q 1151 721 1151 724 q 1143 693 1151 708 q 1169 687 1154 689 q 1194 685 1183 685 m 1013 389 q 1104 683 1043 540 q 1076 696 1097 686 q 1019 724 1056 706 q 851 389 946 654 l 1013 389 m 1176 886 q 1128 906 1147 886 q 1108 954 1108 925 q 1133 1010 1108 986 q 1190 1035 1157 1035 q 1238 1015 1218 1035 q 1257 968 1257 996 q 1233 910 1257 935 q 1176 886 1208 886 m 1179 913 q 1215 928 1199 913 q 1231 967 1231 944 q 1219 997 1231 985 q 1188 1008 1207 1008 q 1151 993 1167 1008 q 1135 956 1135 978 q 1147 925 1135 938 q 1179 913 1160 913 z "},"Ǻ":{"ha":1183,"x_min":8,"x_max":1410,"o":"m 338 -119 q 169 -81 243 -119 q 51 24 94 -43 q 8 176 8 90 q 44 320 8 256 q 144 423 81 385 q 290 461 208 461 q 442 400 381 461 q 497 257 497 343 q 449 130 497 178 q 321 82 401 82 q 263 97 282 82 q 244 124 244 111 q 251 132 244 132 q 258 126 254 132 q 268 117 263 119 q 294 103 279 107 q 322 100 308 100 q 431 143 392 100 q 471 257 471 186 q 420 387 471 335 q 285 439 369 439 q 160 403 213 439 q 80 310 108 368 q 51 183 51 253 q 89 44 51 107 q 191 -57 126 -19 q 339 -94 256 -94 q 606 9 492 -94 q 793 308 721 113 q 858 481 825 396 q 927 633 892 565 q 997 732 963 700 q 890 783 953 758 q 763 824 826 807 q 654 840 700 840 q 526 817 585 840 q 432 747 467 793 q 397 631 397 700 q 455 482 397 540 q 607 424 513 424 q 741 462 688 424 q 794 572 794 500 q 756 657 794 631 q 745 663 750 660 q 740 671 740 665 q 751 681 740 681 q 771 674 754 681 q 822 568 822 644 q 759 443 822 488 q 606 399 696 399 q 478 428 536 399 q 388 507 421 457 q 354 621 354 557 q 394 772 354 708 q 504 872 433 836 q 667 907 575 907 q 777 887 724 907 q 890 832 831 867 q 1022 754 950 797 q 1160 803 1097 803 q 1240 782 1204 803 q 1275 721 1275 761 q 1253 677 1275 692 q 1204 663 1232 663 q 1169 665 1190 663 q 1135 674 1147 668 q 1103 558 1119 624 q 1078 390 1088 492 q 1017 160 1068 258 q 874 22 965 63 q 903 27 889 26 q 926 28 917 28 q 979 21 951 28 q 1032 7 1007 14 q 1071 0 1057 0 q 1096 22 1096 0 q 1090 39 1096 29 q 1078 54 1085 49 q 1088 65 1078 65 q 1105 51 1094 65 q 1115 18 1115 38 q 1056 -28 1115 -28 q 988 -17 1029 -28 q 894 2 924 -1 q 840 7 865 6 q 906 95 881 56 q 949 173 932 135 q 979 256 967 211 q 1004 360 992 300 l 843 360 l 826 313 q 338 -119 674 -119 m 1194 685 q 1233 694 1218 685 q 1247 721 1247 703 q 1216 765 1247 751 q 1156 779 1185 779 q 1043 740 1094 779 l 1114 706 q 1126 727 1121 721 q 1140 733 1131 733 q 1149 728 1146 733 q 1151 721 1151 724 q 1143 693 1151 708 q 1169 687 1154 689 q 1194 685 1183 685 m 1013 389 q 1104 683 1043 540 q 1076 696 1097 686 q 1019 724 1056 706 q 851 389 946 654 l 1013 389 m 1176 886 q 1128 906 1147 886 q 1108 954 1108 925 q 1133 1010 1108 986 q 1190 1035 1157 1035 q 1238 1015 1218 1035 q 1257 968 1257 996 q 1233 910 1257 935 q 1176 886 1208 886 m 1179 913 q 1215 928 1199 913 q 1231 967 1231 944 q 1219 997 1231 985 q 1188 1008 1207 1008 q 1151 993 1167 1008 q 1135 956 1135 978 q 1147 925 1135 938 q 1179 913 1160 913 m 1246 999 q 1225 1003 1225 999 q 1245 1021 1225 1004 q 1293 1059 1265 1038 q 1344 1097 1321 1081 q 1374 1113 1368 1113 q 1396 1106 1382 1113 q 1410 1089 1410 1099 l 1246 999 z "},"Ã":{"ha":1183,"x_min":8,"x_max":1314,"o":"m 338 -119 q 169 -81 243 -119 q 51 24 94 -43 q 8 176 8 90 q 44 320 8 256 q 144 423 81 385 q 290 461 208 461 q 442 400 381 461 q 497 257 497 343 q 449 130 497 178 q 321 82 401 82 q 263 97 282 82 q 244 124 244 111 q 251 132 244 132 q 258 126 254 132 q 268 117 263 119 q 294 103 279 107 q 322 100 308 100 q 431 143 392 100 q 471 257 471 186 q 420 387 471 335 q 285 439 369 439 q 160 403 213 439 q 80 310 108 368 q 51 183 51 253 q 89 44 51 107 q 191 -57 126 -19 q 339 -94 256 -94 q 606 9 492 -94 q 793 308 721 113 q 858 481 825 396 q 927 633 892 565 q 997 732 963 700 q 890 783 953 758 q 763 824 826 807 q 654 840 700 840 q 526 817 585 840 q 432 747 467 793 q 397 631 397 700 q 455 482 397 540 q 607 424 513 424 q 741 462 688 424 q 794 572 794 500 q 756 657 794 631 q 745 663 750 660 q 740 671 740 665 q 751 681 740 681 q 771 674 754 681 q 822 568 822 644 q 759 443 822 488 q 606 399 696 399 q 478 428 536 399 q 388 507 421 457 q 354 621 354 557 q 394 772 354 708 q 504 872 433 836 q 667 907 575 907 q 777 887 724 907 q 890 832 831 867 q 1022 754 950 797 q 1160 803 1097 803 q 1240 782 1204 803 q 1275 721 1275 761 q 1253 677 1275 692 q 1204 663 1232 663 q 1169 665 1190 663 q 1135 674 1147 668 q 1103 558 1119 624 q 1078 390 1088 492 q 1017 160 1068 258 q 874 22 965 63 q 903 27 889 26 q 926 28 917 28 q 979 21 951 28 q 1032 7 1007 14 q 1071 0 1057 0 q 1096 22 1096 0 q 1090 39 1096 29 q 1078 54 1085 49 q 1088 65 1078 65 q 1105 51 1094 65 q 1115 18 1115 38 q 1056 -28 1115 -28 q 988 -17 1029 -28 q 894 2 924 -1 q 840 7 865 6 q 906 95 881 56 q 949 173 932 135 q 979 256 967 211 q 1004 360 992 300 l 843 360 l 826 313 q 338 -119 674 -119 m 1194 685 q 1233 694 1218 685 q 1247 721 1247 703 q 1216 765 1247 751 q 1156 779 1185 779 q 1043 740 1094 779 l 1114 706 q 1126 727 1121 721 q 1140 733 1131 733 q 1149 728 1146 733 q 1151 721 1151 724 q 1143 693 1151 708 q 1169 687 1154 689 q 1194 685 1183 685 m 1013 389 q 1104 683 1043 540 q 1076 696 1097 686 q 1019 724 1056 706 q 851 389 946 654 l 1013 389 m 1231 899 q 1188 910 1210 899 q 1145 932 1165 921 q 1107 943 1125 943 q 1070 929 1081 943 q 1053 906 1060 915 l 1039 906 q 1072 960 1046 933 q 1128 988 1097 988 q 1164 977 1146 988 q 1202 956 1182 967 q 1244 946 1222 946 q 1288 960 1276 946 q 1303 982 1299 975 l 1314 982 q 1287 925 1307 951 q 1231 899 1267 899 z "},"B":{"ha":938,"x_min":0,"x_max":876,"o":"m 189 -49 q 114 -26 138 -49 q 90 24 90 -4 q 109 70 90 46 q 168 94 128 94 q 336 47 222 94 q 381 136 360 83 q 417 261 401 189 q 458 492 425 293 q 607 888 507 772 q 444 913 536 913 q 247 866 335 913 q 108 738 158 819 q 57 554 57 657 q 76 452 57 501 q 129 372 94 403 q 214 340 164 340 q 303 369 265 340 q 362 444 340 397 q 383 546 383 490 q 359 647 383 601 q 283 692 335 692 q 210 659 233 692 q 186 596 186 626 q 196 562 186 575 q 221 549 206 549 q 238 554 232 549 l 239 554 q 242 550 242 554 q 236 542 242 547 q 219 536 231 536 q 180 558 193 536 q 169 610 167 579 q 203 676 172 644 q 286 708 235 708 q 359 683 331 708 q 401 617 388 657 q 415 535 415 578 q 355 377 415 436 q 204 318 294 318 q 92 351 138 318 q 23 438 46 385 q 0 551 0 492 q 35 710 0 640 q 132 830 71 781 q 272 906 193 879 q 440 932 351 932 q 625 906 547 932 q 746 961 682 961 q 786 949 786 961 q 776 940 786 940 q 757 942 765 942 q 742 943 749 943 q 694 933 719 943 q 650 896 669 922 q 824 699 824 835 q 790 597 824 643 q 706 522 757 550 q 600 492 654 493 q 739 455 676 485 q 839 374 801 425 q 876 250 876 322 q 832 106 876 168 q 715 10 788 44 q 558 -24 643 -24 q 358 18 478 -24 q 272 -35 311 -21 q 189 -49 232 -49 m 529 497 q 606 512 565 497 q 681 553 646 526 q 739 615 717 579 q 761 692 761 650 q 635 876 761 821 q 531 521 563 767 q 529 510 529 515 q 529 497 529 504 m 528 4 q 669 38 608 4 q 763 134 729 72 q 796 276 796 196 q 758 388 796 343 q 658 455 719 432 q 528 482 597 478 q 508 327 517 388 q 492 243 499 267 q 378 35 458 108 q 528 4 464 4 m 203 -29 q 322 33 275 -29 q 194 65 235 65 q 121 14 121 65 q 203 -29 121 -29 z "},"C":{"ha":976,"x_min":-17,"x_max":896,"o":"m 532 -54 q 308 1 406 -54 q 154 153 210 56 q 99 375 99 250 q 119 511 99 444 q 15 616 46 560 q -17 733 -17 672 q 15 862 -17 803 q 110 957 46 921 q 271 993 174 993 q 403 965 340 993 q 499 875 467 938 q 629 889 563 889 q 763 871 703 889 q 860 814 824 853 q 896 711 896 775 q 856 585 896 639 q 753 494 817 531 q 613 438 689 457 q 463 419 536 419 q 310 433 379 419 q 193 467 242 446 q 188 416 190 440 q 186 369 186 392 q 278 78 186 186 q 536 -29 371 -29 q 685 -1 618 -29 q 790 76 751 26 q 829 193 829 126 q 808 270 829 238 q 744 303 786 303 q 701 288 722 303 q 679 251 679 274 q 680 240 679 246 q 681 229 681 233 q 672 215 681 215 q 658 251 658 215 q 683 310 658 288 q 744 332 708 332 q 842 292 804 332 q 881 192 881 251 q 849 88 881 133 q 767 10 818 42 q 654 -37 715 -21 q 532 -54 593 -54 m 28 740 q 53 644 28 693 q 129 551 78 596 q 265 754 174 674 q 471 868 356 835 q 268 968 418 968 q 144 935 199 968 q 59 851 90 903 q 28 740 28 799 m 457 447 q 592 463 525 447 q 713 508 658 478 q 799 581 767 538 q 832 683 832 625 q 802 778 832 738 q 724 840 772 818 q 617 863 675 863 q 508 850 560 863 q 521 769 521 814 q 506 697 521 733 q 465 638 492 661 q 400 615 438 615 q 386 626 386 615 q 394 633 386 633 q 451 656 429 633 q 483 709 472 678 q 494 767 494 740 q 482 843 494 808 q 297 721 371 810 q 197 503 222 632 q 317 463 246 478 q 457 447 389 447 z "},"Ć":{"ha":976,"x_min":-17,"x_max":896,"o":"m 532 -54 q 308 1 406 -54 q 154 153 210 56 q 99 375 99 250 q 119 511 99 444 q 15 616 46 560 q -17 733 -17 672 q 15 862 -17 803 q 110 957 46 921 q 271 993 174 993 q 403 965 340 993 q 499 875 467 938 q 629 889 563 889 q 763 871 703 889 q 860 814 824 853 q 896 711 896 775 q 856 585 896 639 q 753 494 817 531 q 613 438 689 457 q 463 419 536 419 q 310 433 379 419 q 193 467 242 446 q 188 416 190 440 q 186 369 186 392 q 278 78 186 186 q 536 -29 371 -29 q 685 -1 618 -29 q 790 76 751 26 q 829 193 829 126 q 808 270 829 238 q 744 303 786 303 q 701 288 722 303 q 679 251 679 274 q 680 240 679 246 q 681 229 681 233 q 672 215 681 215 q 658 251 658 215 q 683 310 658 288 q 744 332 708 332 q 842 292 804 332 q 881 192 881 251 q 849 88 881 133 q 767 10 818 42 q 654 -37 715 -21 q 532 -54 593 -54 m 28 740 q 53 644 28 693 q 129 551 78 596 q 265 754 174 674 q 471 868 356 835 q 268 968 418 968 q 144 935 199 968 q 59 851 90 903 q 28 740 28 799 m 457 447 q 592 463 525 447 q 713 508 658 478 q 799 581 767 538 q 832 683 832 625 q 802 778 832 738 q 724 840 772 818 q 617 863 675 863 q 508 850 560 863 q 521 769 521 814 q 506 697 521 733 q 465 638 492 661 q 400 615 438 615 q 386 626 386 615 q 394 633 386 633 q 451 656 429 633 q 483 709 472 678 q 494 767 494 740 q 482 843 494 808 q 297 721 371 810 q 197 503 222 632 q 317 463 246 478 q 457 447 389 447 m 669 974 q 649 978 649 974 q 669 996 649 979 q 717 1034 689 1013 q 768 1072 744 1056 q 797 1088 792 1088 q 819 1081 806 1088 q 833 1064 833 1074 l 669 974 z "},"Č":{"ha":976,"x_min":-17,"x_max":896,"o":"m 532 -54 q 308 1 406 -54 q 154 153 210 56 q 99 375 99 250 q 119 511 99 444 q 15 616 46 560 q -17 733 -17 672 q 15 862 -17 803 q 110 957 46 921 q 271 993 174 993 q 403 965 340 993 q 499 875 467 938 q 629 889 563 889 q 763 871 703 889 q 860 814 824 853 q 896 711 896 775 q 856 585 896 639 q 753 494 817 531 q 613 438 689 457 q 463 419 536 419 q 310 433 379 419 q 193 467 242 446 q 188 416 190 440 q 186 369 186 392 q 278 78 186 186 q 536 -29 371 -29 q 685 -1 618 -29 q 790 76 751 26 q 829 193 829 126 q 808 270 829 238 q 744 303 786 303 q 701 288 722 303 q 679 251 679 274 q 680 240 679 246 q 681 229 681 233 q 672 215 681 215 q 658 251 658 215 q 683 310 658 288 q 744 332 708 332 q 842 292 804 332 q 881 192 881 251 q 849 88 881 133 q 767 10 818 42 q 654 -37 715 -21 q 532 -54 593 -54 m 28 740 q 53 644 28 693 q 129 551 78 596 q 265 754 174 674 q 471 868 356 835 q 268 968 418 968 q 144 935 199 968 q 59 851 90 903 q 28 740 28 799 m 457 447 q 592 463 525 447 q 713 508 658 478 q 799 581 767 538 q 832 683 832 625 q 802 778 832 738 q 724 840 772 818 q 617 863 675 863 q 508 850 560 863 q 521 769 521 814 q 506 697 521 733 q 465 638 492 661 q 400 615 438 615 q 386 626 386 615 q 394 633 386 633 q 451 656 429 633 q 483 709 472 678 q 494 767 494 740 q 482 843 494 808 q 297 721 371 810 q 197 503 222 632 q 317 463 246 478 q 457 447 389 447 m 669 968 q 661 972 665 968 q 638 996 654 979 q 605 1032 622 1013 q 576 1066 588 1051 q 564 1082 564 1081 q 575 1086 567 1086 l 689 1021 l 813 1086 l 842 1086 l 681 972 q 669 968 675 968 z "},"Ç":{"ha":976,"x_min":-17,"x_max":896,"o":"m 532 -54 q 308 1 406 -54 q 154 153 210 56 q 99 375 99 250 q 119 511 99 444 q 15 616 46 560 q -17 733 -17 672 q 15 862 -17 803 q 110 957 46 921 q 271 993 174 993 q 403 965 340 993 q 499 875 467 938 q 629 889 563 889 q 763 871 703 889 q 860 814 824 853 q 896 711 896 775 q 856 585 896 639 q 753 494 817 531 q 613 438 689 457 q 463 419 536 419 q 310 433 379 419 q 193 467 242 446 q 188 416 190 440 q 186 369 186 392 q 278 78 186 186 q 536 -29 371 -29 q 685 -1 618 -29 q 790 76 751 26 q 829 193 829 126 q 808 270 829 238 q 744 303 786 303 q 701 288 722 303 q 679 251 679 274 q 680 240 679 246 q 681 229 681 233 q 672 215 681 215 q 658 251 658 215 q 683 310 658 288 q 744 332 708 332 q 842 292 804 332 q 881 192 881 251 q 849 88 881 133 q 767 10 818 42 q 654 -37 715 -21 q 532 -54 593 -54 m 28 740 q 53 644 28 693 q 129 551 78 596 q 265 754 174 674 q 471 868 356 835 q 268 968 418 968 q 144 935 199 968 q 59 851 90 903 q 28 740 28 799 m 457 447 q 592 463 525 447 q 713 508 658 478 q 799 581 767 538 q 832 683 832 625 q 802 778 832 738 q 724 840 772 818 q 617 863 675 863 q 508 850 560 863 q 521 769 521 814 q 506 697 521 733 q 465 638 492 661 q 400 615 438 615 q 386 626 386 615 q 394 633 386 633 q 451 656 429 633 q 483 709 472 678 q 494 767 494 740 q 482 843 494 808 q 297 721 371 810 q 197 503 222 632 q 317 463 246 478 q 457 447 389 447 m 408 -279 q 362 -268 382 -279 q 336 -232 342 -257 l 354 -232 q 377 -251 363 -246 q 406 -256 392 -256 q 460 -233 442 -256 q 479 -186 479 -210 q 469 -156 479 -168 q 439 -144 458 -144 q 410 -147 421 -144 q 393 -153 400 -150 l 383 -131 q 408 -106 388 -126 q 449 -62 428 -85 q 479 -31 471 -39 l 496 -33 q 477 -55 493 -36 q 447 -92 461 -74 q 435 -115 432 -111 q 444 -114 440 -114 q 454 -114 449 -114 q 505 -130 481 -114 q 529 -175 529 -146 q 510 -231 529 -208 q 464 -267 492 -254 q 408 -279 436 -279 z "},"Ĉ":{"ha":976,"x_min":-17,"x_max":896,"o":"m 532 -54 q 308 1 406 -54 q 154 153 210 56 q 99 375 99 250 q 119 511 99 444 q 15 616 46 560 q -17 733 -17 672 q 15 862 -17 803 q 110 957 46 921 q 271 993 174 993 q 403 965 340 993 q 499 875 467 938 q 629 889 563 889 q 763 871 703 889 q 860 814 824 853 q 896 711 896 775 q 856 585 896 639 q 753 494 817 531 q 613 438 689 457 q 463 419 536 419 q 310 433 379 419 q 193 467 242 446 q 188 416 190 440 q 186 369 186 392 q 278 78 186 186 q 536 -29 371 -29 q 685 -1 618 -29 q 790 76 751 26 q 829 193 829 126 q 808 270 829 238 q 744 303 786 303 q 701 288 722 303 q 679 251 679 274 q 680 240 679 246 q 681 229 681 233 q 672 215 681 215 q 658 251 658 215 q 683 310 658 288 q 744 332 708 332 q 842 292 804 332 q 881 192 881 251 q 849 88 881 133 q 767 10 818 42 q 654 -37 715 -21 q 532 -54 593 -54 m 28 740 q 53 644 28 693 q 129 551 78 596 q 265 754 174 674 q 471 868 356 835 q 268 968 418 968 q 144 935 199 968 q 59 851 90 903 q 28 740 28 799 m 457 447 q 592 463 525 447 q 713 508 658 478 q 799 581 767 538 q 832 683 832 625 q 802 778 832 738 q 724 840 772 818 q 617 863 675 863 q 508 850 560 863 q 521 769 521 814 q 506 697 521 733 q 465 638 492 661 q 400 615 438 615 q 386 626 386 615 q 394 633 386 633 q 451 656 429 633 q 483 709 472 678 q 494 767 494 740 q 482 843 494 808 q 297 721 371 810 q 197 503 222 632 q 317 463 246 478 q 457 447 389 447 m 524 974 l 685 1088 q 696 1092 692 1092 q 704 1088 700 1092 q 727 1064 711 1081 q 760 1028 743 1047 q 790 994 778 1008 q 801 978 801 979 q 790 974 800 974 l 676 1039 l 553 974 l 524 974 z "},"Ċ":{"ha":976,"x_min":-17,"x_max":896,"o":"m 532 -54 q 308 1 406 -54 q 154 153 210 56 q 99 375 99 250 q 119 511 99 444 q 15 616 46 560 q -17 733 -17 672 q 15 862 -17 803 q 110 957 46 921 q 271 993 174 993 q 403 965 340 993 q 499 875 467 938 q 629 889 563 889 q 763 871 703 889 q 860 814 824 853 q 896 711 896 775 q 856 585 896 639 q 753 494 817 531 q 613 438 689 457 q 463 419 536 419 q 310 433 379 419 q 193 467 242 446 q 188 416 190 440 q 186 369 186 392 q 278 78 186 186 q 536 -29 371 -29 q 685 -1 618 -29 q 790 76 751 26 q 829 193 829 126 q 808 270 829 238 q 744 303 786 303 q 701 288 722 303 q 679 251 679 274 q 680 240 679 246 q 681 229 681 233 q 672 215 681 215 q 658 251 658 215 q 683 310 658 288 q 744 332 708 332 q 842 292 804 332 q 881 192 881 251 q 849 88 881 133 q 767 10 818 42 q 654 -37 715 -21 q 532 -54 593 -54 m 28 740 q 53 644 28 693 q 129 551 78 596 q 265 754 174 674 q 471 868 356 835 q 268 968 418 968 q 144 935 199 968 q 59 851 90 903 q 28 740 28 799 m 457 447 q 592 463 525 447 q 713 508 658 478 q 799 581 767 538 q 832 683 832 625 q 802 778 832 738 q 724 840 772 818 q 617 863 675 863 q 508 850 560 863 q 521 769 521 814 q 506 697 521 733 q 465 638 492 661 q 400 615 438 615 q 386 626 386 615 q 394 633 386 633 q 451 656 429 633 q 483 709 472 678 q 494 767 494 740 q 482 843 494 808 q 297 721 371 810 q 197 503 222 632 q 317 463 246 478 q 457 447 389 447 m 667 986 q 637 998 649 986 q 625 1028 625 1010 q 640 1061 625 1047 q 674 1075 654 1075 q 702 1063 690 1075 q 714 1033 714 1051 q 700 1000 714 1014 q 667 986 686 986 z "},"D":{"ha":1025,"x_min":-4,"x_max":986,"o":"m 181 -50 q 128 -43 156 -50 q 83 -21 101 -36 q 65 18 65 -6 q 94 65 65 46 q 157 85 122 85 q 239 70 194 85 q 313 42 283 56 q 400 292 369 124 q 440 515 422 415 q 485 693 457 614 q 569 833 514 772 q 488 847 528 843 q 413 851 449 851 q 226 808 308 851 q 97 689 144 764 q 50 517 50 614 q 69 416 50 463 q 122 342 88 369 q 207 314 157 314 q 285 342 253 314 q 335 416 318 371 q 353 511 353 461 q 331 604 353 564 q 261 644 308 644 q 197 617 225 644 q 169 551 169 589 q 203 508 169 508 q 214 508 208 508 q 219 504 219 508 q 204 496 219 496 q 156 551 156 496 q 188 628 156 596 q 264 660 221 660 q 331 635 304 660 q 372 572 358 610 q 385 494 385 533 q 329 349 385 403 q 192 294 274 294 q 85 325 129 294 q 19 406 42 356 q -4 514 -4 456 q 30 664 -4 597 q 122 777 64 731 q 256 849 181 824 q 414 874 331 874 q 588 857 503 874 q 694 903 640 903 q 738 890 738 903 q 731 885 738 885 q 724 885 728 885 q 713 886 719 885 q 701 888 707 888 q 693 888 696 888 q 613 849 647 888 q 886 699 786 806 q 986 419 986 592 q 929 187 986 288 q 772 30 872 86 q 538 -26 671 -26 q 332 14 450 -26 q 266 -34 294 -18 q 181 -50 238 -50 m 504 1 q 667 33 592 1 q 797 122 742 65 q 884 253 853 178 q 915 417 915 329 q 597 828 915 739 q 556 728 575 794 q 520 574 536 661 q 490 390 504 488 q 470 273 483 339 q 430 143 457 207 q 351 31 403 79 q 504 1 433 1 m 190 -32 q 300 28 250 -32 q 181 58 225 58 q 126 44 144 58 q 108 11 108 31 q 123 -15 108 -6 q 157 -28 138 -24 q 190 -32 176 -32 z "},"":{"ha":694,"x_min":0,"x_max":0,"o":""},"Ǆ":{"ha":1831,"x_min":-4,"x_max":1940,"o":"m 181 -50 q 128 -43 156 -50 q 83 -21 101 -36 q 65 18 65 -6 q 94 65 65 46 q 157 85 122 85 q 239 70 194 85 q 313 42 283 56 q 400 292 369 124 q 440 515 422 415 q 485 693 457 614 q 569 833 514 772 q 488 847 528 843 q 413 851 449 851 q 226 808 308 851 q 97 689 144 764 q 50 517 50 614 q 69 416 50 463 q 122 342 88 369 q 207 314 157 314 q 285 342 253 314 q 335 416 318 371 q 353 511 353 461 q 331 604 353 564 q 261 644 308 644 q 197 617 225 644 q 169 551 169 589 q 203 508 169 508 q 214 508 208 508 q 219 504 219 508 q 204 496 219 496 q 156 551 156 496 q 188 628 156 596 q 264 660 221 660 q 331 635 304 660 q 372 572 358 610 q 385 494 385 533 q 329 349 385 403 q 192 294 274 294 q 85 325 129 294 q 19 406 42 356 q -4 514 -4 456 q 30 664 -4 597 q 122 777 64 731 q 256 849 181 824 q 414 874 331 874 q 588 857 503 874 q 694 903 640 903 q 738 890 738 903 q 731 885 738 885 q 724 885 728 885 q 713 886 719 885 q 701 888 707 888 q 693 888 696 888 q 613 849 647 888 q 886 699 786 806 q 986 419 986 592 q 929 187 986 288 q 772 30 872 86 q 538 -26 671 -26 q 332 14 450 -26 q 266 -34 294 -18 q 181 -50 238 -50 m 504 1 q 667 33 592 1 q 797 122 742 65 q 884 253 853 178 q 915 417 915 329 q 597 828 915 739 q 556 728 575 794 q 520 574 536 661 q 490 390 504 488 q 470 273 483 339 q 430 143 457 207 q 351 31 403 79 q 504 1 433 1 m 190 -32 q 300 28 250 -32 q 181 58 225 58 q 126 44 144 58 q 108 11 108 31 q 123 -15 108 -6 q 157 -28 138 -24 q 190 -32 176 -32 m 1289 -472 q 1176 -446 1225 -472 q 1126 -360 1126 -419 q 1162 -278 1126 -312 q 1258 -219 1197 -244 q 1396 -177 1319 -194 q 1556 -147 1472 -160 q 1718 -124 1639 -135 q 1740 4 1740 -61 q 1660 204 1740 144 q 1558 122 1615 154 q 1456 90 1501 90 q 1384 108 1407 90 q 1361 149 1361 125 q 1388 208 1361 178 q 1461 260 1414 239 q 1571 282 1508 282 q 1633 274 1604 282 q 1695 393 1675 331 q 1715 515 1715 456 q 1684 656 1715 592 q 1594 760 1653 721 q 1450 799 1535 799 q 1290 762 1363 799 q 1173 660 1217 725 q 1129 510 1129 596 q 1171 372 1129 425 q 1293 319 1213 319 q 1396 355 1360 319 q 1442 454 1432 390 q 1450 457 1444 457 q 1458 442 1460 457 q 1410 342 1453 385 q 1289 300 1367 300 q 1139 360 1196 300 q 1082 514 1082 421 q 1113 640 1082 583 q 1197 739 1144 697 q 1313 803 1249 781 q 1446 825 1378 825 q 1630 785 1554 825 q 1746 675 1706 744 q 1786 518 1786 606 q 1764 384 1786 454 q 1693 243 1742 314 q 1774 146 1743 204 q 1804 10 1804 88 q 1788 -108 1804 -51 q 1859 -90 1818 -103 q 1915 -60 1900 -76 q 1920 -53 1917 -58 q 1924 -42 1924 -49 l 1926 -42 q 1935 -44 1931 -42 q 1940 -54 1940 -46 q 1922 -80 1940 -68 q 1878 -101 1904 -92 q 1824 -118 1851 -111 q 1781 -129 1797 -125 q 1704 -262 1756 -200 q 1585 -372 1653 -324 q 1440 -446 1517 -419 q 1289 -472 1364 -472 m 1428 125 q 1532 160 1489 125 q 1610 238 1575 194 q 1582 243 1607 240 q 1526 246 1557 246 q 1460 229 1490 246 q 1412 190 1429 213 q 1394 150 1394 168 q 1428 125 1394 125 m 1290 -453 q 1463 -410 1379 -453 q 1611 -298 1546 -368 q 1710 -144 1676 -228 q 1578 -165 1651 -153 q 1430 -196 1504 -178 q 1293 -239 1356 -214 q 1192 -296 1231 -264 q 1154 -368 1154 -328 q 1175 -415 1154 -396 q 1227 -443 1196 -433 q 1290 -453 1258 -453 m 1488 904 q 1479 908 1483 904 q 1456 932 1472 915 q 1423 968 1440 949 q 1394 1002 1406 988 q 1382 1018 1382 1017 q 1393 1022 1385 1022 l 1507 957 l 1631 1022 l 1660 1022 l 1499 908 q 1488 904 1493 904 z "},"Ď":{"ha":1025,"x_min":-4,"x_max":986,"o":"m 181 -50 q 128 -43 156 -50 q 83 -21 101 -36 q 65 18 65 -6 q 94 65 65 46 q 157 85 122 85 q 239 70 194 85 q 313 42 283 56 q 400 292 369 124 q 440 515 422 415 q 485 693 457 614 q 569 833 514 772 q 488 847 528 843 q 413 851 449 851 q 226 808 308 851 q 97 689 144 764 q 50 517 50 614 q 69 416 50 463 q 122 342 88 369 q 207 314 157 314 q 285 342 253 314 q 335 416 318 371 q 353 511 353 461 q 331 604 353 564 q 261 644 308 644 q 197 617 225 644 q 169 551 169 589 q 203 508 169 508 q 214 508 208 508 q 219 504 219 508 q 204 496 219 496 q 156 551 156 496 q 188 628 156 596 q 264 660 221 660 q 331 635 304 660 q 372 572 358 610 q 385 494 385 533 q 329 349 385 403 q 192 294 274 294 q 85 325 129 294 q 19 406 42 356 q -4 514 -4 456 q 30 664 -4 597 q 122 777 64 731 q 256 849 181 824 q 414 874 331 874 q 588 857 503 874 q 694 903 640 903 q 738 890 738 903 q 731 885 738 885 q 724 885 728 885 q 713 886 719 885 q 701 888 707 888 q 693 888 696 888 q 613 849 647 888 q 886 699 786 806 q 986 419 986 592 q 929 187 986 288 q 772 30 872 86 q 538 -26 671 -26 q 332 14 450 -26 q 266 -34 294 -18 q 181 -50 238 -50 m 504 1 q 667 33 592 1 q 797 122 742 65 q 884 253 853 178 q 915 417 915 329 q 597 828 915 739 q 556 728 575 794 q 520 574 536 661 q 490 390 504 488 q 470 273 483 339 q 430 143 457 207 q 351 31 403 79 q 504 1 433 1 m 190 -32 q 300 28 250 -32 q 181 58 225 58 q 126 44 144 58 q 108 11 108 31 q 123 -15 108 -6 q 157 -28 138 -24 q 190 -32 176 -32 m 582 968 q 574 972 578 968 q 551 996 567 979 q 517 1032 535 1013 q 488 1066 500 1051 q 476 1082 476 1081 q 488 1086 479 1086 l 601 1021 l 725 1086 l 754 1086 l 593 972 q 582 968 588 968 z "},"Đ":{"ha":1025,"x_min":-4,"x_max":986,"o":"m 181 -50 q 128 -43 156 -50 q 83 -21 101 -36 q 65 18 65 -6 q 94 65 65 46 q 157 85 122 85 q 239 70 194 85 q 313 42 283 56 q 400 292 369 124 q 440 515 422 415 q 485 693 457 614 q 569 833 514 772 q 488 847 528 843 q 413 851 449 851 q 226 808 308 851 q 97 689 144 764 q 50 517 50 614 q 69 416 50 463 q 122 342 88 369 q 207 314 157 314 q 285 342 253 314 q 335 416 318 371 q 353 511 353 461 q 331 604 353 564 q 261 644 308 644 q 197 617 225 644 q 169 551 169 589 q 203 508 169 508 q 214 508 208 508 q 219 504 219 508 q 204 496 219 496 q 156 551 156 496 q 188 628 156 596 q 264 660 221 660 q 331 635 304 660 q 372 572 358 610 q 385 494 385 533 q 329 349 385 403 q 192 294 274 294 q 85 325 129 294 q 19 406 42 356 q -4 514 -4 456 q 30 664 -4 597 q 122 777 64 731 q 256 849 181 824 q 414 874 331 874 q 588 857 503 874 q 694 903 640 903 q 738 890 738 903 q 731 885 738 885 q 724 885 728 885 q 713 886 719 885 q 701 888 707 888 q 693 888 696 888 q 613 849 647 888 q 886 699 786 806 q 986 419 986 592 q 929 187 986 288 q 772 30 872 86 q 538 -26 671 -26 q 332 14 450 -26 q 266 -34 294 -18 q 181 -50 238 -50 m 504 1 q 667 33 592 1 q 797 122 742 65 q 884 253 853 178 q 915 417 915 329 q 597 828 915 739 q 556 728 575 794 q 520 574 536 661 q 490 390 504 488 q 470 273 483 339 q 430 143 457 207 q 351 31 403 79 q 504 1 433 1 m 190 -32 q 300 28 250 -32 q 181 58 225 58 q 126 44 144 58 q 108 11 108 31 q 123 -15 108 -6 q 157 -28 138 -24 q 190 -32 176 -32 m 288 192 l 289 224 l 546 224 l 543 192 l 288 192 z "},"Δ":{"ha":774,"x_min":67,"x_max":707,"o":"m 76 6 q 69 15 67 6 l 418 814 q 424 817 419 818 q 429 810 428 815 l 704 11 q 701 6 707 6 l 76 6 m 607 78 l 401 683 l 144 78 l 607 78 z "},"ǅ":{"ha":1406,"x_min":-4,"x_max":1447,"o":"m 181 -50 q 128 -43 156 -50 q 83 -21 101 -36 q 65 18 65 -6 q 94 65 65 46 q 157 85 122 85 q 239 70 194 85 q 313 42 283 56 q 400 292 369 124 q 440 515 422 415 q 485 693 457 614 q 569 833 514 772 q 488 847 528 843 q 413 851 449 851 q 226 808 308 851 q 97 689 144 764 q 50 517 50 614 q 69 416 50 463 q 122 342 88 369 q 207 314 157 314 q 285 342 253 314 q 335 416 318 371 q 353 511 353 461 q 331 604 353 564 q 261 644 308 644 q 197 617 225 644 q 169 551 169 589 q 203 508 169 508 q 214 508 208 508 q 219 504 219 508 q 204 496 219 496 q 156 551 156 496 q 188 628 156 596 q 264 660 221 660 q 331 635 304 660 q 372 572 358 610 q 385 494 385 533 q 329 349 385 403 q 192 294 274 294 q 85 325 129 294 q 19 406 42 356 q -4 514 -4 456 q 30 664 -4 597 q 122 777 64 731 q 256 849 181 824 q 414 874 331 874 q 588 857 503 874 q 694 903 640 903 q 738 890 738 903 q 731 885 738 885 q 724 885 728 885 q 713 886 719 885 q 701 888 707 888 q 693 888 696 888 q 613 849 647 888 q 886 699 786 806 q 986 419 986 592 q 929 187 986 288 q 772 30 872 86 q 538 -26 671 -26 q 332 14 450 -26 q 266 -34 294 -18 q 181 -50 238 -50 m 504 1 q 667 33 592 1 q 797 122 742 65 q 884 253 853 178 q 915 417 915 329 q 597 828 915 739 q 556 728 575 794 q 520 574 536 661 q 490 390 504 488 q 470 273 483 339 q 430 143 457 207 q 351 31 403 79 q 504 1 433 1 m 190 -32 q 300 28 250 -32 q 181 58 225 58 q 126 44 144 58 q 108 11 108 31 q 123 -15 108 -6 q 157 -28 138 -24 q 190 -32 176 -32 m 1140 -342 q 1076 -315 1101 -342 q 1051 -244 1051 -289 q 1090 -132 1051 -185 q 1183 -36 1128 -79 q 1290 38 1239 7 q 1265 108 1285 81 q 1206 135 1246 135 q 1165 126 1179 135 q 1138 109 1150 118 q 1106 100 1125 100 q 1082 119 1082 100 q 1094 142 1082 135 q 1125 151 1107 150 q 1152 154 1139 153 q 1179 157 1165 156 q 1233 201 1213 164 q 1263 285 1253 238 q 1272 372 1272 333 q 1258 453 1272 417 q 1208 490 1244 490 q 1155 467 1178 490 q 1116 405 1132 443 q 1088 323 1100 367 q 1067 239 1076 279 q 1056 232 1065 232 q 1050 239 1049 232 q 1064 292 1057 264 q 1085 376 1071 321 q 1131 468 1099 429 q 1214 507 1163 507 q 1297 467 1269 507 q 1325 365 1325 426 q 1294 235 1325 293 q 1194 144 1263 178 q 1276 127 1250 144 q 1328 57 1303 110 q 1394 121 1368 76 q 1431 239 1419 165 q 1433 244 1432 242 q 1440 247 1435 247 q 1447 239 1447 247 q 1406 113 1435 161 q 1332 42 1376 64 q 1343 -44 1343 13 q 1317 -184 1343 -115 q 1244 -297 1290 -253 q 1140 -342 1199 -342 m 1131 -310 q 1211 -272 1181 -310 q 1260 -176 1242 -233 q 1288 -61 1278 -119 q 1291 -23 1290 -43 q 1290 21 1292 -3 q 1185 -58 1235 -19 q 1103 -140 1135 -97 q 1071 -237 1071 -183 q 1131 -310 1071 -310 m 1243 579 q 1235 583 1239 579 q 1212 607 1228 590 q 1178 643 1196 624 q 1149 677 1161 663 q 1138 693 1138 692 q 1149 697 1140 697 l 1263 632 l 1386 697 l 1415 697 l 1254 583 q 1243 579 1249 579 z "},"E":{"ha":811,"x_min":53,"x_max":792,"o":"m 440 -51 q 244 -15 332 -51 q 105 91 157 21 q 53 263 53 161 q 121 456 53 375 q 300 571 189 536 q 244 708 244 626 q 277 813 244 771 q 363 877 310 856 q 478 899 417 899 q 565 883 524 899 q 631 837 606 867 q 657 764 657 807 q 629 697 657 726 q 560 668 601 668 q 512 688 529 668 q 494 728 494 708 q 501 739 494 739 q 513 725 507 739 q 531 699 518 711 q 561 686 544 686 q 606 709 588 686 q 624 761 624 732 q 581 848 624 815 q 485 881 539 881 q 358 830 404 881 q 311 697 311 779 q 347 585 311 629 q 394 594 367 590 q 444 597 421 597 q 538 551 538 597 q 515 518 538 531 q 460 506 492 506 q 383 520 417 506 q 317 557 349 535 q 213 487 256 535 q 148 376 169 439 q 126 243 126 313 q 167 102 126 164 q 274 5 207 40 q 424 -31 342 -31 q 587 3 514 -31 q 703 98 660 36 q 746 249 746 160 q 709 362 746 315 q 607 408 672 408 q 542 388 567 408 q 518 336 518 368 q 524 317 518 322 q 536 313 531 313 q 538 311 538 313 q 526 303 538 303 q 508 313 517 303 q 500 344 500 322 q 532 408 500 383 q 604 432 564 432 q 741 378 690 432 q 792 240 792 325 q 742 82 792 147 q 613 -17 693 17 q 440 -51 533 -51 m 460 524 q 497 531 482 524 q 513 550 513 539 q 494 572 513 565 q 444 579 475 579 q 403 576 424 579 q 360 568 382 574 q 406 535 382 547 q 460 524 429 524 z "},"É":{"ha":811,"x_min":53,"x_max":792,"o":"m 440 -51 q 244 -15 332 -51 q 105 91 157 21 q 53 263 53 161 q 121 456 53 375 q 300 571 189 536 q 244 708 244 626 q 277 813 244 771 q 363 877 310 856 q 478 899 417 899 q 565 883 524 899 q 631 837 606 867 q 657 764 657 807 q 629 697 657 726 q 560 668 601 668 q 512 688 529 668 q 494 728 494 708 q 501 739 494 739 q 513 725 507 739 q 531 699 518 711 q 561 686 544 686 q 606 709 588 686 q 624 761 624 732 q 581 848 624 815 q 485 881 539 881 q 358 830 404 881 q 311 697 311 779 q 347 585 311 629 q 394 594 367 590 q 444 597 421 597 q 538 551 538 597 q 515 518 538 531 q 460 506 492 506 q 383 520 417 506 q 317 557 349 535 q 213 487 256 535 q 148 376 169 439 q 126 243 126 313 q 167 102 126 164 q 274 5 207 40 q 424 -31 342 -31 q 587 3 514 -31 q 703 98 660 36 q 746 249 746 160 q 709 362 746 315 q 607 408 672 408 q 542 388 567 408 q 518 336 518 368 q 524 317 518 322 q 536 313 531 313 q 538 311 538 313 q 526 303 538 303 q 508 313 517 303 q 500 344 500 322 q 532 408 500 383 q 604 432 564 432 q 741 378 690 432 q 792 240 792 325 q 742 82 792 147 q 613 -17 693 17 q 440 -51 533 -51 m 460 524 q 497 531 482 524 q 513 550 513 539 q 494 572 513 565 q 444 579 475 579 q 403 576 424 579 q 360 568 382 574 q 406 535 382 547 q 460 524 429 524 m 483 974 q 463 978 463 974 q 483 996 463 979 q 531 1034 503 1013 q 582 1072 558 1056 q 611 1088 606 1088 q 633 1081 619 1088 q 647 1064 647 1074 l 483 974 z "},"Ĕ":{"ha":811,"x_min":53,"x_max":792,"o":"m 440 -51 q 244 -15 332 -51 q 105 91 157 21 q 53 263 53 161 q 121 456 53 375 q 300 571 189 536 q 244 708 244 626 q 277 813 244 771 q 363 877 310 856 q 478 899 417 899 q 565 883 524 899 q 631 837 606 867 q 657 764 657 807 q 629 697 657 726 q 560 668 601 668 q 512 688 529 668 q 494 728 494 708 q 501 739 494 739 q 513 725 507 739 q 531 699 518 711 q 561 686 544 686 q 606 709 588 686 q 624 761 624 732 q 581 848 624 815 q 485 881 539 881 q 358 830 404 881 q 311 697 311 779 q 347 585 311 629 q 394 594 367 590 q 444 597 421 597 q 538 551 538 597 q 515 518 538 531 q 460 506 492 506 q 383 520 417 506 q 317 557 349 535 q 213 487 256 535 q 148 376 169 439 q 126 243 126 313 q 167 102 126 164 q 274 5 207 40 q 424 -31 342 -31 q 587 3 514 -31 q 703 98 660 36 q 746 249 746 160 q 709 362 746 315 q 607 408 672 408 q 542 388 567 408 q 518 336 518 368 q 524 317 518 322 q 536 313 531 313 q 538 311 538 313 q 526 303 538 303 q 508 313 517 303 q 500 344 500 322 q 532 408 500 383 q 604 432 564 432 q 741 378 690 432 q 792 240 792 325 q 742 82 792 147 q 613 -17 693 17 q 440 -51 533 -51 m 460 524 q 497 531 482 524 q 513 550 513 539 q 494 572 513 565 q 444 579 475 579 q 403 576 424 579 q 360 568 382 574 q 406 535 382 547 q 460 524 429 524 m 483 975 q 426 994 453 975 q 396 1044 399 1013 q 396 1054 396 1049 q 397 1064 396 1060 q 410 1081 400 1075 q 428 1088 419 1088 q 436 1082 436 1088 q 454 1031 436 1050 q 504 1013 472 1013 q 563 1028 532 1013 q 621 1081 593 1043 l 644 1081 q 638 1068 644 1079 q 582 1008 619 1040 q 483 975 544 975 z "},"Ě":{"ha":811,"x_min":53,"x_max":792,"o":"m 440 -51 q 244 -15 332 -51 q 105 91 157 21 q 53 263 53 161 q 121 456 53 375 q 300 571 189 536 q 244 708 244 626 q 277 813 244 771 q 363 877 310 856 q 478 899 417 899 q 565 883 524 899 q 631 837 606 867 q 657 764 657 807 q 629 697 657 726 q 560 668 601 668 q 512 688 529 668 q 494 728 494 708 q 501 739 494 739 q 513 725 507 739 q 531 699 518 711 q 561 686 544 686 q 606 709 588 686 q 624 761 624 732 q 581 848 624 815 q 485 881 539 881 q 358 830 404 881 q 311 697 311 779 q 347 585 311 629 q 394 594 367 590 q 444 597 421 597 q 538 551 538 597 q 515 518 538 531 q 460 506 492 506 q 383 520 417 506 q 317 557 349 535 q 213 487 256 535 q 148 376 169 439 q 126 243 126 313 q 167 102 126 164 q 274 5 207 40 q 424 -31 342 -31 q 587 3 514 -31 q 703 98 660 36 q 746 249 746 160 q 709 362 746 315 q 607 408 672 408 q 542 388 567 408 q 518 336 518 368 q 524 317 518 322 q 536 313 531 313 q 538 311 538 313 q 526 303 538 303 q 508 313 517 303 q 500 344 500 322 q 532 408 500 383 q 604 432 564 432 q 741 378 690 432 q 792 240 792 325 q 742 82 792 147 q 613 -17 693 17 q 440 -51 533 -51 m 460 524 q 497 531 482 524 q 513 550 513 539 q 494 572 513 565 q 444 579 475 579 q 403 576 424 579 q 360 568 382 574 q 406 535 382 547 q 460 524 429 524 m 483 968 q 475 972 479 968 q 452 996 468 979 q 419 1032 436 1013 q 390 1066 401 1051 q 378 1082 378 1081 q 389 1086 381 1086 l 503 1021 l 626 1086 l 656 1086 l 494 972 q 483 968 489 968 z "},"Ê":{"ha":811,"x_min":53,"x_max":792,"o":"m 440 -51 q 244 -15 332 -51 q 105 91 157 21 q 53 263 53 161 q 121 456 53 375 q 300 571 189 536 q 244 708 244 626 q 277 813 244 771 q 363 877 310 856 q 478 899 417 899 q 565 883 524 899 q 631 837 606 867 q 657 764 657 807 q 629 697 657 726 q 560 668 601 668 q 512 688 529 668 q 494 728 494 708 q 501 739 494 739 q 513 725 507 739 q 531 699 518 711 q 561 686 544 686 q 606 709 588 686 q 624 761 624 732 q 581 848 624 815 q 485 881 539 881 q 358 830 404 881 q 311 697 311 779 q 347 585 311 629 q 394 594 367 590 q 444 597 421 597 q 538 551 538 597 q 515 518 538 531 q 460 506 492 506 q 383 520 417 506 q 317 557 349 535 q 213 487 256 535 q 148 376 169 439 q 126 243 126 313 q 167 102 126 164 q 274 5 207 40 q 424 -31 342 -31 q 587 3 514 -31 q 703 98 660 36 q 746 249 746 160 q 709 362 746 315 q 607 408 672 408 q 542 388 567 408 q 518 336 518 368 q 524 317 518 322 q 536 313 531 313 q 538 311 538 313 q 526 303 538 303 q 508 313 517 303 q 500 344 500 322 q 532 408 500 383 q 604 432 564 432 q 741 378 690 432 q 792 240 792 325 q 742 82 792 147 q 613 -17 693 17 q 440 -51 533 -51 m 460 524 q 497 531 482 524 q 513 550 513 539 q 494 572 513 565 q 444 579 475 579 q 403 576 424 579 q 360 568 382 574 q 406 535 382 547 q 460 524 429 524 m 338 974 l 499 1088 q 510 1092 506 1092 q 518 1088 514 1092 q 541 1064 525 1081 q 574 1028 557 1047 q 603 994 592 1008 q 615 978 615 979 q 604 974 614 974 l 490 1039 l 367 974 l 338 974 z "},"Ế":{"ha":811,"x_min":53,"x_max":792,"o":"m 440 -51 q 244 -15 332 -51 q 105 91 157 21 q 53 263 53 161 q 121 456 53 375 q 300 571 189 536 q 244 708 244 626 q 277 813 244 771 q 363 877 310 856 q 478 899 417 899 q 565 883 524 899 q 631 837 606 867 q 657 764 657 807 q 629 697 657 726 q 560 668 601 668 q 512 688 529 668 q 494 728 494 708 q 501 739 494 739 q 513 725 507 739 q 531 699 518 711 q 561 686 544 686 q 606 709 588 686 q 624 761 624 732 q 581 848 624 815 q 485 881 539 881 q 358 830 404 881 q 311 697 311 779 q 347 585 311 629 q 394 594 367 590 q 444 597 421 597 q 538 551 538 597 q 515 518 538 531 q 460 506 492 506 q 383 520 417 506 q 317 557 349 535 q 213 487 256 535 q 148 376 169 439 q 126 243 126 313 q 167 102 126 164 q 274 5 207 40 q 424 -31 342 -31 q 587 3 514 -31 q 703 98 660 36 q 746 249 746 160 q 709 362 746 315 q 607 408 672 408 q 542 388 567 408 q 518 336 518 368 q 524 317 518 322 q 536 313 531 313 q 538 311 538 313 q 526 303 538 303 q 508 313 517 303 q 500 344 500 322 q 532 408 500 383 q 604 432 564 432 q 741 378 690 432 q 792 240 792 325 q 742 82 792 147 q 613 -17 693 17 q 440 -51 533 -51 m 460 524 q 497 531 482 524 q 513 550 513 539 q 494 572 513 565 q 444 579 475 579 q 403 576 424 579 q 360 568 382 574 q 406 535 382 547 q 460 524 429 524 m 338 974 l 499 1088 q 510 1092 506 1092 q 518 1088 514 1092 q 541 1064 525 1081 q 574 1028 557 1047 q 603 994 592 1008 q 615 978 615 979 q 604 974 614 974 l 490 1039 l 367 974 l 338 974 m 619 1081 q 599 1085 599 1081 q 619 1103 599 1086 q 667 1141 639 1119 q 718 1178 694 1163 q 747 1194 742 1194 q 769 1188 756 1194 q 783 1171 783 1181 l 619 1081 z "},"Ệ":{"ha":811,"x_min":53,"x_max":792,"o":"m 440 -51 q 244 -15 332 -51 q 105 91 157 21 q 53 263 53 161 q 121 456 53 375 q 300 571 189 536 q 244 708 244 626 q 277 813 244 771 q 363 877 310 856 q 478 899 417 899 q 565 883 524 899 q 631 837 606 867 q 657 764 657 807 q 629 697 657 726 q 560 668 601 668 q 512 688 529 668 q 494 728 494 708 q 501 739 494 739 q 513 725 507 739 q 531 699 518 711 q 561 686 544 686 q 606 709 588 686 q 624 761 624 732 q 581 848 624 815 q 485 881 539 881 q 358 830 404 881 q 311 697 311 779 q 347 585 311 629 q 394 594 367 590 q 444 597 421 597 q 538 551 538 597 q 515 518 538 531 q 460 506 492 506 q 383 520 417 506 q 317 557 349 535 q 213 487 256 535 q 148 376 169 439 q 126 243 126 313 q 167 102 126 164 q 274 5 207 40 q 424 -31 342 -31 q 587 3 514 -31 q 703 98 660 36 q 746 249 746 160 q 709 362 746 315 q 607 408 672 408 q 542 388 567 408 q 518 336 518 368 q 524 317 518 322 q 536 313 531 313 q 538 311 538 313 q 526 303 538 303 q 508 313 517 303 q 500 344 500 322 q 532 408 500 383 q 604 432 564 432 q 741 378 690 432 q 792 240 792 325 q 742 82 792 147 q 613 -17 693 17 q 440 -51 533 -51 m 460 524 q 497 531 482 524 q 513 550 513 539 q 494 572 513 565 q 444 579 475 579 q 403 576 424 579 q 360 568 382 574 q 406 535 382 547 q 460 524 429 524 m 354 -225 q 324 -213 336 -225 q 313 -183 313 -201 q 327 -150 313 -164 q 361 -136 342 -136 q 390 -148 378 -136 q 401 -178 401 -160 q 388 -211 401 -197 q 354 -225 374 -225 m 338 974 l 499 1088 q 510 1092 506 1092 q 518 1088 514 1092 q 541 1064 525 1081 q 574 1028 557 1047 q 603 994 592 1008 q 615 978 615 979 q 604 974 614 974 l 490 1039 l 367 974 l 338 974 z "},"Ề":{"ha":811,"x_min":53,"x_max":792,"o":"m 440 -51 q 244 -15 332 -51 q 105 91 157 21 q 53 263 53 161 q 121 456 53 375 q 300 571 189 536 q 244 708 244 626 q 277 813 244 771 q 363 877 310 856 q 478 899 417 899 q 565 883 524 899 q 631 837 606 867 q 657 764 657 807 q 629 697 657 726 q 560 668 601 668 q 512 688 529 668 q 494 728 494 708 q 501 739 494 739 q 513 725 507 739 q 531 699 518 711 q 561 686 544 686 q 606 709 588 686 q 624 761 624 732 q 581 848 624 815 q 485 881 539 881 q 358 830 404 881 q 311 697 311 779 q 347 585 311 629 q 394 594 367 590 q 444 597 421 597 q 538 551 538 597 q 515 518 538 531 q 460 506 492 506 q 383 520 417 506 q 317 557 349 535 q 213 487 256 535 q 148 376 169 439 q 126 243 126 313 q 167 102 126 164 q 274 5 207 40 q 424 -31 342 -31 q 587 3 514 -31 q 703 98 660 36 q 746 249 746 160 q 709 362 746 315 q 607 408 672 408 q 542 388 567 408 q 518 336 518 368 q 524 317 518 322 q 536 313 531 313 q 538 311 538 313 q 526 303 538 303 q 508 313 517 303 q 500 344 500 322 q 532 408 500 383 q 604 432 564 432 q 741 378 690 432 q 792 240 792 325 q 742 82 792 147 q 613 -17 693 17 q 440 -51 533 -51 m 460 524 q 497 531 482 524 q 513 550 513 539 q 494 572 513 565 q 444 579 475 579 q 403 576 424 579 q 360 568 382 574 q 406 535 382 547 q 460 524 429 524 m 338 974 l 499 1088 q 510 1092 506 1092 q 518 1088 514 1092 q 541 1064 525 1081 q 574 1028 557 1047 q 603 994 592 1008 q 615 978 615 979 q 604 974 614 974 l 490 1039 l 367 974 l 338 974 m 661 1086 l 497 1176 q 511 1193 497 1186 q 533 1200 525 1200 q 563 1184 540 1200 q 614 1147 586 1168 q 662 1108 642 1125 q 682 1090 682 1092 q 661 1086 682 1086 z "},"Ể":{"ha":811,"x_min":53,"x_max":792,"o":"m 440 -51 q 244 -15 332 -51 q 105 91 157 21 q 53 263 53 161 q 121 456 53 375 q 300 571 189 536 q 244 708 244 626 q 277 813 244 771 q 363 877 310 856 q 478 899 417 899 q 565 883 524 899 q 631 837 606 867 q 657 764 657 807 q 629 697 657 726 q 560 668 601 668 q 512 688 529 668 q 494 728 494 708 q 501 739 494 739 q 513 725 507 739 q 531 699 518 711 q 561 686 544 686 q 606 709 588 686 q 624 761 624 732 q 581 848 624 815 q 485 881 539 881 q 358 830 404 881 q 311 697 311 779 q 347 585 311 629 q 394 594 367 590 q 444 597 421 597 q 538 551 538 597 q 515 518 538 531 q 460 506 492 506 q 383 520 417 506 q 317 557 349 535 q 213 487 256 535 q 148 376 169 439 q 126 243 126 313 q 167 102 126 164 q 274 5 207 40 q 424 -31 342 -31 q 587 3 514 -31 q 703 98 660 36 q 746 249 746 160 q 709 362 746 315 q 607 408 672 408 q 542 388 567 408 q 518 336 518 368 q 524 317 518 322 q 536 313 531 313 q 538 311 538 313 q 526 303 538 303 q 508 313 517 303 q 500 344 500 322 q 532 408 500 383 q 604 432 564 432 q 741 378 690 432 q 792 240 792 325 q 742 82 792 147 q 613 -17 693 17 q 440 -51 533 -51 m 460 524 q 497 531 482 524 q 513 550 513 539 q 494 572 513 565 q 444 579 475 579 q 403 576 424 579 q 360 568 382 574 q 406 535 382 547 q 460 524 429 524 m 338 974 l 499 1088 q 510 1092 506 1092 q 518 1088 514 1092 q 541 1064 525 1081 q 574 1028 557 1047 q 603 994 592 1008 q 615 978 615 979 q 604 974 614 974 l 490 1039 l 367 974 l 338 974 m 622 1083 q 653 1128 633 1111 q 672 1176 672 1146 q 665 1197 672 1188 q 642 1206 657 1206 q 603 1199 617 1206 q 583 1186 590 1192 l 578 1200 q 617 1229 590 1217 q 671 1242 643 1242 q 710 1228 697 1242 q 722 1193 722 1214 q 708 1147 722 1164 q 674 1116 693 1129 q 639 1083 654 1103 l 622 1083 z "},"Ễ":{"ha":811,"x_min":53,"x_max":792,"o":"m 440 -51 q 244 -15 332 -51 q 105 91 157 21 q 53 263 53 161 q 121 456 53 375 q 300 571 189 536 q 244 708 244 626 q 277 813 244 771 q 363 877 310 856 q 478 899 417 899 q 565 883 524 899 q 631 837 606 867 q 657 764 657 807 q 629 697 657 726 q 560 668 601 668 q 512 688 529 668 q 494 728 494 708 q 501 739 494 739 q 513 725 507 739 q 531 699 518 711 q 561 686 544 686 q 606 709 588 686 q 624 761 624 732 q 581 848 624 815 q 485 881 539 881 q 358 830 404 881 q 311 697 311 779 q 347 585 311 629 q 394 594 367 590 q 444 597 421 597 q 538 551 538 597 q 515 518 538 531 q 460 506 492 506 q 383 520 417 506 q 317 557 349 535 q 213 487 256 535 q 148 376 169 439 q 126 243 126 313 q 167 102 126 164 q 274 5 207 40 q 424 -31 342 -31 q 587 3 514 -31 q 703 98 660 36 q 746 249 746 160 q 709 362 746 315 q 607 408 672 408 q 542 388 567 408 q 518 336 518 368 q 524 317 518 322 q 536 313 531 313 q 538 311 538 313 q 526 303 538 303 q 508 313 517 303 q 500 344 500 322 q 532 408 500 383 q 604 432 564 432 q 741 378 690 432 q 792 240 792 325 q 742 82 792 147 q 613 -17 693 17 q 440 -51 533 -51 m 460 524 q 497 531 482 524 q 513 550 513 539 q 494 572 513 565 q 444 579 475 579 q 403 576 424 579 q 360 568 382 574 q 406 535 382 547 q 460 524 429 524 m 338 974 l 499 1088 q 510 1092 506 1092 q 518 1088 514 1092 q 541 1064 525 1081 q 574 1028 557 1047 q 603 994 592 1008 q 615 978 615 979 q 604 974 614 974 l 490 1039 l 367 974 l 338 974 m 565 1126 q 522 1138 544 1126 q 480 1160 500 1149 q 442 1171 460 1171 q 405 1157 415 1171 q 388 1133 394 1143 l 374 1133 q 406 1188 381 1161 q 463 1215 432 1215 q 499 1205 481 1215 q 537 1184 517 1194 q 579 1174 557 1174 q 622 1188 611 1174 q 638 1210 633 1203 l 649 1210 q 622 1153 642 1179 q 565 1126 601 1126 z "},"Ȅ":{"ha":811,"x_min":53,"x_max":792,"o":"m 440 -51 q 244 -15 332 -51 q 105 91 157 21 q 53 263 53 161 q 121 456 53 375 q 300 571 189 536 q 244 708 244 626 q 277 813 244 771 q 363 877 310 856 q 478 899 417 899 q 565 883 524 899 q 631 837 606 867 q 657 764 657 807 q 629 697 657 726 q 560 668 601 668 q 512 688 529 668 q 494 728 494 708 q 501 739 494 739 q 513 725 507 739 q 531 699 518 711 q 561 686 544 686 q 606 709 588 686 q 624 761 624 732 q 581 848 624 815 q 485 881 539 881 q 358 830 404 881 q 311 697 311 779 q 347 585 311 629 q 394 594 367 590 q 444 597 421 597 q 538 551 538 597 q 515 518 538 531 q 460 506 492 506 q 383 520 417 506 q 317 557 349 535 q 213 487 256 535 q 148 376 169 439 q 126 243 126 313 q 167 102 126 164 q 274 5 207 40 q 424 -31 342 -31 q 587 3 514 -31 q 703 98 660 36 q 746 249 746 160 q 709 362 746 315 q 607 408 672 408 q 542 388 567 408 q 518 336 518 368 q 524 317 518 322 q 536 313 531 313 q 538 311 538 313 q 526 303 538 303 q 508 313 517 303 q 500 344 500 322 q 532 408 500 383 q 604 432 564 432 q 741 378 690 432 q 792 240 792 325 q 742 82 792 147 q 613 -17 693 17 q 440 -51 533 -51 m 460 524 q 497 531 482 524 q 513 550 513 539 q 494 572 513 565 q 444 579 475 579 q 403 576 424 579 q 360 568 382 574 q 406 535 382 547 q 460 524 429 524 m 526 974 l 378 1088 q 395 1102 381 1097 q 418 1106 410 1107 q 445 1085 425 1104 q 490 1040 465 1065 q 531 995 514 1015 q 547 974 547 975 q 526 974 547 971 m 442 974 l 286 1078 q 301 1093 288 1088 q 324 1097 315 1099 q 352 1079 331 1097 q 399 1038 374 1061 q 444 995 425 1014 q 463 975 463 976 q 442 974 463 971 z "},"Ë":{"ha":811,"x_min":53,"x_max":792,"o":"m 440 -51 q 244 -15 332 -51 q 105 91 157 21 q 53 263 53 161 q 121 456 53 375 q 300 571 189 536 q 244 708 244 626 q 277 813 244 771 q 363 877 310 856 q 478 899 417 899 q 565 883 524 899 q 631 837 606 867 q 657 764 657 807 q 629 697 657 726 q 560 668 601 668 q 512 688 529 668 q 494 728 494 708 q 501 739 494 739 q 513 725 507 739 q 531 699 518 711 q 561 686 544 686 q 606 709 588 686 q 624 761 624 732 q 581 848 624 815 q 485 881 539 881 q 358 830 404 881 q 311 697 311 779 q 347 585 311 629 q 394 594 367 590 q 444 597 421 597 q 538 551 538 597 q 515 518 538 531 q 460 506 492 506 q 383 520 417 506 q 317 557 349 535 q 213 487 256 535 q 148 376 169 439 q 126 243 126 313 q 167 102 126 164 q 274 5 207 40 q 424 -31 342 -31 q 587 3 514 -31 q 703 98 660 36 q 746 249 746 160 q 709 362 746 315 q 607 408 672 408 q 542 388 567 408 q 518 336 518 368 q 524 317 518 322 q 536 313 531 313 q 538 311 538 313 q 526 303 538 303 q 508 313 517 303 q 500 344 500 322 q 532 408 500 383 q 604 432 564 432 q 741 378 690 432 q 792 240 792 325 q 742 82 792 147 q 613 -17 693 17 q 440 -51 533 -51 m 460 524 q 497 531 482 524 q 513 550 513 539 q 494 572 513 565 q 444 579 475 579 q 403 576 424 579 q 360 568 382 574 q 406 535 382 547 q 460 524 429 524 m 554 988 q 525 998 535 988 q 515 1022 515 1008 q 531 1059 515 1043 q 565 1075 546 1075 q 594 1065 583 1075 q 604 1039 604 1054 q 588 1003 604 1019 q 554 988 572 988 m 403 988 q 374 998 383 988 q 364 1022 364 1008 q 379 1059 364 1043 q 414 1075 394 1075 q 442 1065 432 1075 q 453 1039 453 1054 q 437 1003 453 1019 q 403 988 421 988 z "},"Ė":{"ha":811,"x_min":53,"x_max":792,"o":"m 440 -51 q 244 -15 332 -51 q 105 91 157 21 q 53 263 53 161 q 121 456 53 375 q 300 571 189 536 q 244 708 244 626 q 277 813 244 771 q 363 877 310 856 q 478 899 417 899 q 565 883 524 899 q 631 837 606 867 q 657 764 657 807 q 629 697 657 726 q 560 668 601 668 q 512 688 529 668 q 494 728 494 708 q 501 739 494 739 q 513 725 507 739 q 531 699 518 711 q 561 686 544 686 q 606 709 588 686 q 624 761 624 732 q 581 848 624 815 q 485 881 539 881 q 358 830 404 881 q 311 697 311 779 q 347 585 311 629 q 394 594 367 590 q 444 597 421 597 q 538 551 538 597 q 515 518 538 531 q 460 506 492 506 q 383 520 417 506 q 317 557 349 535 q 213 487 256 535 q 148 376 169 439 q 126 243 126 313 q 167 102 126 164 q 274 5 207 40 q 424 -31 342 -31 q 587 3 514 -31 q 703 98 660 36 q 746 249 746 160 q 709 362 746 315 q 607 408 672 408 q 542 388 567 408 q 518 336 518 368 q 524 317 518 322 q 536 313 531 313 q 538 311 538 313 q 526 303 538 303 q 508 313 517 303 q 500 344 500 322 q 532 408 500 383 q 604 432 564 432 q 741 378 690 432 q 792 240 792 325 q 742 82 792 147 q 613 -17 693 17 q 440 -51 533 -51 m 460 524 q 497 531 482 524 q 513 550 513 539 q 494 572 513 565 q 444 579 475 579 q 403 576 424 579 q 360 568 382 574 q 406 535 382 547 q 460 524 429 524 m 481 986 q 451 998 463 986 q 439 1028 439 1010 q 453 1061 439 1047 q 488 1075 468 1075 q 516 1063 504 1075 q 528 1033 528 1051 q 514 1000 528 1014 q 481 986 500 986 z "},"Ẹ":{"ha":811,"x_min":53,"x_max":792,"o":"m 440 -51 q 244 -15 332 -51 q 105 91 157 21 q 53 263 53 161 q 121 456 53 375 q 300 571 189 536 q 244 708 244 626 q 277 813 244 771 q 363 877 310 856 q 478 899 417 899 q 565 883 524 899 q 631 837 606 867 q 657 764 657 807 q 629 697 657 726 q 560 668 601 668 q 512 688 529 668 q 494 728 494 708 q 501 739 494 739 q 513 725 507 739 q 531 699 518 711 q 561 686 544 686 q 606 709 588 686 q 624 761 624 732 q 581 848 624 815 q 485 881 539 881 q 358 830 404 881 q 311 697 311 779 q 347 585 311 629 q 394 594 367 590 q 444 597 421 597 q 538 551 538 597 q 515 518 538 531 q 460 506 492 506 q 383 520 417 506 q 317 557 349 535 q 213 487 256 535 q 148 376 169 439 q 126 243 126 313 q 167 102 126 164 q 274 5 207 40 q 424 -31 342 -31 q 587 3 514 -31 q 703 98 660 36 q 746 249 746 160 q 709 362 746 315 q 607 408 672 408 q 542 388 567 408 q 518 336 518 368 q 524 317 518 322 q 536 313 531 313 q 538 311 538 313 q 526 303 538 303 q 508 313 517 303 q 500 344 500 322 q 532 408 500 383 q 604 432 564 432 q 741 378 690 432 q 792 240 792 325 q 742 82 792 147 q 613 -17 693 17 q 440 -51 533 -51 m 460 524 q 497 531 482 524 q 513 550 513 539 q 494 572 513 565 q 444 579 475 579 q 403 576 424 579 q 360 568 382 574 q 406 535 382 547 q 460 524 429 524 m 354 -225 q 324 -213 336 -225 q 313 -183 313 -201 q 327 -150 313 -164 q 361 -136 342 -136 q 390 -148 378 -136 q 401 -178 401 -160 q 388 -211 401 -197 q 354 -225 374 -225 z "},"È":{"ha":811,"x_min":53,"x_max":792,"o":"m 440 -51 q 244 -15 332 -51 q 105 91 157 21 q 53 263 53 161 q 121 456 53 375 q 300 571 189 536 q 244 708 244 626 q 277 813 244 771 q 363 877 310 856 q 478 899 417 899 q 565 883 524 899 q 631 837 606 867 q 657 764 657 807 q 629 697 657 726 q 560 668 601 668 q 512 688 529 668 q 494 728 494 708 q 501 739 494 739 q 513 725 507 739 q 531 699 518 711 q 561 686 544 686 q 606 709 588 686 q 624 761 624 732 q 581 848 624 815 q 485 881 539 881 q 358 830 404 881 q 311 697 311 779 q 347 585 311 629 q 394 594 367 590 q 444 597 421 597 q 538 551 538 597 q 515 518 538 531 q 460 506 492 506 q 383 520 417 506 q 317 557 349 535 q 213 487 256 535 q 148 376 169 439 q 126 243 126 313 q 167 102 126 164 q 274 5 207 40 q 424 -31 342 -31 q 587 3 514 -31 q 703 98 660 36 q 746 249 746 160 q 709 362 746 315 q 607 408 672 408 q 542 388 567 408 q 518 336 518 368 q 524 317 518 322 q 536 313 531 313 q 538 311 538 313 q 526 303 538 303 q 508 313 517 303 q 500 344 500 322 q 532 408 500 383 q 604 432 564 432 q 741 378 690 432 q 792 240 792 325 q 742 82 792 147 q 613 -17 693 17 q 440 -51 533 -51 m 460 524 q 497 531 482 524 q 513 550 513 539 q 494 572 513 565 q 444 579 475 579 q 403 576 424 579 q 360 568 382 574 q 406 535 382 547 q 460 524 429 524 m 483 974 l 319 1064 q 333 1081 319 1074 q 356 1088 347 1088 q 385 1072 363 1088 q 436 1034 408 1056 q 484 996 464 1013 q 504 978 504 979 q 483 974 504 974 z "},"Ẻ":{"ha":811,"x_min":53,"x_max":792,"o":"m 440 -51 q 244 -15 332 -51 q 105 91 157 21 q 53 263 53 161 q 121 456 53 375 q 300 571 189 536 q 244 708 244 626 q 277 813 244 771 q 363 877 310 856 q 478 899 417 899 q 565 883 524 899 q 631 837 606 867 q 657 764 657 807 q 629 697 657 726 q 560 668 601 668 q 512 688 529 668 q 494 728 494 708 q 501 739 494 739 q 513 725 507 739 q 531 699 518 711 q 561 686 544 686 q 606 709 588 686 q 624 761 624 732 q 581 848 624 815 q 485 881 539 881 q 358 830 404 881 q 311 697 311 779 q 347 585 311 629 q 394 594 367 590 q 444 597 421 597 q 538 551 538 597 q 515 518 538 531 q 460 506 492 506 q 383 520 417 506 q 317 557 349 535 q 213 487 256 535 q 148 376 169 439 q 126 243 126 313 q 167 102 126 164 q 274 5 207 40 q 424 -31 342 -31 q 587 3 514 -31 q 703 98 660 36 q 746 249 746 160 q 709 362 746 315 q 607 408 672 408 q 542 388 567 408 q 518 336 518 368 q 524 317 518 322 q 536 313 531 313 q 538 311 538 313 q 526 303 538 303 q 508 313 517 303 q 500 344 500 322 q 532 408 500 383 q 604 432 564 432 q 741 378 690 432 q 792 240 792 325 q 742 82 792 147 q 613 -17 693 17 q 440 -51 533 -51 m 460 524 q 497 531 482 524 q 513 550 513 539 q 494 572 513 565 q 444 579 475 579 q 403 576 424 579 q 360 568 382 574 q 406 535 382 547 q 460 524 429 524 m 475 974 q 506 1019 486 1001 q 525 1067 525 1036 q 517 1087 525 1078 q 494 1096 510 1096 q 456 1089 469 1096 q 436 1076 443 1082 l 431 1090 q 469 1119 443 1107 q 524 1132 496 1132 q 563 1118 550 1132 q 575 1083 575 1104 q 560 1037 575 1054 q 526 1006 546 1019 q 492 974 507 993 l 475 974 z "},"Ȇ":{"ha":811,"x_min":53,"x_max":792,"o":"m 440 -51 q 244 -15 332 -51 q 105 91 157 21 q 53 263 53 161 q 121 456 53 375 q 300 571 189 536 q 244 708 244 626 q 277 813 244 771 q 363 877 310 856 q 478 899 417 899 q 565 883 524 899 q 631 837 606 867 q 657 764 657 807 q 629 697 657 726 q 560 668 601 668 q 512 688 529 668 q 494 728 494 708 q 501 739 494 739 q 513 725 507 739 q 531 699 518 711 q 561 686 544 686 q 606 709 588 686 q 624 761 624 732 q 581 848 624 815 q 485 881 539 881 q 358 830 404 881 q 311 697 311 779 q 347 585 311 629 q 394 594 367 590 q 444 597 421 597 q 538 551 538 597 q 515 518 538 531 q 460 506 492 506 q 383 520 417 506 q 317 557 349 535 q 213 487 256 535 q 148 376 169 439 q 126 243 126 313 q 167 102 126 164 q 274 5 207 40 q 424 -31 342 -31 q 587 3 514 -31 q 703 98 660 36 q 746 249 746 160 q 709 362 746 315 q 607 408 672 408 q 542 388 567 408 q 518 336 518 368 q 524 317 518 322 q 536 313 531 313 q 538 311 538 313 q 526 303 538 303 q 508 313 517 303 q 500 344 500 322 q 532 408 500 383 q 604 432 564 432 q 741 378 690 432 q 792 240 792 325 q 742 82 792 147 q 613 -17 693 17 q 440 -51 533 -51 m 460 524 q 497 531 482 524 q 513 550 513 539 q 494 572 513 565 q 444 579 475 579 q 403 576 424 579 q 360 568 382 574 q 406 535 382 547 q 460 524 429 524 m 575 971 q 565 1024 575 997 q 513 1050 554 1050 q 440 1035 479 1050 q 378 988 401 1019 q 368 976 371 978 q 361 974 365 974 q 350 979 350 974 q 357 992 350 981 q 394 1034 371 1011 q 451 1073 417 1057 q 531 1089 485 1089 q 591 1069 564 1089 q 618 1010 618 1049 q 618 1000 618 1006 q 617 990 618 994 q 611 980 615 985 q 601 971 607 975 q 585 966 594 968 q 575 971 575 964 z "},"Ē":{"ha":811,"x_min":53,"x_max":792,"o":"m 440 -51 q 244 -15 332 -51 q 105 91 157 21 q 53 263 53 161 q 121 456 53 375 q 300 571 189 536 q 244 708 244 626 q 277 813 244 771 q 363 877 310 856 q 478 899 417 899 q 565 883 524 899 q 631 837 606 867 q 657 764 657 807 q 629 697 657 726 q 560 668 601 668 q 512 688 529 668 q 494 728 494 708 q 501 739 494 739 q 513 725 507 739 q 531 699 518 711 q 561 686 544 686 q 606 709 588 686 q 624 761 624 732 q 581 848 624 815 q 485 881 539 881 q 358 830 404 881 q 311 697 311 779 q 347 585 311 629 q 394 594 367 590 q 444 597 421 597 q 538 551 538 597 q 515 518 538 531 q 460 506 492 506 q 383 520 417 506 q 317 557 349 535 q 213 487 256 535 q 148 376 169 439 q 126 243 126 313 q 167 102 126 164 q 274 5 207 40 q 424 -31 342 -31 q 587 3 514 -31 q 703 98 660 36 q 746 249 746 160 q 709 362 746 315 q 607 408 672 408 q 542 388 567 408 q 518 336 518 368 q 524 317 518 322 q 536 313 531 313 q 538 311 538 313 q 526 303 538 303 q 508 313 517 303 q 500 344 500 322 q 532 408 500 383 q 604 432 564 432 q 741 378 690 432 q 792 240 792 325 q 742 82 792 147 q 613 -17 693 17 q 440 -51 533 -51 m 460 524 q 497 531 482 524 q 513 550 513 539 q 494 572 513 565 q 444 579 475 579 q 403 576 424 579 q 360 568 382 574 q 406 535 382 547 q 460 524 429 524 m 357 1011 l 360 1040 l 611 1040 l 608 1011 l 357 1011 z "},"Ŋ":{"ha":1356,"x_min":17,"x_max":1564,"o":"m 879 -515 q 776 -489 822 -515 q 702 -418 729 -462 q 675 -318 675 -374 q 699 -221 675 -264 q 765 -153 724 -178 q 860 -128 807 -128 q 960 -167 919 -128 q 1001 -264 1001 -207 q 967 -349 1001 -315 q 879 -382 932 -382 q 842 -375 857 -382 q 828 -357 828 -368 q 836 -346 828 -346 q 843 -351 842 -346 q 879 -364 849 -364 q 943 -336 921 -364 q 965 -264 965 -308 q 937 -180 965 -212 q 860 -147 908 -147 q 754 -194 793 -147 q 715 -311 715 -240 q 762 -440 715 -387 q 881 -493 808 -493 q 986 -466 942 -493 q 1060 -394 1031 -439 q 1108 -299 1090 -350 q 1133 -197 1125 -247 q 1140 -110 1140 -147 q 1109 83 1140 -8 q 1038 251 1078 174 q 967 385 997 328 q 887 553 921 472 q 853 692 853 633 q 885 839 853 767 q 814 714 839 808 q 788 551 793 635 q 775 381 782 467 q 743 214 768 296 q 660 58 718 132 q 523 -48 606 -8 q 344 -87 440 -87 q 186 -48 258 -87 q 72 60 114 -8 q 29 214 29 128 q 81 382 29 308 q 17 579 17 463 q 78 785 17 700 q 243 913 139 869 q 476 957 347 957 q 597 944 538 957 q 723 908 656 931 q 878 854 790 885 q 933 884 900 876 q 993 892 967 892 q 1036 883 1019 892 q 1053 854 1053 874 q 1038 826 1053 838 q 994 815 1022 815 q 956 820 978 815 q 913 831 935 825 q 906 788 906 813 q 922 675 906 726 q 967 569 939 624 q 1033 444 996 515 q 1116 286 1083 356 q 1169 153 1149 217 q 1199 15 1189 89 q 1229 97 1218 44 q 1246 240 1240 150 q 1251 464 1251 329 q 1258 634 1251 551 q 1283 783 1264 717 q 1340 888 1301 849 q 1446 928 1379 928 q 1531 891 1499 928 q 1564 794 1564 854 q 1558 737 1564 765 q 1538 685 1553 708 q 1435 632 1504 632 q 1417 640 1417 632 q 1435 647 1417 647 q 1485 659 1463 647 q 1522 694 1508 671 q 1544 793 1544 733 q 1519 876 1544 840 q 1444 913 1493 913 q 1362 873 1394 913 q 1310 767 1329 833 q 1285 623 1292 701 q 1278 465 1278 544 q 1267 168 1278 285 q 1200 -8 1257 51 q 1202 -38 1201 -21 q 1203 -92 1203 -56 q 1184 -243 1203 -168 q 1126 -380 1165 -318 q 1025 -478 1086 -442 q 879 -515 964 -515 m 349 -67 q 511 -19 436 -67 q 647 132 586 29 q 704 266 683 192 q 739 421 725 340 q 766 581 753 501 q 799 728 779 660 q 865 846 822 813 q 667 897 756 875 q 501 918 579 918 q 273 878 374 918 q 115 760 172 839 q 57 567 57 682 q 103 410 57 479 q 276 486 171 486 q 410 445 353 486 q 489 332 467 404 q 613 557 613 418 q 588 659 613 614 q 522 731 564 704 q 424 758 479 758 q 310 719 358 758 q 261 615 261 679 q 308 531 261 557 q 321 524 321 531 q 314 518 321 521 q 294 525 308 518 q 243 622 243 556 q 293 739 243 694 q 415 783 343 783 q 574 725 514 783 q 635 568 635 667 q 494 307 635 399 q 497 285 496 294 q 497 269 497 276 q 458 151 497 200 q 351 97 417 97 q 320 100 333 97 q 307 108 307 103 q 315 117 307 117 q 325 116 318 117 q 342 115 332 115 q 438 158 400 115 q 475 261 475 201 q 474 281 475 272 q 472 294 474 289 q 406 269 442 278 q 326 261 371 261 q 104 356 194 261 q 67 218 67 293 q 101 69 67 133 q 200 -31 136 4 q 349 -67 264 -67 m 992 829 q 1022 835 1010 829 q 1035 853 1035 842 q 1022 873 1035 867 q 992 879 1008 879 q 921 844 943 879 q 965 833 949 838 q 992 829 982 829 m 326 283 q 467 321 399 283 q 401 426 450 386 q 286 467 353 467 q 122 383 189 467 q 326 283 210 283 z "},"Ę":{"ha":811,"x_min":53,"x_max":792,"o":"m 440 -51 q 244 -15 332 -51 q 105 91 157 21 q 53 263 53 161 q 121 456 53 375 q 300 571 189 536 q 244 708 244 626 q 277 813 244 771 q 363 877 310 856 q 478 899 417 899 q 565 883 524 899 q 631 837 606 867 q 657 764 657 807 q 629 697 657 726 q 560 668 601 668 q 512 688 529 668 q 494 728 494 708 q 501 739 494 739 q 513 725 507 739 q 531 699 518 711 q 561 686 544 686 q 606 709 588 686 q 624 761 624 732 q 581 848 624 815 q 485 881 539 881 q 358 830 404 881 q 311 697 311 779 q 347 585 311 629 q 394 594 367 590 q 444 597 421 597 q 538 551 538 597 q 515 518 538 531 q 460 506 492 506 q 383 520 417 506 q 317 557 349 535 q 213 487 256 535 q 148 376 169 439 q 126 243 126 313 q 167 102 126 164 q 274 5 207 40 q 424 -31 342 -31 q 587 3 514 -31 q 703 98 660 36 q 746 249 746 160 q 709 362 746 315 q 607 408 672 408 q 542 388 567 408 q 518 336 518 368 q 524 317 518 322 q 536 313 531 313 q 538 311 538 313 q 526 303 538 303 q 508 313 517 303 q 500 344 500 322 q 532 408 500 383 q 604 432 564 432 q 741 378 690 432 q 792 240 792 325 q 742 82 792 147 q 613 -17 693 17 q 440 -51 533 -51 m 460 524 q 497 531 482 524 q 513 550 513 539 q 494 572 513 565 q 444 579 475 579 q 403 576 424 579 q 360 568 382 574 q 406 535 382 547 q 460 524 429 524 m 599 -211 q 544 -195 565 -211 q 522 -149 522 -179 q 549 -83 522 -121 q 615 -10 575 -46 q 626 -2 619 -7 q 636 3 632 3 q 647 0 643 3 q 598 -67 618 -28 q 578 -137 578 -106 q 590 -170 578 -161 q 621 -179 603 -179 q 666 -171 642 -179 q 703 -153 690 -162 l 703 -175 q 649 -202 676 -193 q 599 -211 622 -211 z "},"Ð":{"ha":1025,"x_min":-4,"x_max":986,"o":"m 181 -50 q 128 -43 156 -50 q 83 -21 101 -36 q 65 18 65 -6 q 94 65 65 46 q 157 85 122 85 q 239 70 194 85 q 313 42 283 56 q 400 292 369 124 q 440 515 422 415 q 485 693 457 614 q 569 833 514 772 q 488 847 528 843 q 413 851 449 851 q 226 808 308 851 q 97 689 144 764 q 50 517 50 614 q 69 416 50 463 q 122 342 88 369 q 207 314 157 314 q 285 342 253 314 q 335 416 318 371 q 353 511 353 461 q 331 604 353 564 q 261 644 308 644 q 197 617 225 644 q 169 551 169 589 q 203 508 169 508 q 214 508 208 508 q 219 504 219 508 q 204 496 219 496 q 156 551 156 496 q 188 628 156 596 q 264 660 221 660 q 331 635 304 660 q 372 572 358 610 q 385 494 385 533 q 329 349 385 403 q 192 294 274 294 q 85 325 129 294 q 19 406 42 356 q -4 514 -4 456 q 30 664 -4 597 q 122 777 64 731 q 256 849 181 824 q 414 874 331 874 q 588 857 503 874 q 694 903 640 903 q 738 890 738 903 q 731 885 738 885 q 724 885 728 885 q 713 886 719 885 q 701 888 707 888 q 693 888 696 888 q 613 849 647 888 q 886 699 786 806 q 986 419 986 592 q 929 187 986 288 q 772 30 872 86 q 538 -26 671 -26 q 332 14 450 -26 q 266 -34 294 -18 q 181 -50 238 -50 m 504 1 q 667 33 592 1 q 797 122 742 65 q 884 253 853 178 q 915 417 915 329 q 597 828 915 739 q 556 728 575 794 q 520 574 536 661 q 490 390 504 488 q 470 273 483 339 q 430 143 457 207 q 351 31 403 79 q 504 1 433 1 m 190 -32 q 300 28 250 -32 q 181 58 225 58 q 126 44 144 58 q 108 11 108 31 q 123 -15 108 -6 q 157 -28 138 -24 q 190 -32 176 -32 m 288 192 l 289 224 l 546 224 l 543 192 l 288 192 z "},"Ẽ":{"ha":811,"x_min":53,"x_max":792,"o":"m 440 -51 q 244 -15 332 -51 q 105 91 157 21 q 53 263 53 161 q 121 456 53 375 q 300 571 189 536 q 244 708 244 626 q 277 813 244 771 q 363 877 310 856 q 478 899 417 899 q 565 883 524 899 q 631 837 606 867 q 657 764 657 807 q 629 697 657 726 q 560 668 601 668 q 512 688 529 668 q 494 728 494 708 q 501 739 494 739 q 513 725 507 739 q 531 699 518 711 q 561 686 544 686 q 606 709 588 686 q 624 761 624 732 q 581 848 624 815 q 485 881 539 881 q 358 830 404 881 q 311 697 311 779 q 347 585 311 629 q 394 594 367 590 q 444 597 421 597 q 538 551 538 597 q 515 518 538 531 q 460 506 492 506 q 383 520 417 506 q 317 557 349 535 q 213 487 256 535 q 148 376 169 439 q 126 243 126 313 q 167 102 126 164 q 274 5 207 40 q 424 -31 342 -31 q 587 3 514 -31 q 703 98 660 36 q 746 249 746 160 q 709 362 746 315 q 607 408 672 408 q 542 388 567 408 q 518 336 518 368 q 524 317 518 322 q 536 313 531 313 q 538 311 538 313 q 526 303 538 303 q 508 313 517 303 q 500 344 500 322 q 532 408 500 383 q 604 432 564 432 q 741 378 690 432 q 792 240 792 325 q 742 82 792 147 q 613 -17 693 17 q 440 -51 533 -51 m 460 524 q 497 531 482 524 q 513 550 513 539 q 494 572 513 565 q 444 579 475 579 q 403 576 424 579 q 360 568 382 574 q 406 535 382 547 q 460 524 429 524 m 538 985 q 494 996 517 985 q 452 1018 472 1007 q 414 1029 432 1029 q 377 1015 388 1029 q 360 992 367 1001 l 346 992 q 378 1047 353 1019 q 435 1074 404 1074 q 471 1063 453 1074 q 509 1042 489 1053 q 551 1032 529 1032 q 594 1047 583 1032 q 610 1068 606 1061 l 621 1068 q 594 1011 614 1038 q 538 985 574 985 z "},"F":{"ha":819,"x_min":-28,"x_max":1233,"o":"m 260 -74 q 110 -41 175 -74 q 9 49 46 -8 q -28 182 -28 107 q -3 278 -28 232 q 65 353 22 324 q 164 382 108 382 q 264 348 222 382 q 306 253 306 314 q 273 165 306 201 q 190 128 240 128 q 176 138 176 128 q 193 144 176 144 q 256 176 232 144 q 279 249 279 208 q 248 333 279 306 q 164 361 217 361 q 88 335 122 361 q 35 269 54 310 q 15 181 15 228 q 77 14 15 78 q 242 -50 139 -50 q 431 11 356 -50 q 553 176 506 72 q 629 408 600 279 l 511 408 q 497 417 497 408 q 517 429 497 429 l 635 429 q 669 571 654 511 q 701 679 683 631 q 743 774 718 728 q 397 864 506 864 q 273 833 325 864 q 192 751 221 803 q 164 633 164 699 q 206 515 164 560 q 322 471 249 471 q 438 516 393 471 q 482 629 482 561 q 490 644 482 644 q 501 614 501 644 q 477 531 501 568 q 413 473 453 494 q 321 451 372 451 q 172 510 229 451 q 115 661 115 568 q 149 790 115 735 q 243 876 183 844 q 376 907 303 907 q 560 875 467 907 q 763 797 653 843 q 853 846 808 846 q 864 840 864 846 q 858 836 864 836 q 819 822 840 836 q 782 789 797 807 q 939 740 867 756 q 1079 725 1011 725 q 1123 730 1093 725 q 1179 745 1153 735 q 1206 771 1206 756 q 1224 790 1206 790 q 1233 776 1233 790 q 1186 724 1233 742 q 1067 706 1139 706 q 938 719 1015 706 q 765 764 861 732 q 686 429 719 679 l 783 429 q 796 421 796 429 q 778 408 796 408 l 685 407 q 615 153 667 261 q 476 -15 564 44 q 260 -74 389 -74 z "},"G":{"ha":994,"x_min":-68,"x_max":1239,"o":"m 261 -414 q 92 -386 167 -414 q -25 -304 18 -358 q -68 -169 -68 -250 q -30 -52 -68 -99 q 74 17 8 -6 q 217 40 139 40 q 444 13 321 40 q 722 -57 567 -14 q 749 8 736 -29 q 769 104 763 44 q 544 36 668 36 q 361 81 439 36 q 242 208 283 126 q 203 394 201 289 q 76 617 76 475 q 113 758 76 696 q 211 857 149 821 q 353 893 274 893 q 440 871 399 893 q 504 817 482 849 q 694 856 600 856 q 810 835 757 856 q 897 774 864 814 q 929 675 929 735 q 880 542 929 603 q 751 438 831 482 q 581 369 672 393 q 403 346 489 346 q 342 349 371 346 q 286 357 313 351 q 360 149 294 229 q 557 60 432 60 q 778 151 678 60 q 787 258 782 206 q 803 354 792 311 q 835 423 814 397 q 890 449 856 449 q 935 428 921 449 q 949 382 949 408 q 916 264 949 326 q 818 140 883 201 q 799 21 808 78 q 776 -75 789 -36 q 936 -105 871 -94 q 1038 -115 1001 -115 q 1207 -56 1139 -115 q 1239 -49 1239 -28 q 1232 -65 1239 -54 q 1038 -146 1185 -146 q 767 -103 938 -146 q 653 -271 731 -201 q 474 -377 576 -340 q 261 -414 372 -414 m 203 438 q 284 656 214 560 q 467 801 354 751 q 342 846 419 846 q 222 817 276 846 q 136 739 168 789 q 104 622 104 689 q 201 438 104 501 l 203 438 m 383 385 q 549 408 463 385 q 709 472 635 431 q 830 567 783 513 q 876 686 876 622 q 851 763 876 732 q 785 808 825 793 q 700 824 744 824 q 525 779 621 824 q 542 707 542 744 q 524 631 542 667 q 477 572 506 594 q 417 549 449 549 q 392 560 392 549 q 407 572 392 572 q 459 592 436 572 q 496 642 482 611 q 510 703 510 672 q 506 734 510 718 q 494 764 503 750 q 341 608 396 706 q 285 394 286 511 q 333 387 308 389 q 383 385 357 385 m 818 196 q 865 256 843 221 q 900 326 886 290 q 914 388 914 361 q 889 428 914 428 q 853 406 867 428 q 832 348 839 383 q 822 272 825 313 q 818 196 819 232 m 247 -387 q 383 -362 310 -387 q 524 -295 456 -337 q 644 -198 593 -253 q 713 -85 694 -143 q 435 -12 557 -36 q 235 11 313 11 q 109 -6 165 11 q 20 -60 53 -22 q -12 -161 -12 -99 q 56 -322 -12 -257 q 247 -387 125 -387 z "},"Ğ":{"ha":994,"x_min":-68,"x_max":1239,"o":"m 261 -414 q 92 -386 167 -414 q -25 -304 18 -358 q -68 -169 -68 -250 q -30 -52 -68 -99 q 74 17 8 -6 q 217 40 139 40 q 444 13 321 40 q 722 -57 567 -14 q 749 8 736 -29 q 769 104 763 44 q 544 36 668 36 q 361 81 439 36 q 242 208 283 126 q 203 394 201 289 q 76 617 76 475 q 113 758 76 696 q 211 857 149 821 q 353 893 274 893 q 440 871 399 893 q 504 817 482 849 q 694 856 600 856 q 810 835 757 856 q 897 774 864 814 q 929 675 929 735 q 880 542 929 603 q 751 438 831 482 q 581 369 672 393 q 403 346 489 346 q 342 349 371 346 q 286 357 313 351 q 360 149 294 229 q 557 60 432 60 q 778 151 678 60 q 787 258 782 206 q 803 354 792 311 q 835 423 814 397 q 890 449 856 449 q 935 428 921 449 q 949 382 949 408 q 916 264 949 326 q 818 140 883 201 q 799 21 808 78 q 776 -75 789 -36 q 936 -105 871 -94 q 1038 -115 1001 -115 q 1207 -56 1139 -115 q 1239 -49 1239 -28 q 1232 -65 1239 -54 q 1038 -146 1185 -146 q 767 -103 938 -146 q 653 -271 731 -201 q 474 -377 576 -340 q 261 -414 372 -414 m 203 438 q 284 656 214 560 q 467 801 354 751 q 342 846 419 846 q 222 817 276 846 q 136 739 168 789 q 104 622 104 689 q 201 438 104 501 l 203 438 m 383 385 q 549 408 463 385 q 709 472 635 431 q 830 567 783 513 q 876 686 876 622 q 851 763 876 732 q 785 808 825 793 q 700 824 744 824 q 525 779 621 824 q 542 707 542 744 q 524 631 542 667 q 477 572 506 594 q 417 549 449 549 q 392 560 392 549 q 407 572 392 572 q 459 592 436 572 q 496 642 482 611 q 510 703 510 672 q 506 734 510 718 q 494 764 503 750 q 341 608 396 706 q 285 394 286 511 q 333 387 308 389 q 383 385 357 385 m 818 196 q 865 256 843 221 q 900 326 886 290 q 914 388 914 361 q 889 428 914 428 q 853 406 867 428 q 832 348 839 383 q 822 272 825 313 q 818 196 819 232 m 247 -387 q 383 -362 310 -387 q 524 -295 456 -337 q 644 -198 593 -253 q 713 -85 694 -143 q 435 -12 557 -36 q 235 11 313 11 q 109 -6 165 11 q 20 -60 53 -22 q -12 -161 -12 -99 q 56 -322 -12 -257 q 247 -387 125 -387 m 722 942 q 665 960 692 942 q 635 1011 638 979 q 635 1021 635 1015 q 636 1031 635 1026 q 649 1048 639 1042 q 667 1054 658 1054 q 675 1049 675 1054 q 693 998 675 1017 q 743 979 711 979 q 801 994 771 979 q 860 1047 832 1010 l 883 1047 q 876 1035 883 1046 q 821 974 858 1007 q 722 942 783 942 z "},"Ǧ":{"ha":994,"x_min":-68,"x_max":1239,"o":"m 261 -414 q 92 -386 167 -414 q -25 -304 18 -358 q -68 -169 -68 -250 q -30 -52 -68 -99 q 74 17 8 -6 q 217 40 139 40 q 444 13 321 40 q 722 -57 567 -14 q 749 8 736 -29 q 769 104 763 44 q 544 36 668 36 q 361 81 439 36 q 242 208 283 126 q 203 394 201 289 q 76 617 76 475 q 113 758 76 696 q 211 857 149 821 q 353 893 274 893 q 440 871 399 893 q 504 817 482 849 q 694 856 600 856 q 810 835 757 856 q 897 774 864 814 q 929 675 929 735 q 880 542 929 603 q 751 438 831 482 q 581 369 672 393 q 403 346 489 346 q 342 349 371 346 q 286 357 313 351 q 360 149 294 229 q 557 60 432 60 q 778 151 678 60 q 787 258 782 206 q 803 354 792 311 q 835 423 814 397 q 890 449 856 449 q 935 428 921 449 q 949 382 949 408 q 916 264 949 326 q 818 140 883 201 q 799 21 808 78 q 776 -75 789 -36 q 936 -105 871 -94 q 1038 -115 1001 -115 q 1207 -56 1139 -115 q 1239 -49 1239 -28 q 1232 -65 1239 -54 q 1038 -146 1185 -146 q 767 -103 938 -146 q 653 -271 731 -201 q 474 -377 576 -340 q 261 -414 372 -414 m 203 438 q 284 656 214 560 q 467 801 354 751 q 342 846 419 846 q 222 817 276 846 q 136 739 168 789 q 104 622 104 689 q 201 438 104 501 l 203 438 m 383 385 q 549 408 463 385 q 709 472 635 431 q 830 567 783 513 q 876 686 876 622 q 851 763 876 732 q 785 808 825 793 q 700 824 744 824 q 525 779 621 824 q 542 707 542 744 q 524 631 542 667 q 477 572 506 594 q 417 549 449 549 q 392 560 392 549 q 407 572 392 572 q 459 592 436 572 q 496 642 482 611 q 510 703 510 672 q 506 734 510 718 q 494 764 503 750 q 341 608 396 706 q 285 394 286 511 q 333 387 308 389 q 383 385 357 385 m 818 196 q 865 256 843 221 q 900 326 886 290 q 914 388 914 361 q 889 428 914 428 q 853 406 867 428 q 832 348 839 383 q 822 272 825 313 q 818 196 819 232 m 247 -387 q 383 -362 310 -387 q 524 -295 456 -337 q 644 -198 593 -253 q 713 -85 694 -143 q 435 -12 557 -36 q 235 11 313 11 q 109 -6 165 11 q 20 -60 53 -22 q -12 -161 -12 -99 q 56 -322 -12 -257 q 247 -387 125 -387 m 722 935 q 714 939 718 935 q 691 963 707 946 q 658 999 675 979 q 628 1033 640 1018 q 617 1049 617 1047 q 628 1053 619 1053 l 742 988 l 865 1053 l 894 1053 l 733 939 q 722 935 728 935 z "},"Ĝ":{"ha":994,"x_min":-68,"x_max":1239,"o":"m 261 -414 q 92 -386 167 -414 q -25 -304 18 -358 q -68 -169 -68 -250 q -30 -52 -68 -99 q 74 17 8 -6 q 217 40 139 40 q 444 13 321 40 q 722 -57 567 -14 q 749 8 736 -29 q 769 104 763 44 q 544 36 668 36 q 361 81 439 36 q 242 208 283 126 q 203 394 201 289 q 76 617 76 475 q 113 758 76 696 q 211 857 149 821 q 353 893 274 893 q 440 871 399 893 q 504 817 482 849 q 694 856 600 856 q 810 835 757 856 q 897 774 864 814 q 929 675 929 735 q 880 542 929 603 q 751 438 831 482 q 581 369 672 393 q 403 346 489 346 q 342 349 371 346 q 286 357 313 351 q 360 149 294 229 q 557 60 432 60 q 778 151 678 60 q 787 258 782 206 q 803 354 792 311 q 835 423 814 397 q 890 449 856 449 q 935 428 921 449 q 949 382 949 408 q 916 264 949 326 q 818 140 883 201 q 799 21 808 78 q 776 -75 789 -36 q 936 -105 871 -94 q 1038 -115 1001 -115 q 1207 -56 1139 -115 q 1239 -49 1239 -28 q 1232 -65 1239 -54 q 1038 -146 1185 -146 q 767 -103 938 -146 q 653 -271 731 -201 q 474 -377 576 -340 q 261 -414 372 -414 m 203 438 q 284 656 214 560 q 467 801 354 751 q 342 846 419 846 q 222 817 276 846 q 136 739 168 789 q 104 622 104 689 q 201 438 104 501 l 203 438 m 383 385 q 549 408 463 385 q 709 472 635 431 q 830 567 783 513 q 876 686 876 622 q 851 763 876 732 q 785 808 825 793 q 700 824 744 824 q 525 779 621 824 q 542 707 542 744 q 524 631 542 667 q 477 572 506 594 q 417 549 449 549 q 392 560 392 549 q 407 572 392 572 q 459 592 436 572 q 496 642 482 611 q 510 703 510 672 q 506 734 510 718 q 494 764 503 750 q 341 608 396 706 q 285 394 286 511 q 333 387 308 389 q 383 385 357 385 m 818 196 q 865 256 843 221 q 900 326 886 290 q 914 388 914 361 q 889 428 914 428 q 853 406 867 428 q 832 348 839 383 q 822 272 825 313 q 818 196 819 232 m 247 -387 q 383 -362 310 -387 q 524 -295 456 -337 q 644 -198 593 -253 q 713 -85 694 -143 q 435 -12 557 -36 q 235 11 313 11 q 109 -6 165 11 q 20 -60 53 -22 q -12 -161 -12 -99 q 56 -322 -12 -257 q 247 -387 125 -387 m 576 940 l 738 1054 q 749 1058 744 1058 q 757 1054 753 1058 q 780 1031 764 1047 q 813 994 796 1014 q 842 960 831 975 q 854 944 854 946 q 843 940 853 940 l 729 1006 l 606 940 l 576 940 z "},"Ģ":{"ha":994,"x_min":-68,"x_max":1239,"o":"m 261 -414 q 92 -386 167 -414 q -25 -304 18 -358 q -68 -169 -68 -250 q -30 -52 -68 -99 q 74 17 8 -6 q 217 40 139 40 q 444 13 321 40 q 722 -57 567 -14 q 749 8 736 -29 q 769 104 763 44 q 544 36 668 36 q 361 81 439 36 q 242 208 283 126 q 203 394 201 289 q 76 617 76 475 q 113 758 76 696 q 211 857 149 821 q 353 893 274 893 q 440 871 399 893 q 504 817 482 849 q 694 856 600 856 q 810 835 757 856 q 897 774 864 814 q 929 675 929 735 q 880 542 929 603 q 751 438 831 482 q 581 369 672 393 q 403 346 489 346 q 342 349 371 346 q 286 357 313 351 q 360 149 294 229 q 557 60 432 60 q 778 151 678 60 q 787 258 782 206 q 803 354 792 311 q 835 423 814 397 q 890 449 856 449 q 935 428 921 449 q 949 382 949 408 q 916 264 949 326 q 818 140 883 201 q 799 21 808 78 q 776 -75 789 -36 q 936 -105 871 -94 q 1038 -115 1001 -115 q 1207 -56 1139 -115 q 1239 -49 1239 -28 q 1232 -65 1239 -54 q 1038 -146 1185 -146 q 767 -103 938 -146 q 653 -271 731 -201 q 474 -377 576 -340 q 261 -414 372 -414 m 203 438 q 284 656 214 560 q 467 801 354 751 q 342 846 419 846 q 222 817 276 846 q 136 739 168 789 q 104 622 104 689 q 201 438 104 501 l 203 438 m 383 385 q 549 408 463 385 q 709 472 635 431 q 830 567 783 513 q 876 686 876 622 q 851 763 876 732 q 785 808 825 793 q 700 824 744 824 q 525 779 621 824 q 542 707 542 744 q 524 631 542 667 q 477 572 506 594 q 417 549 449 549 q 392 560 392 549 q 407 572 392 572 q 459 592 436 572 q 496 642 482 611 q 510 703 510 672 q 506 734 510 718 q 494 764 503 750 q 341 608 396 706 q 285 394 286 511 q 333 387 308 389 q 383 385 357 385 m 818 196 q 865 256 843 221 q 900 326 886 290 q 914 388 914 361 q 889 428 914 428 q 853 406 867 428 q 832 348 839 383 q 822 272 825 313 q 818 196 819 232 m 247 -387 q 383 -362 310 -387 q 524 -295 456 -337 q 644 -198 593 -253 q 713 -85 694 -143 q 435 -12 557 -36 q 235 11 313 11 q 109 -6 165 11 q 20 -60 53 -22 q -12 -161 -12 -99 q 56 -322 -12 -257 q 247 -387 125 -387 m 201 -690 l 197 -675 q 258 -626 242 -658 q 278 -574 274 -594 q 256 -582 269 -582 q 230 -572 242 -582 q 218 -543 218 -562 q 231 -511 218 -524 q 261 -499 243 -499 q 290 -509 276 -499 q 304 -544 304 -519 q 296 -594 304 -564 q 265 -651 288 -624 q 201 -690 243 -678 z "},"Ġ":{"ha":994,"x_min":-68,"x_max":1239,"o":"m 261 -414 q 92 -386 167 -414 q -25 -304 18 -358 q -68 -169 -68 -250 q -30 -52 -68 -99 q 74 17 8 -6 q 217 40 139 40 q 444 13 321 40 q 722 -57 567 -14 q 749 8 736 -29 q 769 104 763 44 q 544 36 668 36 q 361 81 439 36 q 242 208 283 126 q 203 394 201 289 q 76 617 76 475 q 113 758 76 696 q 211 857 149 821 q 353 893 274 893 q 440 871 399 893 q 504 817 482 849 q 694 856 600 856 q 810 835 757 856 q 897 774 864 814 q 929 675 929 735 q 880 542 929 603 q 751 438 831 482 q 581 369 672 393 q 403 346 489 346 q 342 349 371 346 q 286 357 313 351 q 360 149 294 229 q 557 60 432 60 q 778 151 678 60 q 787 258 782 206 q 803 354 792 311 q 835 423 814 397 q 890 449 856 449 q 935 428 921 449 q 949 382 949 408 q 916 264 949 326 q 818 140 883 201 q 799 21 808 78 q 776 -75 789 -36 q 936 -105 871 -94 q 1038 -115 1001 -115 q 1207 -56 1139 -115 q 1239 -49 1239 -28 q 1232 -65 1239 -54 q 1038 -146 1185 -146 q 767 -103 938 -146 q 653 -271 731 -201 q 474 -377 576 -340 q 261 -414 372 -414 m 203 438 q 284 656 214 560 q 467 801 354 751 q 342 846 419 846 q 222 817 276 846 q 136 739 168 789 q 104 622 104 689 q 201 438 104 501 l 203 438 m 383 385 q 549 408 463 385 q 709 472 635 431 q 830 567 783 513 q 876 686 876 622 q 851 763 876 732 q 785 808 825 793 q 700 824 744 824 q 525 779 621 824 q 542 707 542 744 q 524 631 542 667 q 477 572 506 594 q 417 549 449 549 q 392 560 392 549 q 407 572 392 572 q 459 592 436 572 q 496 642 482 611 q 510 703 510 672 q 506 734 510 718 q 494 764 503 750 q 341 608 396 706 q 285 394 286 511 q 333 387 308 389 q 383 385 357 385 m 818 196 q 865 256 843 221 q 900 326 886 290 q 914 388 914 361 q 889 428 914 428 q 853 406 867 428 q 832 348 839 383 q 822 272 825 313 q 818 196 819 232 m 247 -387 q 383 -362 310 -387 q 524 -295 456 -337 q 644 -198 593 -253 q 713 -85 694 -143 q 435 -12 557 -36 q 235 11 313 11 q 109 -6 165 11 q 20 -60 53 -22 q -12 -161 -12 -99 q 56 -322 -12 -257 q 247 -387 125 -387 m 719 953 q 690 965 701 953 q 678 994 678 976 q 692 1028 678 1014 q 726 1042 707 1042 q 755 1030 743 1042 q 767 1000 767 1018 q 753 967 767 981 q 719 953 739 953 z "},"ẞ":{"ha":614,"x_min":-158,"x_max":572,"o":"m -87 -72 q -113 -70 -100 -72 q -140 -67 -126 -68 q -158 -54 -158 -62 q -143 -47 -158 -44 q -122 -49 -132 -49 q -103 -50 -112 -50 q -6 -1 -37 -50 q 44 165 26 47 q 67 317 54 228 q 101 525 79 406 q 134 666 114 594 q 187 797 154 738 q 267 894 219 857 q 383 931 315 931 q 510 895 472 931 q 549 810 549 860 q 519 710 549 763 q 438 615 489 657 q 324 556 388 574 q 409 525 365 542 q 490 481 453 508 q 549 410 526 454 q 572 296 572 365 q 543 183 572 233 q 467 94 514 132 q 365 37 419 57 q 258 17 310 17 q 175 40 208 17 q 142 110 142 64 q 162 176 142 144 q 217 227 182 207 q 292 247 251 247 q 306 240 303 247 q 294 232 306 232 q 230 212 261 232 q 179 163 199 192 q 160 107 160 133 q 192 58 160 69 q 268 47 225 47 q 379 81 326 47 q 465 172 432 115 q 499 294 499 228 q 457 433 499 383 q 340 514 415 483 q 307 527 319 521 q 292 540 294 533 q 319 576 286 568 q 407 627 368 589 q 468 714 446 665 q 490 807 490 763 q 465 881 490 851 q 381 911 439 911 q 285 876 322 911 q 226 784 249 842 q 190 658 203 726 q 168 519 176 589 q 139 314 151 401 q 114 161 126 226 q 38 -19 89 35 q -87 -72 -14 -72 z "},"H":{"ha":1124,"x_min":-65,"x_max":1286,"o":"m 249 -64 q 89 -24 160 -64 q -24 86 18 17 q -65 244 -65 156 q 53 479 -65 403 q 22 613 22 539 q 55 750 22 690 q 147 844 88 810 q 282 879 206 879 q 475 842 378 879 q 694 749 572 804 q 813 813 754 813 q 861 798 839 813 q 883 757 883 783 q 863 715 883 731 q 806 699 842 699 q 706 722 768 699 q 651 471 653 636 q 651 451 651 463 q 649 426 650 440 l 963 426 q 1033 683 996 575 q 1131 833 1071 790 q 1199 861 1169 861 q 1263 832 1239 861 q 1286 761 1286 803 q 1278 708 1286 742 q 1267 696 1272 696 q 1263 713 1257 696 q 1269 760 1269 738 q 1199 842 1269 842 l 1194 842 q 1138 805 1164 842 q 1089 706 1111 768 q 1050 568 1067 643 q 1022 415 1033 493 q 1003 267 1010 336 q 997 150 997 199 q 1040 7 997 7 q 1082 29 1061 7 q 1120 83 1103 51 q 1144 144 1138 115 q 1156 164 1151 164 q 1163 144 1163 164 l 1163 138 q 1114 38 1146 83 q 1025 -19 1072 -19 q 953 26 976 -19 q 931 157 931 72 q 960 406 931 258 l 647 406 q 594 157 638 263 q 466 -6 550 51 q 249 -64 382 -64 m 242 -37 q 394 -1 333 -37 q 494 101 456 36 q 553 251 532 165 q 586 435 575 336 q 617 599 597 521 q 678 731 636 678 q 471 808 557 782 q 304 835 385 835 q 176 803 232 835 q 90 717 121 772 q 58 589 58 663 q 76 492 58 533 q 157 510 111 510 q 329 415 276 510 q 389 538 389 457 q 400 556 389 556 q 407 538 407 556 q 336 400 407 449 q 356 319 356 358 q 315 191 356 246 q 201 136 274 136 q 190 147 190 136 q 207 158 190 158 q 295 204 261 158 q 329 313 329 250 q 325 353 329 335 q 314 386 321 371 q 224 367 268 367 q 67 449 119 367 q -15 232 -15 378 q 18 95 -15 156 q 109 -1 51 35 q 242 -37 167 -37 m 807 715 q 849 726 833 715 q 864 756 864 738 q 849 781 864 771 q 810 790 835 790 q 760 776 783 790 q 719 740 738 763 q 807 715 768 715 m 221 388 q 306 406 269 388 q 149 483 261 483 q 89 465 115 483 q 221 388 133 388 z "},"Ħ":{"ha":1124,"x_min":-65,"x_max":1286,"o":"m 249 -64 q 89 -24 160 -64 q -24 86 18 17 q -65 244 -65 156 q 53 479 -65 403 q 22 613 22 539 q 55 750 22 690 q 147 844 88 810 q 282 879 206 879 q 475 842 378 879 q 694 749 572 804 q 813 813 754 813 q 861 798 839 813 q 883 757 883 783 q 863 715 883 731 q 806 699 842 699 q 706 722 768 699 q 651 471 653 636 q 651 451 651 463 q 649 426 650 440 l 963 426 q 1033 683 996 575 q 1131 833 1071 790 q 1199 861 1169 861 q 1263 832 1239 861 q 1286 761 1286 803 q 1278 708 1286 742 q 1267 696 1272 696 q 1263 713 1257 696 q 1269 760 1269 738 q 1199 842 1269 842 l 1194 842 q 1138 805 1164 842 q 1089 706 1111 768 q 1050 568 1067 643 q 1022 415 1033 493 q 1003 267 1010 336 q 997 150 997 199 q 1040 7 997 7 q 1082 29 1061 7 q 1120 83 1103 51 q 1144 144 1138 115 q 1156 164 1151 164 q 1163 144 1163 164 l 1163 138 q 1114 38 1146 83 q 1025 -19 1072 -19 q 953 26 976 -19 q 931 157 931 72 q 960 406 931 258 l 647 406 q 594 157 638 263 q 466 -6 550 51 q 249 -64 382 -64 m 242 -37 q 394 -1 333 -37 q 494 101 456 36 q 553 251 532 165 q 586 435 575 336 q 617 599 597 521 q 678 731 636 678 q 471 808 557 782 q 304 835 385 835 q 176 803 232 835 q 90 717 121 772 q 58 589 58 663 q 76 492 58 533 q 157 510 111 510 q 329 415 276 510 q 389 538 389 457 q 400 556 389 556 q 407 538 407 556 q 336 400 407 449 q 356 319 356 358 q 315 191 356 246 q 201 136 274 136 q 190 147 190 136 q 207 158 190 158 q 295 204 261 158 q 329 313 329 250 q 325 353 329 335 q 314 386 321 371 q 224 367 268 367 q 67 449 119 367 q -15 232 -15 378 q 18 95 -15 156 q 109 -1 51 35 q 242 -37 167 -37 m 807 715 q 849 726 833 715 q 864 756 864 738 q 849 781 864 771 q 810 790 835 790 q 760 776 783 790 q 719 740 738 763 q 807 715 768 715 m 221 388 q 306 406 269 388 q 149 483 261 483 q 89 465 115 483 q 221 388 133 388 m 581 508 l 585 536 l 1160 536 l 1156 508 l 581 508 z "},"Ĥ":{"ha":1124,"x_min":-65,"x_max":1286,"o":"m 249 -64 q 89 -24 160 -64 q -24 86 18 17 q -65 244 -65 156 q 53 479 -65 403 q 22 613 22 539 q 55 750 22 690 q 147 844 88 810 q 282 879 206 879 q 475 842 378 879 q 694 749 572 804 q 813 813 754 813 q 861 798 839 813 q 883 757 883 783 q 863 715 883 731 q 806 699 842 699 q 706 722 768 699 q 651 471 653 636 q 651 451 651 463 q 649 426 650 440 l 963 426 q 1033 683 996 575 q 1131 833 1071 790 q 1199 861 1169 861 q 1263 832 1239 861 q 1286 761 1286 803 q 1278 708 1286 742 q 1267 696 1272 696 q 1263 713 1257 696 q 1269 760 1269 738 q 1199 842 1269 842 l 1194 842 q 1138 805 1164 842 q 1089 706 1111 768 q 1050 568 1067 643 q 1022 415 1033 493 q 1003 267 1010 336 q 997 150 997 199 q 1040 7 997 7 q 1082 29 1061 7 q 1120 83 1103 51 q 1144 144 1138 115 q 1156 164 1151 164 q 1163 144 1163 164 l 1163 138 q 1114 38 1146 83 q 1025 -19 1072 -19 q 953 26 976 -19 q 931 157 931 72 q 960 406 931 258 l 647 406 q 594 157 638 263 q 466 -6 550 51 q 249 -64 382 -64 m 242 -37 q 394 -1 333 -37 q 494 101 456 36 q 553 251 532 165 q 586 435 575 336 q 617 599 597 521 q 678 731 636 678 q 471 808 557 782 q 304 835 385 835 q 176 803 232 835 q 90 717 121 772 q 58 589 58 663 q 76 492 58 533 q 157 510 111 510 q 329 415 276 510 q 389 538 389 457 q 400 556 389 556 q 407 538 407 556 q 336 400 407 449 q 356 319 356 358 q 315 191 356 246 q 201 136 274 136 q 190 147 190 136 q 207 158 190 158 q 295 204 261 158 q 329 313 329 250 q 325 353 329 335 q 314 386 321 371 q 224 367 268 367 q 67 449 119 367 q -15 232 -15 378 q 18 95 -15 156 q 109 -1 51 35 q 242 -37 167 -37 m 807 715 q 849 726 833 715 q 864 756 864 738 q 849 781 864 771 q 810 790 835 790 q 760 776 783 790 q 719 740 738 763 q 807 715 768 715 m 221 388 q 306 406 269 388 q 149 483 261 483 q 89 465 115 483 q 221 388 133 388 m 764 974 l 925 1088 q 936 1092 932 1092 q 944 1088 940 1092 q 967 1064 951 1081 q 1001 1028 983 1047 q 1030 994 1018 1008 q 1042 978 1042 979 q 1031 974 1040 974 l 917 1039 l 793 974 l 764 974 z "},"I":{"ha":672,"x_min":-6,"x_max":797,"o":"m 258 -72 q 124 -39 185 -72 q 29 53 64 -6 q -6 186 -6 113 q 25 315 -6 254 q 109 413 56 375 q 231 450 163 450 q 314 426 278 450 q 372 361 350 401 q 393 274 393 321 q 354 175 393 214 q 254 136 315 136 q 174 171 200 136 q 149 253 149 206 q 167 294 149 294 q 171 288 171 294 q 166 265 167 278 q 165 247 165 251 q 188 178 165 208 q 249 149 211 149 q 335 185 301 149 q 369 275 369 222 q 351 353 369 317 q 303 411 333 389 q 232 433 272 433 q 133 401 174 433 q 72 319 93 369 q 50 211 50 268 q 103 19 50 93 q 265 -54 156 -54 q 388 -17 339 -54 q 465 83 436 19 q 511 231 494 147 q 536 407 528 314 q 486 404 525 404 q 401 428 440 404 q 336 494 361 451 q 311 592 311 536 q 363 751 311 686 q 497 849 414 815 q 675 883 581 883 q 794 863 747 883 q 797 857 797 860 q 779 850 797 851 q 724 822 751 847 q 676 760 697 796 q 643 690 654 724 q 696 583 696 650 q 601 425 696 469 q 561 174 599 288 q 449 -6 524 61 q 258 -72 374 -72 m 503 419 q 522 420 511 419 q 538 422 533 421 l 542 496 q 558 588 544 539 q 593 693 571 638 q 569 696 585 696 q 519 676 540 696 q 499 628 499 657 q 511 588 499 600 q 519 581 519 583 q 513 575 519 575 q 491 592 499 575 q 483 626 483 608 q 512 687 483 663 q 576 711 540 711 q 600 708 592 711 q 750 856 665 854 q 665 865 713 865 q 522 837 589 865 q 411 756 456 808 q 356 629 367 703 q 353 607 354 619 q 353 579 353 594 q 394 460 353 500 q 503 419 435 419 m 601 446 q 661 504 644 469 q 678 582 678 539 q 665 638 678 614 q 638 676 653 661 q 613 567 621 625 q 601 446 604 510 z "},"Í":{"ha":672,"x_min":-6,"x_max":806,"o":"m 258 -72 q 124 -39 185 -72 q 29 53 64 -6 q -6 186 -6 113 q 25 315 -6 254 q 109 413 56 375 q 231 450 163 450 q 314 426 278 450 q 372 361 350 401 q 393 274 393 321 q 354 175 393 214 q 254 136 315 136 q 174 171 200 136 q 149 253 149 206 q 167 294 149 294 q 171 288 171 294 q 166 265 167 278 q 165 247 165 251 q 188 178 165 208 q 249 149 211 149 q 335 185 301 149 q 369 275 369 222 q 351 353 369 317 q 303 411 333 389 q 232 433 272 433 q 133 401 174 433 q 72 319 93 369 q 50 211 50 268 q 103 19 50 93 q 265 -54 156 -54 q 388 -17 339 -54 q 465 83 436 19 q 511 231 494 147 q 536 407 528 314 q 486 404 525 404 q 401 428 440 404 q 336 494 361 451 q 311 592 311 536 q 363 751 311 686 q 497 849 414 815 q 675 883 581 883 q 794 863 747 883 q 797 857 797 860 q 779 850 797 851 q 724 822 751 847 q 676 760 697 796 q 643 690 654 724 q 696 583 696 650 q 601 425 696 469 q 561 174 599 288 q 449 -6 524 61 q 258 -72 374 -72 m 503 419 q 522 420 511 419 q 538 422 533 421 l 542 496 q 558 588 544 539 q 593 693 571 638 q 569 696 585 696 q 519 676 540 696 q 499 628 499 657 q 511 588 499 600 q 519 581 519 583 q 513 575 519 575 q 491 592 499 575 q 483 626 483 608 q 512 687 483 663 q 576 711 540 711 q 600 708 592 711 q 750 856 665 854 q 665 865 713 865 q 522 837 589 865 q 411 756 456 808 q 356 629 367 703 q 353 607 354 619 q 353 579 353 594 q 394 460 353 500 q 503 419 435 419 m 601 446 q 661 504 644 469 q 678 582 678 539 q 665 638 678 614 q 638 676 653 661 q 613 567 621 625 q 601 446 604 510 m 642 974 q 621 978 621 974 q 641 996 621 979 q 689 1034 661 1013 q 740 1072 717 1056 q 769 1088 764 1088 q 792 1081 778 1088 q 806 1064 806 1074 l 642 974 z "},"Ĭ":{"ha":672,"x_min":-6,"x_max":803,"o":"m 258 -72 q 124 -39 185 -72 q 29 53 64 -6 q -6 186 -6 113 q 25 315 -6 254 q 109 413 56 375 q 231 450 163 450 q 314 426 278 450 q 372 361 350 401 q 393 274 393 321 q 354 175 393 214 q 254 136 315 136 q 174 171 200 136 q 149 253 149 206 q 167 294 149 294 q 171 288 171 294 q 166 265 167 278 q 165 247 165 251 q 188 178 165 208 q 249 149 211 149 q 335 185 301 149 q 369 275 369 222 q 351 353 369 317 q 303 411 333 389 q 232 433 272 433 q 133 401 174 433 q 72 319 93 369 q 50 211 50 268 q 103 19 50 93 q 265 -54 156 -54 q 388 -17 339 -54 q 465 83 436 19 q 511 231 494 147 q 536 407 528 314 q 486 404 525 404 q 401 428 440 404 q 336 494 361 451 q 311 592 311 536 q 363 751 311 686 q 497 849 414 815 q 675 883 581 883 q 794 863 747 883 q 797 857 797 860 q 779 850 797 851 q 724 822 751 847 q 676 760 697 796 q 643 690 654 724 q 696 583 696 650 q 601 425 696 469 q 561 174 599 288 q 449 -6 524 61 q 258 -72 374 -72 m 503 419 q 522 420 511 419 q 538 422 533 421 l 542 496 q 558 588 544 539 q 593 693 571 638 q 569 696 585 696 q 519 676 540 696 q 499 628 499 657 q 511 588 499 600 q 519 581 519 583 q 513 575 519 575 q 491 592 499 575 q 483 626 483 608 q 512 687 483 663 q 576 711 540 711 q 600 708 592 711 q 750 856 665 854 q 665 865 713 865 q 522 837 589 865 q 411 756 456 808 q 356 629 367 703 q 353 607 354 619 q 353 579 353 594 q 394 460 353 500 q 503 419 435 419 m 601 446 q 661 504 644 469 q 678 582 678 539 q 665 638 678 614 q 638 676 653 661 q 613 567 621 625 q 601 446 604 510 m 642 975 q 584 994 611 975 q 554 1044 557 1013 q 554 1054 554 1049 q 556 1064 554 1060 q 568 1081 558 1075 q 586 1088 578 1088 q 594 1082 594 1088 q 613 1031 594 1050 q 663 1013 631 1013 q 721 1028 690 1013 q 779 1081 751 1043 l 803 1081 q 796 1068 803 1079 q 740 1008 778 1040 q 642 975 703 975 z "},"Ǐ":{"ha":672,"x_min":-6,"x_max":814,"o":"m 258 -72 q 124 -39 185 -72 q 29 53 64 -6 q -6 186 -6 113 q 25 315 -6 254 q 109 413 56 375 q 231 450 163 450 q 314 426 278 450 q 372 361 350 401 q 393 274 393 321 q 354 175 393 214 q 254 136 315 136 q 174 171 200 136 q 149 253 149 206 q 167 294 149 294 q 171 288 171 294 q 166 265 167 278 q 165 247 165 251 q 188 178 165 208 q 249 149 211 149 q 335 185 301 149 q 369 275 369 222 q 351 353 369 317 q 303 411 333 389 q 232 433 272 433 q 133 401 174 433 q 72 319 93 369 q 50 211 50 268 q 103 19 50 93 q 265 -54 156 -54 q 388 -17 339 -54 q 465 83 436 19 q 511 231 494 147 q 536 407 528 314 q 486 404 525 404 q 401 428 440 404 q 336 494 361 451 q 311 592 311 536 q 363 751 311 686 q 497 849 414 815 q 675 883 581 883 q 794 863 747 883 q 797 857 797 860 q 779 850 797 851 q 724 822 751 847 q 676 760 697 796 q 643 690 654 724 q 696 583 696 650 q 601 425 696 469 q 561 174 599 288 q 449 -6 524 61 q 258 -72 374 -72 m 503 419 q 522 420 511 419 q 538 422 533 421 l 542 496 q 558 588 544 539 q 593 693 571 638 q 569 696 585 696 q 519 676 540 696 q 499 628 499 657 q 511 588 499 600 q 519 581 519 583 q 513 575 519 575 q 491 592 499 575 q 483 626 483 608 q 512 687 483 663 q 576 711 540 711 q 600 708 592 711 q 750 856 665 854 q 665 865 713 865 q 522 837 589 865 q 411 756 456 808 q 356 629 367 703 q 353 607 354 619 q 353 579 353 594 q 394 460 353 500 q 503 419 435 419 m 601 446 q 661 504 644 469 q 678 582 678 539 q 665 638 678 614 q 638 676 653 661 q 613 567 621 625 q 601 446 604 510 m 642 968 q 633 972 638 968 q 610 996 626 979 q 577 1032 594 1013 q 548 1066 560 1051 q 536 1082 536 1081 q 547 1086 539 1086 l 661 1021 l 785 1086 l 814 1086 l 653 972 q 642 968 647 968 z "},"Î":{"ha":672,"x_min":-6,"x_max":797,"o":"m 258 -72 q 124 -39 185 -72 q 29 53 64 -6 q -6 186 -6 113 q 25 315 -6 254 q 109 413 56 375 q 231 450 163 450 q 314 426 278 450 q 372 361 350 401 q 393 274 393 321 q 354 175 393 214 q 254 136 315 136 q 174 171 200 136 q 149 253 149 206 q 167 294 149 294 q 171 288 171 294 q 166 265 167 278 q 165 247 165 251 q 188 178 165 208 q 249 149 211 149 q 335 185 301 149 q 369 275 369 222 q 351 353 369 317 q 303 411 333 389 q 232 433 272 433 q 133 401 174 433 q 72 319 93 369 q 50 211 50 268 q 103 19 50 93 q 265 -54 156 -54 q 388 -17 339 -54 q 465 83 436 19 q 511 231 494 147 q 536 407 528 314 q 486 404 525 404 q 401 428 440 404 q 336 494 361 451 q 311 592 311 536 q 363 751 311 686 q 497 849 414 815 q 675 883 581 883 q 794 863 747 883 q 797 857 797 860 q 779 850 797 851 q 724 822 751 847 q 676 760 697 796 q 643 690 654 724 q 696 583 696 650 q 601 425 696 469 q 561 174 599 288 q 449 -6 524 61 q 258 -72 374 -72 m 503 419 q 522 420 511 419 q 538 422 533 421 l 542 496 q 558 588 544 539 q 593 693 571 638 q 569 696 585 696 q 519 676 540 696 q 499 628 499 657 q 511 588 499 600 q 519 581 519 583 q 513 575 519 575 q 491 592 499 575 q 483 626 483 608 q 512 687 483 663 q 576 711 540 711 q 600 708 592 711 q 750 856 665 854 q 665 865 713 865 q 522 837 589 865 q 411 756 456 808 q 356 629 367 703 q 353 607 354 619 q 353 579 353 594 q 394 460 353 500 q 503 419 435 419 m 601 446 q 661 504 644 469 q 678 582 678 539 q 665 638 678 614 q 638 676 653 661 q 613 567 621 625 q 601 446 604 510 m 496 974 l 657 1088 q 668 1092 664 1092 q 676 1088 672 1092 q 699 1064 683 1081 q 733 1028 715 1047 q 762 994 750 1008 q 774 978 774 979 q 763 974 772 974 l 649 1039 l 525 974 l 496 974 z "},"Ȉ":{"ha":672,"x_min":-6,"x_max":797,"o":"m 258 -72 q 124 -39 185 -72 q 29 53 64 -6 q -6 186 -6 113 q 25 315 -6 254 q 109 413 56 375 q 231 450 163 450 q 314 426 278 450 q 372 361 350 401 q 393 274 393 321 q 354 175 393 214 q 254 136 315 136 q 174 171 200 136 q 149 253 149 206 q 167 294 149 294 q 171 288 171 294 q 166 265 167 278 q 165 247 165 251 q 188 178 165 208 q 249 149 211 149 q 335 185 301 149 q 369 275 369 222 q 351 353 369 317 q 303 411 333 389 q 232 433 272 433 q 133 401 174 433 q 72 319 93 369 q 50 211 50 268 q 103 19 50 93 q 265 -54 156 -54 q 388 -17 339 -54 q 465 83 436 19 q 511 231 494 147 q 536 407 528 314 q 486 404 525 404 q 401 428 440 404 q 336 494 361 451 q 311 592 311 536 q 363 751 311 686 q 497 849 414 815 q 675 883 581 883 q 794 863 747 883 q 797 857 797 860 q 779 850 797 851 q 724 822 751 847 q 676 760 697 796 q 643 690 654 724 q 696 583 696 650 q 601 425 696 469 q 561 174 599 288 q 449 -6 524 61 q 258 -72 374 -72 m 503 419 q 522 420 511 419 q 538 422 533 421 l 542 496 q 558 588 544 539 q 593 693 571 638 q 569 696 585 696 q 519 676 540 696 q 499 628 499 657 q 511 588 499 600 q 519 581 519 583 q 513 575 519 575 q 491 592 499 575 q 483 626 483 608 q 512 687 483 663 q 576 711 540 711 q 600 708 592 711 q 750 856 665 854 q 665 865 713 865 q 522 837 589 865 q 411 756 456 808 q 356 629 367 703 q 353 607 354 619 q 353 579 353 594 q 394 460 353 500 q 503 419 435 419 m 601 446 q 661 504 644 469 q 678 582 678 539 q 665 638 678 614 q 638 676 653 661 q 613 567 621 625 q 601 446 604 510 m 685 974 l 536 1088 q 553 1102 539 1097 q 576 1106 568 1107 q 603 1085 583 1104 q 648 1040 624 1065 q 689 995 672 1015 q 706 974 706 975 q 685 974 706 971 m 600 974 l 444 1078 q 460 1093 446 1088 q 482 1097 474 1099 q 510 1079 489 1097 q 558 1038 532 1061 q 602 995 583 1014 q 621 975 621 976 q 600 974 621 971 z "},"Ï":{"ha":672,"x_min":-6,"x_max":797,"o":"m 258 -72 q 124 -39 185 -72 q 29 53 64 -6 q -6 186 -6 113 q 25 315 -6 254 q 109 413 56 375 q 231 450 163 450 q 314 426 278 450 q 372 361 350 401 q 393 274 393 321 q 354 175 393 214 q 254 136 315 136 q 174 171 200 136 q 149 253 149 206 q 167 294 149 294 q 171 288 171 294 q 166 265 167 278 q 165 247 165 251 q 188 178 165 208 q 249 149 211 149 q 335 185 301 149 q 369 275 369 222 q 351 353 369 317 q 303 411 333 389 q 232 433 272 433 q 133 401 174 433 q 72 319 93 369 q 50 211 50 268 q 103 19 50 93 q 265 -54 156 -54 q 388 -17 339 -54 q 465 83 436 19 q 511 231 494 147 q 536 407 528 314 q 486 404 525 404 q 401 428 440 404 q 336 494 361 451 q 311 592 311 536 q 363 751 311 686 q 497 849 414 815 q 675 883 581 883 q 794 863 747 883 q 797 857 797 860 q 779 850 797 851 q 724 822 751 847 q 676 760 697 796 q 643 690 654 724 q 696 583 696 650 q 601 425 696 469 q 561 174 599 288 q 449 -6 524 61 q 258 -72 374 -72 m 503 419 q 522 420 511 419 q 538 422 533 421 l 542 496 q 558 588 544 539 q 593 693 571 638 q 569 696 585 696 q 519 676 540 696 q 499 628 499 657 q 511 588 499 600 q 519 581 519 583 q 513 575 519 575 q 491 592 499 575 q 483 626 483 608 q 512 687 483 663 q 576 711 540 711 q 600 708 592 711 q 750 856 665 854 q 665 865 713 865 q 522 837 589 865 q 411 756 456 808 q 356 629 367 703 q 353 607 354 619 q 353 579 353 594 q 394 460 353 500 q 503 419 435 419 m 601 446 q 661 504 644 469 q 678 582 678 539 q 665 638 678 614 q 638 676 653 661 q 613 567 621 625 q 601 446 604 510 m 713 988 q 683 998 693 988 q 674 1022 674 1008 q 689 1059 674 1043 q 724 1075 704 1075 q 752 1065 742 1075 q 763 1039 763 1054 q 747 1003 763 1019 q 713 988 731 988 m 561 988 q 532 998 542 988 q 522 1022 522 1008 q 538 1059 522 1043 q 572 1075 553 1075 q 601 1065 590 1075 q 611 1039 611 1054 q 595 1003 611 1019 q 561 988 579 988 z "},"İ":{"ha":672,"x_min":-6,"x_max":797,"o":"m 258 -72 q 124 -39 185 -72 q 29 53 64 -6 q -6 186 -6 113 q 25 315 -6 254 q 109 413 56 375 q 231 450 163 450 q 314 426 278 450 q 372 361 350 401 q 393 274 393 321 q 354 175 393 214 q 254 136 315 136 q 174 171 200 136 q 149 253 149 206 q 167 294 149 294 q 171 288 171 294 q 166 265 167 278 q 165 247 165 251 q 188 178 165 208 q 249 149 211 149 q 335 185 301 149 q 369 275 369 222 q 351 353 369 317 q 303 411 333 389 q 232 433 272 433 q 133 401 174 433 q 72 319 93 369 q 50 211 50 268 q 103 19 50 93 q 265 -54 156 -54 q 388 -17 339 -54 q 465 83 436 19 q 511 231 494 147 q 536 407 528 314 q 486 404 525 404 q 401 428 440 404 q 336 494 361 451 q 311 592 311 536 q 363 751 311 686 q 497 849 414 815 q 675 883 581 883 q 794 863 747 883 q 797 857 797 860 q 779 850 797 851 q 724 822 751 847 q 676 760 697 796 q 643 690 654 724 q 696 583 696 650 q 601 425 696 469 q 561 174 599 288 q 449 -6 524 61 q 258 -72 374 -72 m 503 419 q 522 420 511 419 q 538 422 533 421 l 542 496 q 558 588 544 539 q 593 693 571 638 q 569 696 585 696 q 519 676 540 696 q 499 628 499 657 q 511 588 499 600 q 519 581 519 583 q 513 575 519 575 q 491 592 499 575 q 483 626 483 608 q 512 687 483 663 q 576 711 540 711 q 600 708 592 711 q 750 856 665 854 q 665 865 713 865 q 522 837 589 865 q 411 756 456 808 q 356 629 367 703 q 353 607 354 619 q 353 579 353 594 q 394 460 353 500 q 503 419 435 419 m 601 446 q 661 504 644 469 q 678 582 678 539 q 665 638 678 614 q 638 676 653 661 q 613 567 621 625 q 601 446 604 510 m 639 986 q 609 998 621 986 q 597 1028 597 1010 q 612 1061 597 1047 q 646 1075 626 1075 q 674 1063 663 1075 q 686 1033 686 1051 q 672 1000 686 1014 q 639 986 658 986 z "},"Ị":{"ha":672,"x_min":-6,"x_max":797,"o":"m 258 -72 q 124 -39 185 -72 q 29 53 64 -6 q -6 186 -6 113 q 25 315 -6 254 q 109 413 56 375 q 231 450 163 450 q 314 426 278 450 q 372 361 350 401 q 393 274 393 321 q 354 175 393 214 q 254 136 315 136 q 174 171 200 136 q 149 253 149 206 q 167 294 149 294 q 171 288 171 294 q 166 265 167 278 q 165 247 165 251 q 188 178 165 208 q 249 149 211 149 q 335 185 301 149 q 369 275 369 222 q 351 353 369 317 q 303 411 333 389 q 232 433 272 433 q 133 401 174 433 q 72 319 93 369 q 50 211 50 268 q 103 19 50 93 q 265 -54 156 -54 q 388 -17 339 -54 q 465 83 436 19 q 511 231 494 147 q 536 407 528 314 q 486 404 525 404 q 401 428 440 404 q 336 494 361 451 q 311 592 311 536 q 363 751 311 686 q 497 849 414 815 q 675 883 581 883 q 794 863 747 883 q 797 857 797 860 q 779 850 797 851 q 724 822 751 847 q 676 760 697 796 q 643 690 654 724 q 696 583 696 650 q 601 425 696 469 q 561 174 599 288 q 449 -6 524 61 q 258 -72 374 -72 m 503 419 q 522 420 511 419 q 538 422 533 421 l 542 496 q 558 588 544 539 q 593 693 571 638 q 569 696 585 696 q 519 676 540 696 q 499 628 499 657 q 511 588 499 600 q 519 581 519 583 q 513 575 519 575 q 491 592 499 575 q 483 626 483 608 q 512 687 483 663 q 576 711 540 711 q 600 708 592 711 q 750 856 665 854 q 665 865 713 865 q 522 837 589 865 q 411 756 456 808 q 356 629 367 703 q 353 607 354 619 q 353 579 353 594 q 394 460 353 500 q 503 419 435 419 m 601 446 q 661 504 644 469 q 678 582 678 539 q 665 638 678 614 q 638 676 653 661 q 613 567 621 625 q 601 446 604 510 m 256 -246 q 226 -234 238 -246 q 214 -204 214 -222 q 228 -171 214 -185 q 263 -157 243 -157 q 291 -169 279 -157 q 303 -199 303 -181 q 289 -232 303 -218 q 256 -246 275 -246 z "},"Ì":{"ha":672,"x_min":-6,"x_max":797,"o":"m 258 -72 q 124 -39 185 -72 q 29 53 64 -6 q -6 186 -6 113 q 25 315 -6 254 q 109 413 56 375 q 231 450 163 450 q 314 426 278 450 q 372 361 350 401 q 393 274 393 321 q 354 175 393 214 q 254 136 315 136 q 174 171 200 136 q 149 253 149 206 q 167 294 149 294 q 171 288 171 294 q 166 265 167 278 q 165 247 165 251 q 188 178 165 208 q 249 149 211 149 q 335 185 301 149 q 369 275 369 222 q 351 353 369 317 q 303 411 333 389 q 232 433 272 433 q 133 401 174 433 q 72 319 93 369 q 50 211 50 268 q 103 19 50 93 q 265 -54 156 -54 q 388 -17 339 -54 q 465 83 436 19 q 511 231 494 147 q 536 407 528 314 q 486 404 525 404 q 401 428 440 404 q 336 494 361 451 q 311 592 311 536 q 363 751 311 686 q 497 849 414 815 q 675 883 581 883 q 794 863 747 883 q 797 857 797 860 q 779 850 797 851 q 724 822 751 847 q 676 760 697 796 q 643 690 654 724 q 696 583 696 650 q 601 425 696 469 q 561 174 599 288 q 449 -6 524 61 q 258 -72 374 -72 m 503 419 q 522 420 511 419 q 538 422 533 421 l 542 496 q 558 588 544 539 q 593 693 571 638 q 569 696 585 696 q 519 676 540 696 q 499 628 499 657 q 511 588 499 600 q 519 581 519 583 q 513 575 519 575 q 491 592 499 575 q 483 626 483 608 q 512 687 483 663 q 576 711 540 711 q 600 708 592 711 q 750 856 665 854 q 665 865 713 865 q 522 837 589 865 q 411 756 456 808 q 356 629 367 703 q 353 607 354 619 q 353 579 353 594 q 394 460 353 500 q 503 419 435 419 m 601 446 q 661 504 644 469 q 678 582 678 539 q 665 638 678 614 q 638 676 653 661 q 613 567 621 625 q 601 446 604 510 m 642 974 l 478 1064 q 492 1081 478 1074 q 514 1088 506 1088 q 544 1072 521 1088 q 594 1034 567 1056 q 642 996 622 1013 q 663 978 663 979 q 642 974 663 974 z "},"Ỉ":{"ha":672,"x_min":-6,"x_max":797,"o":"m 258 -72 q 124 -39 185 -72 q 29 53 64 -6 q -6 186 -6 113 q 25 315 -6 254 q 109 413 56 375 q 231 450 163 450 q 314 426 278 450 q 372 361 350 401 q 393 274 393 321 q 354 175 393 214 q 254 136 315 136 q 174 171 200 136 q 149 253 149 206 q 167 294 149 294 q 171 288 171 294 q 166 265 167 278 q 165 247 165 251 q 188 178 165 208 q 249 149 211 149 q 335 185 301 149 q 369 275 369 222 q 351 353 369 317 q 303 411 333 389 q 232 433 272 433 q 133 401 174 433 q 72 319 93 369 q 50 211 50 268 q 103 19 50 93 q 265 -54 156 -54 q 388 -17 339 -54 q 465 83 436 19 q 511 231 494 147 q 536 407 528 314 q 486 404 525 404 q 401 428 440 404 q 336 494 361 451 q 311 592 311 536 q 363 751 311 686 q 497 849 414 815 q 675 883 581 883 q 794 863 747 883 q 797 857 797 860 q 779 850 797 851 q 724 822 751 847 q 676 760 697 796 q 643 690 654 724 q 696 583 696 650 q 601 425 696 469 q 561 174 599 288 q 449 -6 524 61 q 258 -72 374 -72 m 503 419 q 522 420 511 419 q 538 422 533 421 l 542 496 q 558 588 544 539 q 593 693 571 638 q 569 696 585 696 q 519 676 540 696 q 499 628 499 657 q 511 588 499 600 q 519 581 519 583 q 513 575 519 575 q 491 592 499 575 q 483 626 483 608 q 512 687 483 663 q 576 711 540 711 q 600 708 592 711 q 750 856 665 854 q 665 865 713 865 q 522 837 589 865 q 411 756 456 808 q 356 629 367 703 q 353 607 354 619 q 353 579 353 594 q 394 460 353 500 q 503 419 435 419 m 601 446 q 661 504 644 469 q 678 582 678 539 q 665 638 678 614 q 638 676 653 661 q 613 567 621 625 q 601 446 604 510 m 633 974 q 664 1019 644 1001 q 683 1067 683 1036 q 676 1087 683 1078 q 653 1096 668 1096 q 615 1089 628 1096 q 594 1076 601 1082 l 589 1090 q 628 1119 601 1107 q 682 1132 654 1132 q 721 1118 708 1132 q 733 1083 733 1104 q 719 1037 733 1054 q 685 1006 704 1019 q 650 974 665 993 l 633 974 z "},"Ȋ":{"ha":672,"x_min":-6,"x_max":797,"o":"m 258 -72 q 124 -39 185 -72 q 29 53 64 -6 q -6 186 -6 113 q 25 315 -6 254 q 109 413 56 375 q 231 450 163 450 q 314 426 278 450 q 372 361 350 401 q 393 274 393 321 q 354 175 393 214 q 254 136 315 136 q 174 171 200 136 q 149 253 149 206 q 167 294 149 294 q 171 288 171 294 q 166 265 167 278 q 165 247 165 251 q 188 178 165 208 q 249 149 211 149 q 335 185 301 149 q 369 275 369 222 q 351 353 369 317 q 303 411 333 389 q 232 433 272 433 q 133 401 174 433 q 72 319 93 369 q 50 211 50 268 q 103 19 50 93 q 265 -54 156 -54 q 388 -17 339 -54 q 465 83 436 19 q 511 231 494 147 q 536 407 528 314 q 486 404 525 404 q 401 428 440 404 q 336 494 361 451 q 311 592 311 536 q 363 751 311 686 q 497 849 414 815 q 675 883 581 883 q 794 863 747 883 q 797 857 797 860 q 779 850 797 851 q 724 822 751 847 q 676 760 697 796 q 643 690 654 724 q 696 583 696 650 q 601 425 696 469 q 561 174 599 288 q 449 -6 524 61 q 258 -72 374 -72 m 503 419 q 522 420 511 419 q 538 422 533 421 l 542 496 q 558 588 544 539 q 593 693 571 638 q 569 696 585 696 q 519 676 540 696 q 499 628 499 657 q 511 588 499 600 q 519 581 519 583 q 513 575 519 575 q 491 592 499 575 q 483 626 483 608 q 512 687 483 663 q 576 711 540 711 q 600 708 592 711 q 750 856 665 854 q 665 865 713 865 q 522 837 589 865 q 411 756 456 808 q 356 629 367 703 q 353 607 354 619 q 353 579 353 594 q 394 460 353 500 q 503 419 435 419 m 601 446 q 661 504 644 469 q 678 582 678 539 q 665 638 678 614 q 638 676 653 661 q 613 567 621 625 q 601 446 604 510 m 733 971 q 723 1024 733 997 q 671 1050 713 1050 q 599 1035 638 1050 q 536 988 560 1019 q 526 976 529 978 q 519 974 524 974 q 508 979 508 974 q 515 992 508 981 q 552 1034 529 1011 q 609 1073 575 1057 q 689 1089 643 1089 q 749 1069 722 1089 q 776 1010 776 1049 q 776 1000 776 1006 q 775 990 776 994 q 769 980 774 985 q 760 971 765 975 q 743 966 753 968 q 733 971 733 964 z "},"Ī":{"ha":672,"x_min":-6,"x_max":797,"o":"m 258 -72 q 124 -39 185 -72 q 29 53 64 -6 q -6 186 -6 113 q 25 315 -6 254 q 109 413 56 375 q 231 450 163 450 q 314 426 278 450 q 372 361 350 401 q 393 274 393 321 q 354 175 393 214 q 254 136 315 136 q 174 171 200 136 q 149 253 149 206 q 167 294 149 294 q 171 288 171 294 q 166 265 167 278 q 165 247 165 251 q 188 178 165 208 q 249 149 211 149 q 335 185 301 149 q 369 275 369 222 q 351 353 369 317 q 303 411 333 389 q 232 433 272 433 q 133 401 174 433 q 72 319 93 369 q 50 211 50 268 q 103 19 50 93 q 265 -54 156 -54 q 388 -17 339 -54 q 465 83 436 19 q 511 231 494 147 q 536 407 528 314 q 486 404 525 404 q 401 428 440 404 q 336 494 361 451 q 311 592 311 536 q 363 751 311 686 q 497 849 414 815 q 675 883 581 883 q 794 863 747 883 q 797 857 797 860 q 779 850 797 851 q 724 822 751 847 q 676 760 697 796 q 643 690 654 724 q 696 583 696 650 q 601 425 696 469 q 561 174 599 288 q 449 -6 524 61 q 258 -72 374 -72 m 503 419 q 522 420 511 419 q 538 422 533 421 l 542 496 q 558 588 544 539 q 593 693 571 638 q 569 696 585 696 q 519 676 540 696 q 499 628 499 657 q 511 588 499 600 q 519 581 519 583 q 513 575 519 575 q 491 592 499 575 q 483 626 483 608 q 512 687 483 663 q 576 711 540 711 q 600 708 592 711 q 750 856 665 854 q 665 865 713 865 q 522 837 589 865 q 411 756 456 808 q 356 629 367 703 q 353 607 354 619 q 353 579 353 594 q 394 460 353 500 q 503 419 435 419 m 601 446 q 661 504 644 469 q 678 582 678 539 q 665 638 678 614 q 638 676 653 661 q 613 567 621 625 q 601 446 604 510 m 515 1011 l 518 1040 l 769 1040 l 767 1011 l 515 1011 z "},"Į":{"ha":672,"x_min":-6,"x_max":797,"o":"m 258 -72 q 124 -39 185 -72 q 29 53 64 -6 q -6 186 -6 113 q 25 315 -6 254 q 109 413 56 375 q 231 450 163 450 q 314 426 278 450 q 372 361 350 401 q 393 274 393 321 q 354 175 393 214 q 254 136 315 136 q 174 171 200 136 q 149 253 149 206 q 167 294 149 294 q 171 288 171 294 q 166 265 167 278 q 165 247 165 251 q 188 178 165 208 q 249 149 211 149 q 335 185 301 149 q 369 275 369 222 q 351 353 369 317 q 303 411 333 389 q 232 433 272 433 q 133 401 174 433 q 72 319 93 369 q 50 211 50 268 q 103 19 50 93 q 265 -54 156 -54 q 388 -17 339 -54 q 465 83 436 19 q 511 231 494 147 q 536 407 528 314 q 486 404 525 404 q 401 428 440 404 q 336 494 361 451 q 311 592 311 536 q 363 751 311 686 q 497 849 414 815 q 675 883 581 883 q 794 863 747 883 q 797 857 797 860 q 779 850 797 851 q 724 822 751 847 q 676 760 697 796 q 643 690 654 724 q 696 583 696 650 q 601 425 696 469 q 561 174 599 288 q 449 -6 524 61 q 258 -72 374 -72 m 503 419 q 522 420 511 419 q 538 422 533 421 l 542 496 q 558 588 544 539 q 593 693 571 638 q 569 696 585 696 q 519 676 540 696 q 499 628 499 657 q 511 588 499 600 q 519 581 519 583 q 513 575 519 575 q 491 592 499 575 q 483 626 483 608 q 512 687 483 663 q 576 711 540 711 q 600 708 592 711 q 750 856 665 854 q 665 865 713 865 q 522 837 589 865 q 411 756 456 808 q 356 629 367 703 q 353 607 354 619 q 353 579 353 594 q 394 460 353 500 q 503 419 435 419 m 601 446 q 661 504 644 469 q 678 582 678 539 q 665 638 678 614 q 638 676 653 661 q 613 567 621 625 q 601 446 604 510 m 404 -211 q 349 -195 371 -211 q 328 -149 328 -179 q 354 -83 328 -121 q 421 -10 381 -46 q 431 -2 425 -7 q 442 3 438 3 q 453 0 449 3 q 403 -67 424 -28 q 383 -137 383 -106 q 396 -170 383 -161 q 426 -179 408 -179 q 472 -171 447 -179 q 508 -153 496 -162 l 508 -175 q 455 -202 482 -193 q 404 -211 428 -211 z "},"Ĩ":{"ha":672,"x_min":-6,"x_max":797,"o":"m 258 -72 q 124 -39 185 -72 q 29 53 64 -6 q -6 186 -6 113 q 25 315 -6 254 q 109 413 56 375 q 231 450 163 450 q 314 426 278 450 q 372 361 350 401 q 393 274 393 321 q 354 175 393 214 q 254 136 315 136 q 174 171 200 136 q 149 253 149 206 q 167 294 149 294 q 171 288 171 294 q 166 265 167 278 q 165 247 165 251 q 188 178 165 208 q 249 149 211 149 q 335 185 301 149 q 369 275 369 222 q 351 353 369 317 q 303 411 333 389 q 232 433 272 433 q 133 401 174 433 q 72 319 93 369 q 50 211 50 268 q 103 19 50 93 q 265 -54 156 -54 q 388 -17 339 -54 q 465 83 436 19 q 511 231 494 147 q 536 407 528 314 q 486 404 525 404 q 401 428 440 404 q 336 494 361 451 q 311 592 311 536 q 363 751 311 686 q 497 849 414 815 q 675 883 581 883 q 794 863 747 883 q 797 857 797 860 q 779 850 797 851 q 724 822 751 847 q 676 760 697 796 q 643 690 654 724 q 696 583 696 650 q 601 425 696 469 q 561 174 599 288 q 449 -6 524 61 q 258 -72 374 -72 m 503 419 q 522 420 511 419 q 538 422 533 421 l 542 496 q 558 588 544 539 q 593 693 571 638 q 569 696 585 696 q 519 676 540 696 q 499 628 499 657 q 511 588 499 600 q 519 581 519 583 q 513 575 519 575 q 491 592 499 575 q 483 626 483 608 q 512 687 483 663 q 576 711 540 711 q 600 708 592 711 q 750 856 665 854 q 665 865 713 865 q 522 837 589 865 q 411 756 456 808 q 356 629 367 703 q 353 607 354 619 q 353 579 353 594 q 394 460 353 500 q 503 419 435 419 m 601 446 q 661 504 644 469 q 678 582 678 539 q 665 638 678 614 q 638 676 653 661 q 613 567 621 625 q 601 446 604 510 m 696 985 q 653 996 675 985 q 610 1018 631 1007 q 572 1029 590 1029 q 535 1015 546 1029 q 518 992 525 1001 l 504 992 q 537 1047 511 1019 q 593 1074 563 1074 q 629 1063 611 1074 q 667 1042 647 1053 q 710 1032 688 1032 q 753 1047 742 1032 q 768 1068 764 1061 l 779 1068 q 752 1011 772 1038 q 696 985 732 985 z "},"J":{"ha":675,"x_min":-150,"x_max":706,"o":"m 147 -378 q -3 -337 64 -378 q -110 -226 -71 -296 q -150 -72 -150 -157 q -116 75 -150 8 q -21 182 -82 142 q 118 222 40 222 q 221 194 176 222 q 290 119 265 167 q 315 13 315 71 q 268 -119 315 -69 q 147 -168 221 -168 q 94 -156 113 -168 q 76 -135 76 -144 q 85 -122 76 -122 q 111 -146 94 -140 q 146 -151 128 -151 q 253 -105 214 -151 q 292 13 292 -58 q 270 109 292 65 q 210 178 249 153 q 118 204 171 204 q -3 168 49 204 q -84 72 -56 132 q -112 -62 -112 11 q -79 -207 -112 -140 q 13 -315 -46 -274 q 149 -356 72 -356 q 309 -310 240 -356 q 425 -185 378 -264 q 501 -5 472 -107 q 544 210 531 97 q 557 436 557 324 q 590 708 557 603 q 681 839 622 813 q 658 843 675 840 q 617 846 640 846 q 476 815 542 846 q 369 727 410 783 q 328 596 328 671 q 344 526 328 557 q 400 494 360 494 q 465 526 438 494 q 492 596 492 557 q 489 623 492 608 q 483 640 486 638 q 481 647 481 646 q 489 656 481 656 q 503 641 496 656 q 510 594 510 626 q 478 513 510 547 q 397 478 446 478 q 322 510 346 478 q 297 588 297 542 q 343 727 297 667 q 463 822 389 788 q 619 857 536 857 q 668 851 640 857 q 700 846 696 846 l 704 846 q 706 842 706 844 q 696 833 706 840 q 676 810 686 825 q 628 699 639 754 q 617 571 617 643 q 619 466 617 524 q 621 336 621 408 q 593 69 621 197 q 508 -160 565 -60 q 360 -319 450 -261 q 147 -378 271 -378 z "},"Ĵ":{"ha":675,"x_min":-150,"x_max":738,"o":"m 147 -378 q -3 -337 64 -378 q -110 -226 -71 -296 q -150 -72 -150 -157 q -116 75 -150 8 q -21 182 -82 142 q 118 222 40 222 q 221 194 176 222 q 290 119 265 167 q 315 13 315 71 q 268 -119 315 -69 q 147 -168 221 -168 q 94 -156 113 -168 q 76 -135 76 -144 q 85 -122 76 -122 q 111 -146 94 -140 q 146 -151 128 -151 q 253 -105 214 -151 q 292 13 292 -58 q 270 109 292 65 q 210 178 249 153 q 118 204 171 204 q -3 168 49 204 q -84 72 -56 132 q -112 -62 -112 11 q -79 -207 -112 -140 q 13 -315 -46 -274 q 149 -356 72 -356 q 309 -310 240 -356 q 425 -185 378 -264 q 501 -5 472 -107 q 544 210 531 97 q 557 436 557 324 q 590 708 557 603 q 681 839 622 813 q 658 843 675 840 q 617 846 640 846 q 476 815 542 846 q 369 727 410 783 q 328 596 328 671 q 344 526 328 557 q 400 494 360 494 q 465 526 438 494 q 492 596 492 557 q 489 623 492 608 q 483 640 486 638 q 481 647 481 646 q 489 656 481 656 q 503 641 496 656 q 510 594 510 626 q 478 513 510 547 q 397 478 446 478 q 322 510 346 478 q 297 588 297 542 q 343 727 297 667 q 463 822 389 788 q 619 857 536 857 q 668 851 640 857 q 700 846 696 846 l 704 846 q 706 842 706 844 q 696 833 706 840 q 676 810 686 825 q 628 699 639 754 q 617 571 617 643 q 619 466 617 524 q 621 336 621 408 q 593 69 621 197 q 508 -160 565 -60 q 360 -319 450 -261 q 147 -378 271 -378 m 460 942 l 621 1056 q 632 1060 628 1060 q 640 1056 636 1060 q 663 1032 647 1049 q 697 996 679 1015 q 726 962 714 976 q 738 946 738 947 q 726 942 736 942 l 613 1007 l 489 942 l 460 942 z "},"K":{"ha":1228,"x_min":13,"x_max":1388,"o":"m 319 -158 q 166 -121 236 -158 q 54 -17 96 -83 q 13 133 13 49 q 49 272 13 211 q 149 367 86 332 q 289 403 213 403 q 432 348 375 403 q 489 207 489 293 q 441 83 489 129 q 319 36 393 36 q 265 49 283 36 q 247 76 247 63 q 251 82 247 82 q 256 78 254 82 q 267 67 258 74 q 286 56 274 61 q 319 50 299 50 q 429 94 389 50 q 469 207 469 138 q 419 336 469 285 q 289 388 368 388 q 164 354 218 388 q 79 263 110 321 q 49 133 49 206 q 85 -4 49 58 q 181 -103 121 -67 q 317 -140 242 -140 q 513 -90 432 -140 q 644 49 593 -39 q 719 251 696 138 q 743 490 743 364 q 753 683 743 607 q 790 803 764 758 q 860 872 815 849 l 853 872 q 732 856 793 872 q 619 810 671 840 q 535 738 567 781 q 503 643 503 696 q 526 585 503 608 q 585 563 550 563 q 647 587 621 563 q 672 650 672 611 q 669 672 672 658 q 665 686 665 685 q 674 693 665 693 q 686 674 682 693 q 690 647 690 656 q 656 572 690 601 q 574 542 621 542 q 500 571 528 542 q 472 646 472 600 q 510 746 472 701 q 608 822 547 790 q 736 871 668 854 q 864 888 804 888 q 886 888 874 888 q 899 885 899 888 l 879 864 q 819 753 839 821 q 800 596 800 686 q 801 562 800 589 q 804 501 803 535 q 807 440 806 467 q 808 404 808 413 q 944 443 882 404 q 1056 544 1007 482 q 1138 679 1106 607 q 1190 778 1165 735 q 1243 846 1214 821 q 1313 871 1272 871 q 1360 858 1333 871 q 1388 825 1388 844 q 1381 817 1388 817 l 1364 835 q 1324 853 1346 853 q 1243 764 1278 853 q 1213 694 1229 728 q 1179 632 1197 661 q 1092 521 1143 572 q 979 436 1040 469 q 853 396 918 403 q 957 360 919 393 q 1018 281 994 328 q 1065 183 1042 233 q 1108 103 1083 146 q 1162 24 1133 61 q 1219 -37 1190 -14 q 1275 -60 1249 -60 q 1319 -47 1306 -60 q 1335 -10 1333 -35 q 1336 -1 1336 -6 q 1338 7 1336 3 q 1346 21 1339 21 q 1358 -15 1358 21 q 1257 -78 1358 -78 q 1136 -46 1185 -78 q 1056 42 1088 -14 q 997 169 1024 99 q 918 321 963 264 q 808 392 874 378 q 748 99 804 222 q 585 -92 692 -25 q 319 -158 478 -158 z "},"Ķ":{"ha":1228,"x_min":13,"x_max":1388,"o":"m 319 -158 q 166 -121 236 -158 q 54 -17 96 -83 q 13 133 13 49 q 49 272 13 211 q 149 367 86 332 q 289 403 213 403 q 432 348 375 403 q 489 207 489 293 q 441 83 489 129 q 319 36 393 36 q 265 49 283 36 q 247 76 247 63 q 251 82 247 82 q 256 78 254 82 q 267 67 258 74 q 286 56 274 61 q 319 50 299 50 q 429 94 389 50 q 469 207 469 138 q 419 336 469 285 q 289 388 368 388 q 164 354 218 388 q 79 263 110 321 q 49 133 49 206 q 85 -4 49 58 q 181 -103 121 -67 q 317 -140 242 -140 q 513 -90 432 -140 q 644 49 593 -39 q 719 251 696 138 q 743 490 743 364 q 753 683 743 607 q 790 803 764 758 q 860 872 815 849 l 853 872 q 732 856 793 872 q 619 810 671 840 q 535 738 567 781 q 503 643 503 696 q 526 585 503 608 q 585 563 550 563 q 647 587 621 563 q 672 650 672 611 q 669 672 672 658 q 665 686 665 685 q 674 693 665 693 q 686 674 682 693 q 690 647 690 656 q 656 572 690 601 q 574 542 621 542 q 500 571 528 542 q 472 646 472 600 q 510 746 472 701 q 608 822 547 790 q 736 871 668 854 q 864 888 804 888 q 886 888 874 888 q 899 885 899 888 l 879 864 q 819 753 839 821 q 800 596 800 686 q 801 562 800 589 q 804 501 803 535 q 807 440 806 467 q 808 404 808 413 q 944 443 882 404 q 1056 544 1007 482 q 1138 679 1106 607 q 1190 778 1165 735 q 1243 846 1214 821 q 1313 871 1272 871 q 1360 858 1333 871 q 1388 825 1388 844 q 1381 817 1388 817 l 1364 835 q 1324 853 1346 853 q 1243 764 1278 853 q 1213 694 1229 728 q 1179 632 1197 661 q 1092 521 1143 572 q 979 436 1040 469 q 853 396 918 403 q 957 360 919 393 q 1018 281 994 328 q 1065 183 1042 233 q 1108 103 1083 146 q 1162 24 1133 61 q 1219 -37 1190 -14 q 1275 -60 1249 -60 q 1319 -47 1306 -60 q 1335 -10 1333 -35 q 1336 -1 1336 -6 q 1338 7 1336 3 q 1346 21 1339 21 q 1358 -15 1358 21 q 1257 -78 1358 -78 q 1136 -46 1185 -78 q 1056 42 1088 -14 q 997 169 1024 99 q 918 321 963 264 q 808 392 874 378 q 748 99 804 222 q 585 -92 692 -25 q 319 -158 478 -158 m 761 -290 l 757 -275 q 817 -226 801 -258 q 838 -174 833 -194 q 815 -182 829 -182 q 790 -172 801 -182 q 778 -143 778 -162 q 790 -111 778 -124 q 821 -99 803 -99 q 850 -109 836 -99 q 864 -144 864 -119 q 856 -194 864 -164 q 825 -251 847 -224 q 761 -290 803 -278 z "},"L":{"ha":646,"x_min":-86,"x_max":821,"o":"m 658 -165 q 481 -119 571 -165 q 278 4 390 -72 q 129 -42 214 -42 q 22 -22 71 -42 q -56 38 -26 -1 q -86 135 -86 78 q -18 193 -86 193 q 272 58 79 193 q 386 436 336 147 q 211 477 288 436 q 92 588 135 518 q 50 746 50 658 q 75 844 50 806 q 161 889 107 889 q 247 858 208 889 q 301 782 286 828 q 293 768 301 768 q 285 772 288 768 q 281 778 282 775 q 164 867 239 867 q 74 733 74 867 q 117 590 74 653 q 232 493 160 528 q 389 458 304 458 q 416 610 397 535 q 465 747 435 685 q 537 846 494 808 q 636 883 579 883 q 719 852 693 883 q 746 774 746 821 q 724 674 746 728 q 665 571 703 619 q 571 485 626 521 q 454 439 515 449 q 411 204 440 303 q 310 29 382 106 q 395 -20 346 4 q 498 -65 444 -44 q 602 -99 551 -86 q 692 -111 653 -111 q 776 -84 749 -111 q 803 -14 803 -57 q 799 22 803 4 q 806 31 799 31 q 817 15 814 31 q 821 -19 821 0 q 776 -124 821 -83 q 658 -165 731 -165 m 456 463 q 565 506 514 472 q 653 586 617 539 q 702 676 685 626 q 719 768 719 725 q 705 828 719 804 q 657 851 690 851 q 570 816 606 851 q 512 722 535 781 q 476 596 489 664 q 456 463 463 528 m 121 -19 q 243 26 193 -19 q -19 154 54 154 q -58 122 -58 154 q -30 56 -58 89 q 40 2 -1 24 q 121 -19 82 -19 z "},"Ǉ":{"ha":1321,"x_min":-86,"x_max":1351,"o":"m 658 -165 q 481 -119 571 -165 q 278 4 390 -72 q 129 -42 214 -42 q 22 -22 71 -42 q -56 38 -26 -1 q -86 135 -86 78 q -18 193 -86 193 q 272 58 79 193 q 386 436 336 147 q 211 477 288 436 q 92 588 135 518 q 50 746 50 658 q 75 844 50 806 q 161 889 107 889 q 247 858 208 889 q 301 782 286 828 q 293 768 301 768 q 285 772 288 768 q 281 778 282 775 q 164 867 239 867 q 74 733 74 867 q 117 590 74 653 q 232 493 160 528 q 389 458 304 458 q 416 610 397 535 q 465 747 435 685 q 537 846 494 808 q 636 883 579 883 q 719 852 693 883 q 746 774 746 821 q 724 674 746 728 q 665 571 703 619 q 571 485 626 521 q 454 439 515 449 q 411 204 440 303 q 310 29 382 106 q 395 -20 346 4 q 498 -65 444 -44 q 602 -99 551 -86 q 692 -111 653 -111 q 776 -84 749 -111 q 803 -14 803 -57 q 799 22 803 4 q 806 31 799 31 q 817 15 814 31 q 821 -19 821 0 q 776 -124 821 -83 q 658 -165 731 -165 m 456 463 q 565 506 514 472 q 653 586 617 539 q 702 676 685 626 q 719 768 719 725 q 705 828 719 804 q 657 851 690 851 q 570 816 606 851 q 512 722 535 781 q 476 596 489 664 q 456 463 463 528 m 121 -19 q 243 26 193 -19 q -19 154 54 154 q -58 122 -58 154 q -30 56 -58 89 q 40 2 -1 24 q 121 -19 82 -19 m 793 -378 q 642 -337 710 -378 q 535 -226 575 -296 q 496 -72 496 -157 q 530 75 496 8 q 625 182 564 142 q 764 222 686 222 q 867 194 822 222 q 936 119 911 167 q 961 13 961 71 q 914 -119 961 -69 q 793 -168 867 -168 q 740 -156 758 -168 q 722 -135 722 -144 q 731 -122 722 -122 q 757 -146 740 -140 q 792 -151 774 -151 q 899 -105 860 -151 q 938 13 938 -58 q 916 109 938 65 q 856 178 894 153 q 764 204 817 204 q 642 168 694 204 q 562 72 590 132 q 533 -62 533 11 q 567 -207 533 -140 q 659 -315 600 -274 q 794 -356 718 -356 q 955 -310 886 -356 q 1071 -185 1024 -264 q 1147 -5 1118 -107 q 1190 210 1176 97 q 1203 436 1203 324 q 1235 708 1203 603 q 1326 839 1268 813 q 1303 843 1321 840 q 1263 846 1286 846 q 1122 815 1188 846 q 1015 727 1056 783 q 974 596 974 671 q 990 526 974 557 q 1046 494 1006 494 q 1110 526 1083 494 q 1138 596 1138 557 q 1135 623 1138 608 q 1129 640 1132 638 q 1126 647 1126 646 q 1135 656 1126 656 q 1149 641 1142 656 q 1156 594 1156 626 q 1124 513 1156 547 q 1043 478 1092 478 q 967 510 992 478 q 943 588 943 542 q 989 727 943 667 q 1108 822 1035 788 q 1265 857 1182 857 q 1314 851 1286 857 q 1346 846 1342 846 l 1350 846 q 1351 842 1351 844 q 1342 833 1351 840 q 1322 810 1332 825 q 1274 699 1285 754 q 1263 571 1263 643 q 1265 466 1263 524 q 1267 336 1267 408 q 1239 69 1267 197 q 1153 -160 1211 -60 q 1006 -319 1096 -261 q 793 -378 917 -378 z "},"Ĺ":{"ha":646,"x_min":-86,"x_max":821,"o":"m 658 -165 q 481 -119 571 -165 q 278 4 390 -72 q 129 -42 214 -42 q 22 -22 71 -42 q -56 38 -26 -1 q -86 135 -86 78 q -18 193 -86 193 q 272 58 79 193 q 386 436 336 147 q 211 477 288 436 q 92 588 135 518 q 50 746 50 658 q 75 844 50 806 q 161 889 107 889 q 247 858 208 889 q 301 782 286 828 q 293 768 301 768 q 285 772 288 768 q 281 778 282 775 q 164 867 239 867 q 74 733 74 867 q 117 590 74 653 q 232 493 160 528 q 389 458 304 458 q 416 610 397 535 q 465 747 435 685 q 537 846 494 808 q 636 883 579 883 q 719 852 693 883 q 746 774 746 821 q 724 674 746 728 q 665 571 703 619 q 571 485 626 521 q 454 439 515 449 q 411 204 440 303 q 310 29 382 106 q 395 -20 346 4 q 498 -65 444 -44 q 602 -99 551 -86 q 692 -111 653 -111 q 776 -84 749 -111 q 803 -14 803 -57 q 799 22 803 4 q 806 31 799 31 q 817 15 814 31 q 821 -19 821 0 q 776 -124 821 -83 q 658 -165 731 -165 m 456 463 q 565 506 514 472 q 653 586 617 539 q 702 676 685 626 q 719 768 719 725 q 705 828 719 804 q 657 851 690 851 q 570 816 606 851 q 512 722 535 781 q 476 596 489 664 q 456 463 463 528 m 121 -19 q 243 26 193 -19 q -19 154 54 154 q -58 122 -58 154 q -30 56 -58 89 q 40 2 -1 24 q 121 -19 82 -19 m 657 974 q 636 978 636 974 q 656 996 636 979 q 704 1034 676 1013 q 756 1072 732 1056 q 785 1088 779 1088 q 807 1081 793 1088 q 821 1064 821 1074 l 657 974 z "},"Ľ":{"ha":646,"x_min":-86,"x_max":871,"o":"m 658 -165 q 481 -119 571 -165 q 278 4 390 -72 q 129 -42 214 -42 q 22 -22 71 -42 q -56 38 -26 -1 q -86 135 -86 78 q -18 193 -86 193 q 272 58 79 193 q 386 436 336 147 q 211 477 288 436 q 92 588 135 518 q 50 746 50 658 q 75 844 50 806 q 161 889 107 889 q 247 858 208 889 q 301 782 286 828 q 293 768 301 768 q 285 772 288 768 q 281 778 282 775 q 164 867 239 867 q 74 733 74 867 q 117 590 74 653 q 232 493 160 528 q 389 458 304 458 q 416 610 397 535 q 465 747 435 685 q 537 846 494 808 q 636 883 579 883 q 719 852 693 883 q 746 774 746 821 q 724 674 746 728 q 665 571 703 619 q 571 485 626 521 q 454 439 515 449 q 411 204 440 303 q 310 29 382 106 q 395 -20 346 4 q 498 -65 444 -44 q 602 -99 551 -86 q 692 -111 653 -111 q 776 -84 749 -111 q 803 -14 803 -57 q 799 22 803 4 q 806 31 799 31 q 817 15 814 31 q 821 -19 821 0 q 776 -124 821 -83 q 658 -165 731 -165 m 456 463 q 565 506 514 472 q 653 586 617 539 q 702 676 685 626 q 719 768 719 725 q 705 828 719 804 q 657 851 690 851 q 570 816 606 851 q 512 722 535 781 q 476 596 489 664 q 456 463 463 528 m 121 -19 q 243 26 193 -19 q -19 154 54 154 q -58 122 -58 154 q -30 56 -58 89 q 40 2 -1 24 q 121 -19 82 -19 m 768 694 l 764 710 q 824 758 808 726 q 844 811 840 790 q 822 803 836 803 q 797 813 808 803 q 785 842 785 822 q 797 874 785 861 q 828 886 810 886 q 857 876 843 886 q 871 840 871 865 q 863 791 871 821 q 832 734 854 761 q 768 694 810 707 z "},"Ļ":{"ha":646,"x_min":-86,"x_max":821,"o":"m 658 -165 q 481 -119 571 -165 q 278 4 390 -72 q 129 -42 214 -42 q 22 -22 71 -42 q -56 38 -26 -1 q -86 135 -86 78 q -18 193 -86 193 q 272 58 79 193 q 386 436 336 147 q 211 477 288 436 q 92 588 135 518 q 50 746 50 658 q 75 844 50 806 q 161 889 107 889 q 247 858 208 889 q 301 782 286 828 q 293 768 301 768 q 285 772 288 768 q 281 778 282 775 q 164 867 239 867 q 74 733 74 867 q 117 590 74 653 q 232 493 160 528 q 389 458 304 458 q 416 610 397 535 q 465 747 435 685 q 537 846 494 808 q 636 883 579 883 q 719 852 693 883 q 746 774 746 821 q 724 674 746 728 q 665 571 703 619 q 571 485 626 521 q 454 439 515 449 q 411 204 440 303 q 310 29 382 106 q 395 -20 346 4 q 498 -65 444 -44 q 602 -99 551 -86 q 692 -111 653 -111 q 776 -84 749 -111 q 803 -14 803 -57 q 799 22 803 4 q 806 31 799 31 q 817 15 814 31 q 821 -19 821 0 q 776 -124 821 -83 q 658 -165 731 -165 m 456 463 q 565 506 514 472 q 653 586 617 539 q 702 676 685 626 q 719 768 719 725 q 705 828 719 804 q 657 851 690 851 q 570 816 606 851 q 512 722 535 781 q 476 596 489 664 q 456 463 463 528 m 121 -19 q 243 26 193 -19 q -19 154 54 154 q -58 122 -58 154 q -30 56 -58 89 q 40 2 -1 24 q 121 -19 82 -19 m 204 -290 l 200 -275 q 260 -226 244 -258 q 281 -174 276 -194 q 258 -182 272 -182 q 233 -172 244 -182 q 221 -143 221 -162 q 233 -111 221 -124 q 264 -99 246 -99 q 293 -109 279 -99 q 307 -144 307 -119 q 299 -194 307 -164 q 268 -251 290 -224 q 204 -290 246 -278 z "},"Ŀ":{"ha":646,"x_min":-86,"x_max":821,"o":"m 658 -165 q 481 -119 571 -165 q 278 4 390 -72 q 129 -42 214 -42 q 22 -22 71 -42 q -56 38 -26 -1 q -86 135 -86 78 q -18 193 -86 193 q 272 58 79 193 q 386 436 336 147 q 211 477 288 436 q 92 588 135 518 q 50 746 50 658 q 75 844 50 806 q 161 889 107 889 q 247 858 208 889 q 301 782 286 828 q 293 768 301 768 q 285 772 288 768 q 281 778 282 775 q 164 867 239 867 q 74 733 74 867 q 117 590 74 653 q 232 493 160 528 q 389 458 304 458 q 416 610 397 535 q 465 747 435 685 q 537 846 494 808 q 636 883 579 883 q 719 852 693 883 q 746 774 746 821 q 724 674 746 728 q 665 571 703 619 q 571 485 626 521 q 454 439 515 449 q 411 204 440 303 q 310 29 382 106 q 395 -20 346 4 q 498 -65 444 -44 q 602 -99 551 -86 q 692 -111 653 -111 q 776 -84 749 -111 q 803 -14 803 -57 q 799 22 803 4 q 806 31 799 31 q 817 15 814 31 q 821 -19 821 0 q 776 -124 821 -83 q 658 -165 731 -165 m 456 463 q 565 506 514 472 q 653 586 617 539 q 702 676 685 626 q 719 768 719 725 q 705 828 719 804 q 657 851 690 851 q 570 816 606 851 q 512 722 535 781 q 476 596 489 664 q 456 463 463 528 m 706 303 q 676 315 688 303 q 664 344 664 326 q 678 378 664 364 q 713 392 693 392 q 741 380 729 392 q 753 350 753 368 q 739 317 753 331 q 706 303 725 303 m 121 -19 q 243 26 193 -19 q -19 154 54 154 q -58 122 -58 154 q -30 56 -58 89 q 40 2 -1 24 q 121 -19 82 -19 z "},"ǈ":{"ha":971,"x_min":-86,"x_max":1013,"o":"m 658 -165 q 481 -119 571 -165 q 278 4 390 -72 q 129 -42 214 -42 q 22 -22 71 -42 q -56 38 -26 -1 q -86 135 -86 78 q -18 193 -86 193 q 272 58 79 193 q 386 436 336 147 q 211 477 288 436 q 92 588 135 518 q 50 746 50 658 q 75 844 50 806 q 161 889 107 889 q 247 858 208 889 q 301 782 286 828 q 293 768 301 768 q 285 772 288 768 q 281 778 282 775 q 164 867 239 867 q 74 733 74 867 q 117 590 74 653 q 232 493 160 528 q 389 458 304 458 q 416 610 397 535 q 465 747 435 685 q 537 846 494 808 q 636 883 579 883 q 719 852 693 883 q 746 774 746 821 q 724 674 746 728 q 665 571 703 619 q 571 485 626 521 q 454 439 515 449 q 411 204 440 303 q 310 29 382 106 q 395 -20 346 4 q 498 -65 444 -44 q 602 -99 551 -86 q 692 -111 653 -111 q 776 -84 749 -111 q 803 -14 803 -57 q 799 22 803 4 q 806 31 799 31 q 817 15 814 31 q 821 -19 821 0 q 776 -124 821 -83 q 658 -165 731 -165 m 456 463 q 565 506 514 472 q 653 586 617 539 q 702 676 685 626 q 719 768 719 725 q 705 828 719 804 q 657 851 690 851 q 570 816 606 851 q 512 722 535 781 q 476 596 489 664 q 456 463 463 528 m 121 -19 q 243 26 193 -19 q -19 154 54 154 q -58 122 -58 154 q -30 56 -58 89 q 40 2 -1 24 q 121 -19 82 -19 m 576 -396 q 501 -333 501 -396 q 535 -237 501 -286 q 626 -137 569 -189 q 751 -28 683 -85 l 778 232 q 772 235 778 236 q 768 239 767 235 q 788 358 779 296 q 801 476 796 421 q 824 472 817 472 q 863 504 846 472 q 869 511 865 511 q 874 500 875 511 l 821 22 q 931 110 883 61 q 996 239 978 160 q 1006 247 997 247 q 1013 239 1013 247 q 972 138 1000 179 q 906 65 944 96 q 821 3 868 33 q 807 -140 821 -69 q 763 -269 793 -211 q 687 -361 733 -326 q 576 -396 640 -396 m 574 -378 q 669 -327 626 -378 q 732 -185 713 -276 q 743 -117 739 -149 q 747 -58 747 -85 q 636 -152 688 -104 q 553 -246 585 -200 q 521 -335 521 -292 q 534 -368 521 -358 q 574 -378 547 -378 m 840 597 q 810 609 822 597 q 799 639 799 621 q 813 672 799 658 q 847 686 828 686 q 876 674 864 686 q 888 644 888 663 q 874 611 888 625 q 840 597 860 597 z "},"Ł":{"ha":646,"x_min":-86,"x_max":821,"o":"m 221 236 l 217 268 l 358 296 q 386 436 372 358 q 211 477 288 436 q 92 588 135 518 q 50 746 50 658 q 75 844 50 806 q 161 889 107 889 q 247 858 208 889 q 301 782 286 828 q 293 768 301 768 q 285 772 288 768 q 281 778 282 775 q 164 867 239 867 q 74 733 74 867 q 117 590 74 653 q 232 493 160 528 q 389 458 304 458 q 416 610 397 535 q 465 747 435 685 q 537 846 494 808 q 636 883 579 883 q 719 852 693 883 q 746 774 746 821 q 724 674 746 728 q 665 571 703 619 q 571 485 626 521 q 454 439 515 449 q 447 372 451 404 q 438 311 443 340 l 579 339 l 583 307 l 431 278 q 386 141 414 201 q 310 29 358 81 q 395 -20 346 4 q 498 -65 444 -44 q 602 -99 551 -86 q 692 -111 653 -111 q 776 -84 749 -111 q 803 -14 803 -57 q 799 22 803 4 q 806 31 799 31 q 817 15 814 31 q 821 -19 821 0 q 776 -124 821 -83 q 658 -165 731 -165 q 481 -119 571 -165 q 278 4 390 -72 q 129 -42 214 -42 q 22 -22 71 -42 q -56 38 -26 -1 q -86 135 -86 78 q -18 193 -86 193 q 272 58 79 193 q 350 261 314 117 l 221 236 m 456 463 q 565 506 514 472 q 653 586 617 539 q 702 676 685 626 q 719 768 719 725 q 705 828 719 804 q 657 851 690 851 q 570 816 606 851 q 512 722 535 781 q 476 596 489 664 q 456 463 463 528 m 121 -19 q 243 26 193 -19 q -19 154 54 154 q -58 122 -58 154 q -30 56 -58 89 q 40 2 -1 24 q 121 -19 82 -19 z "}}}
